# Blender v2.78 (sub 0) OBJ File: 'FACE.blend'
# www.blender.org
mtllib FACE.mtl
o INNARDS_Cube.001
v -0.438729 -0.450820 0.004815
v -0.438729 0.450820 0.004815
v -0.438729 -0.450820 -0.122897
v -0.438729 0.450820 -0.122897
v 0.438729 -0.450820 0.004815
v 0.438729 0.450820 0.004815
v 0.438729 -0.450820 -0.122897
v 0.438729 0.450820 -0.122897
vn -1.0000 0.0000 0.0000
vn 0.0000 0.0000 -1.0000
vn 1.0000 0.0000 0.0000
vn 0.0000 0.0000 1.0000
vn 0.0000 -1.0000 0.0000
vn 0.0000 1.0000 0.0000
usemtl Material.001
s off
f 1//1 2//1 4//1 3//1
f 3//2 4//2 8//2 7//2
f 7//3 8//3 6//3 5//3
f 5//4 6//4 2//4 1//4
f 3//5 7//5 5//5 1//5
f 8//6 4//6 2//6 6//6
o FACE_Cube
v -0.357655 -0.333146 -0.177627
v 0.357654 -0.333146 -0.177627
v -0.357655 0.382163 -0.177627
v 0.357654 0.382163 -0.177627
v -0.000000 -0.333146 -0.177627
v -0.357655 0.024509 -0.177627
v 0.357654 0.024509 -0.177627
v -0.000000 0.382163 -0.177627
v -0.000000 0.024509 -0.177627
v 0.178827 -0.333146 -0.177627
v -0.357655 0.203336 -0.177627
v 0.357654 0.203336 -0.177627
v 0.178827 0.382163 -0.177627
v -0.178828 -0.333146 -0.177627
v -0.357655 -0.154318 -0.177627
v 0.357654 -0.154318 -0.177627
v -0.178827 0.382163 -0.177627
v 0.178827 0.024509 -0.177627
v -0.178827 0.024509 -0.177627
v -0.000000 0.203336 -0.177627
v 0.268240 -0.333146 -0.177627
v -0.357655 0.292750 -0.177627
v 0.357654 0.292750 -0.177627
v 0.268241 0.382163 -0.177627
v -0.089414 -0.333146 -0.177627
v -0.357655 -0.064905 -0.177627
v 0.357654 -0.064905 -0.177627
v -0.089414 0.382163 -0.177627
v 0.268240 0.024509 -0.177627
v -0.089414 0.024509 -0.177627
v -0.000000 -0.243732 -0.177627
v -0.000000 0.113922 -0.177627
v 0.089413 -0.333146 -0.177627
v -0.357655 0.113922 -0.177627
v 0.357654 0.113922 -0.177627
v 0.089413 0.382163 -0.177627
v -0.268241 -0.333146 -0.177627
v -0.357655 -0.243732 -0.177627
v 0.357654 -0.243732 -0.177627
v -0.268241 0.382163 -0.177627
v 0.089413 0.024509 -0.177627
v -0.268241 0.024509 -0.177627
v -0.000000 0.292750 -0.177627
v -0.089414 0.203336 -0.177627
v -0.268241 0.203336 -0.177627
v -0.178827 0.113922 -0.177627
v -0.178827 0.292750 -0.177627
v -0.268241 -0.154318 -0.177627
v -0.178828 -0.243732 -0.177627
v 0.268240 -0.154318 -0.177627
v 0.178827 -0.243732 -0.177627
v 0.268241 0.203336 -0.177627
v 0.089413 0.203336 -0.177627
v 0.178827 0.113922 -0.177627
v 0.178827 0.292750 -0.177627
v 0.089413 0.292750 -0.177627
v 0.089413 0.113922 -0.177627
v 0.268240 0.113922 -0.177627
v 0.089413 -0.243732 -0.177627
v 0.268240 -0.243732 -0.177627
v -0.268241 -0.064905 -0.177627
v -0.268241 -0.243732 -0.177627
v -0.089414 -0.243732 -0.177627
v -0.268241 0.292750 -0.177627
v -0.268241 0.113922 -0.177627
v -0.089414 0.113922 -0.177627
v -0.089414 0.292750 -0.177627
v 0.268240 -0.064905 -0.177627
v 0.268241 0.292750 -0.177627
vn -0.0000 0.0000 -1.0000
usemtl Material
s off
f 77//7 32//7 12//7 31//7
f 76//7 37//7 15//7 35//7
f 75//7 36//7 16//7 51//7
f 74//7 52//7 28//7 40//7
f 72//7 48//7 25//7 55//7
f 68//7 58//7 24//7 47//7
f 66//7 60//7 20//7 43//7
f 64//7 44//7 21//7 63//7
f 28//7 51//7 64//7 61//7
f 51//7 16//7 44//7 64//7
f 49//7 65//7 62//7 26//7
f 17//7 40//7 65//7 49//7
f 40//7 28//7 61//7 65//7
f 37//7 66//7 43//7 15//7
f 26//7 62//7 66//7 37//7
f 41//7 67//7 59//7 18//7
f 13//7 39//7 67//7 41//7
f 29//7 68//7 47//7 10//7
f 18//7 59//7 68//7 29//7
f 23//7 34//7 69//7 56//7
f 34//7 14//7 50//7 69//7
f 45//7 70//7 57//7 22//7
f 9//7 46//7 70//7 45//7
f 46//7 23//7 56//7 70//7
f 33//7 71//7 39//7 13//7
f 22//7 57//7 71//7 33//7
f 19//7 30//7 72//7 53//7
f 30//7 11//7 48//7 72//7
f 50//7 73//7 54//7 27//7
f 14//7 42//7 73//7 50//7
f 42//7 19//7 53//7 73//7
f 38//7 74//7 40//7 17//7
f 27//7 54//7 74//7 38//7
f 52//7 75//7 51//7 28//7
f 55//7 25//7 36//7 75//7
f 58//7 76//7 35//7 24//7
f 60//7 77//7 31//7 20//7
f 63//7 21//7 32//7 77//7
