# Blender v2.78 (sub 0) OBJ File: 'GridFace.blend'
# www.blender.org
mtllib GridFace.mtl
o Cube
v -0.560000 0.560000 0.041420
v -0.292528 0.292529 0.372780
v 0.292529 0.292529 0.372780
v 0.560000 0.560000 0.041420
v -0.560001 -0.560000 0.041421
v -0.292528 -0.292529 0.372781
v 0.292529 -0.292529 0.372780
v 0.559999 -0.560000 0.041420
vt 0.5000 0.0001
vt 0.5000 0.2500
vt 0.2500 0.2500
vt 0.2500 0.0001
vt 0.5000 0.7500
vt 0.2500 0.7500
vt 0.2500 0.5000
vt 0.5000 0.5000
vt 0.7500 0.7500
vt 0.7500 0.5000
vt 0.0001 0.5000
vt 0.0001 0.7500
vt 0.5000 0.9999
vt 0.2500 0.9999
vn 0.0000 0.7781 0.6281
vn -0.0000 -0.7781 0.6281
vn -0.7781 0.0000 0.6281
vn 0.0000 0.0000 1.0000
vn 0.7781 -0.0000 0.6281
vn -0.0000 -0.0000 -1.0000
usemtl Material
s off
f 1/1/1 2/2/1 3/3/1 4/4/1
f 5/5/2 8/6/2 7/7/2 6/8/2
f 1/9/3 5/5/3 6/8/3 2/10/3
f 2/2/4 6/8/4 7/7/4 3/3/4
f 3/11/5 7/7/5 8/6/5 4/12/5
f 5/5/6 1/13/6 4/14/6 8/6/6
