# Blender v2.78 (sub 0) OBJ File: 'Grid.blend'
# www.blender.org
mtllib Grid.mtl
o Cube
v 10.000000 -0.200000 -10.000000
v 10.000000 -0.200000 10.000000
v -10.000001 -0.200000 9.999998
v -9.999996 -0.200000 -10.000004
v 10.000004 0.000000 -9.999996
v 9.999994 0.000000 10.000006
v -10.000004 0.000000 9.999996
v -9.999999 0.000000 -10.000000
vt 9.9169 3.4168
vt -10.0796 -16.5797
vt 9.9169 -16.5797
vt 29.9134 -16.5797
vt 29.9134 3.4168
vt -10.0796 -36.5762
vt 9.9169 -36.5762
vt -30.0762 -16.5797
vt -10.0796 3.4168
vt -30.0762 3.4169
vt 9.9169 23.4134
vt -10.0796 23.4134
vn 0.0000 1.0000 0.0000
vn 1.0000 -0.0000 0.0000
vn -0.0000 -0.0000 1.0000
vn -1.0000 -0.0000 -0.0000
vn 0.0000 0.0000 -1.0000
usemtl Material
s off
f 5/1/1 7/2/1 6/3/1
f 5/1/2 2/4/2 1/5/2
f 6/3/3 3/6/3 2/7/3
f 3/8/4 8/9/4 4/10/4
f 1/11/5 8/9/5 5/1/5
f 5/1/1 8/9/1 7/2/1
f 5/1/2 6/3/2 2/4/2
f 6/3/3 7/2/3 3/6/3
f 3/8/4 7/2/4 8/9/4
f 1/11/5 4/12/5 8/9/5
