# Blender v2.78 (sub 0) OBJ File: 'Alien Head.blend'
# www.blender.org
mtllib Alien Head.mtl
o alienhead_Cube.031
v -0.172572 0.088662 -0.054249
v -0.165006 0.204418 -0.037531
v -0.127886 0.196498 -0.112557
v -0.168338 0.055848 -0.058469
v -0.182668 0.090066 0.028329
v -0.082732 0.076150 -0.165015
v -0.073614 0.181362 -0.150039
v -0.000000 0.113020 -0.173401
v -0.132474 0.085138 -0.134283
v -0.061636 -0.182772 -0.117603
v -0.119660 -0.030800 -0.114363
v -0.073486 -0.050800 -0.145547
v -0.024888 0.035794 -0.178637
v -0.173166 0.204754 0.051203
v -0.034946 -0.154766 -0.147053
v -0.022964 -0.049888 -0.159873
v -0.111746 -0.129068 -0.030543
v -0.160388 -0.006172 -0.060207
v -0.159942 0.067154 -0.071951
v -0.129856 0.069638 -0.112773
v 0.014974 -0.039412 -0.162235
v -0.000000 -0.060462 -0.165815
v -0.000000 -0.012384 -0.173529
v -0.086842 0.059242 -0.139639
v -0.047038 0.033696 -0.156537
v -0.149764 0.006850 -0.084719
v -0.025498 0.004068 -0.164329
v -0.014974 -0.039412 -0.162235
v -0.174512 0.003928 0.015197
v -0.171750 0.017090 0.096781
v -0.135386 -0.088060 0.045185
v -0.100956 -0.142450 0.065271
v -0.035874 -0.148486 0.165295
v -0.061110 -0.089770 0.203059
v -0.101648 -0.118736 0.123901
v -0.143204 -0.054972 0.119925
v -0.162204 0.102178 0.145637
v -0.107542 0.044860 0.231119
v -0.122290 0.119772 0.218719
v -0.153162 0.032136 0.165697
v -0.136670 0.222414 0.157503
v -0.135068 0.261508 0.072769
v -0.061846 -0.206022 -0.076225
v -0.050250 -0.204010 0.011415
v -0.068064 -0.161680 0.104375
v -0.039018 -0.197184 0.072595
v -0.039014 -0.171086 0.131115
v 0.000000 -0.170320 0.136227
v -0.063680 0.218526 0.219413
v 0.000000 0.279646 0.176823
v -0.071170 0.285478 0.140607
v -0.022744 -0.236232 -0.113211
v -0.000000 -0.215536 -0.012713
v 0.000000 -0.019778 0.254651
v -0.091744 -0.019778 0.229649
v 0.000000 -0.080472 0.224301
v -0.132254 -0.034860 0.170539
v -0.052566 0.048376 0.260921
v -0.061350 0.127826 0.254759
v -0.076698 0.243652 -0.106171
v -0.043396 -0.192218 -0.135139
v -0.000000 -0.206000 -0.143343
v -0.000000 0.302240 -0.020071
v -0.000000 0.263524 -0.105455
v -0.087650 0.282806 -0.018469
v -0.070596 0.299358 0.073199
v 0.000000 0.132512 0.271927
v 0.000000 0.048768 0.274891
v 0.000000 -0.204960 0.050605
v 0.000000 -0.142996 0.178327
v -0.000000 0.222678 -0.143925
v 0.000000 0.307732 0.066825
v 0.000000 0.219580 0.238063
v -0.000000 0.173662 -0.161375
v -0.000000 -0.204508 -0.142623
v -0.029080 -0.190100 -0.124247
v -0.000000 -0.195972 -0.121291
v -0.000000 -0.191394 -0.147975
v -0.037484 -0.192930 -0.135571
v -0.000000 -0.190106 -0.149695
v -0.000000 -0.186720 -0.124697
v 0.024888 0.035794 -0.178637
v 0.172572 0.088662 -0.054249
v 0.127886 0.196498 -0.112557
v 0.165006 0.204418 -0.037531
v 0.182668 0.090066 0.028329
v 0.168338 0.055848 -0.058469
v 0.082732 0.076150 -0.165015
v 0.073614 0.181362 -0.150039
v 0.132474 0.085138 -0.134283
v 0.061636 -0.182772 -0.117603
v 0.073486 -0.050800 -0.145547
v 0.119660 -0.030800 -0.114363
v 0.173166 0.204754 0.051203
v 0.034946 -0.154766 -0.147053
v 0.022964 -0.049888 -0.159873
v 0.160388 -0.006172 -0.060207
v 0.111746 -0.129068 -0.030543
v 0.159942 0.067154 -0.071951
v 0.129856 0.069638 -0.112773
v 0.025498 0.004068 -0.164329
v 0.086842 0.059242 -0.139639
v 0.047038 0.033696 -0.156537
v 0.149764 0.006850 -0.084719
v 0.174512 0.003928 0.015197
v 0.171750 0.017090 0.096781
v 0.135386 -0.088060 0.045185
v 0.100956 -0.142450 0.065271
v 0.035874 -0.148486 0.165295
v 0.101648 -0.118736 0.123901
v 0.061110 -0.089770 0.203059
v 0.143204 -0.054972 0.119925
v 0.162204 0.102178 0.145637
v 0.107542 0.044860 0.231119
v 0.153162 0.032136 0.165697
v 0.122290 0.119772 0.218719
v 0.136670 0.222414 0.157503
v 0.135068 0.261508 0.072769
v 0.061846 -0.206022 -0.076225
v 0.050250 -0.204010 0.011415
v 0.068064 -0.161680 0.104375
v 0.039014 -0.171086 0.131115
v 0.039018 -0.197184 0.072595
v 0.063680 0.218526 0.219413
v 0.071170 0.285478 0.140607
v 0.022744 -0.236232 -0.113211
v 0.091744 -0.019778 0.229649
v 0.132254 -0.034860 0.170539
v 0.052566 0.048376 0.260921
v 0.061350 0.127826 0.254759
v 0.076698 0.243652 -0.106171
v 0.043396 -0.192218 -0.135139
v 0.087650 0.282806 -0.018469
v 0.070596 0.299358 0.073199
v 0.029080 -0.190100 -0.124247
v 0.037484 -0.192930 -0.135571
v -0.074084 -0.019304 -0.161049
v -0.032186 -0.032248 -0.169003
v -0.077718 -0.035048 -0.154269
v -0.114912 -0.020564 -0.131889
v -0.074084 0.018280 -0.162265
v -0.123620 0.035536 -0.135715
v -0.091266 0.048574 -0.151453
v -0.155928 0.054440 -0.088801
v -0.125254 0.057876 -0.130759
v -0.038352 0.002584 -0.168185
v -0.058842 0.026882 -0.162535
v -0.140268 0.008138 -0.105337
v -0.118092 0.000100 -0.135043
v 0.074084 -0.019304 -0.161049
v 0.077718 -0.035048 -0.154269
v 0.032186 -0.032248 -0.169003
v 0.114912 -0.020564 -0.131889
v 0.074084 0.018280 -0.162265
v 0.123620 0.035536 -0.135715
v 0.091266 0.048574 -0.151453
v 0.125254 0.057876 -0.130759
v 0.155928 0.054440 -0.088801
v 0.038352 0.002584 -0.168185
v 0.058842 0.026882 -0.162535
v 0.140268 0.008138 -0.105337
v 0.118092 0.000100 -0.135043
vn -0.8843 0.1229 -0.4505
vn -0.9866 -0.1120 -0.1187
vn -0.1670 0.1531 -0.9740
vn -0.8850 0.1240 -0.4488
vn -0.5233 0.1839 -0.8320
vn -0.6090 -0.2163 -0.7631
vn -0.1509 0.1152 -0.9818
vn -0.9868 0.1062 -0.1224
vn -0.9927 0.0781 -0.0916
vn -0.4968 0.1644 -0.8522
vn -0.6124 -0.2160 -0.7604
vn -0.2703 -0.0863 -0.9589
vn -0.8068 -0.4197 -0.4159
vn -0.5455 -0.7100 -0.4453
vn -0.8912 -0.3337 -0.3071
vn -0.8341 -0.0368 -0.5504
vn 0.4170 -0.1440 -0.8974
vn -0.4619 -0.7018 -0.5424
vn -0.5470 -0.5804 -0.6033
vn -0.8246 -0.2665 -0.4990
vn -0.5079 -0.3460 -0.7889
vn -0.2591 -0.0201 -0.9656
vn -0.8918 -0.1020 -0.4407
vn -0.9131 -0.3901 -0.1188
vn -0.9267 -0.3648 0.0902
vn -0.8483 -0.5290 0.0216
vn -0.6028 -0.5985 0.5277
vn -0.8587 -0.4957 0.1296
vn -0.8261 -0.5257 0.2029
vn -0.9848 0.0483 0.1668
vn -0.8127 -0.0641 0.5792
vn -0.9618 -0.0469 0.2697
vn -0.8827 0.1433 0.4476
vn -0.8468 0.4888 0.2095
vn -0.9403 0.1706 0.2945
vn -0.9344 -0.3515 0.0579
vn -0.7174 -0.6878 0.1107
vn -0.5570 -0.7585 0.3383
vn -0.8343 -0.5511 0.0170
vn -0.0563 -0.8304 0.5543
vn -0.2658 0.7221 0.6387
vn -0.4714 0.6495 0.5966
vn -0.1139 -0.9677 0.2251
vn -0.2368 -0.4345 0.8690
vn -0.6487 -0.5014 0.5725
vn -0.4657 -0.1337 0.8748
vn -0.9936 -0.1017 0.0500
vn -0.5955 0.3483 0.7239
vn -0.5147 0.2998 0.8033
vn -0.3829 0.5192 -0.7641
vn -0.3184 -0.5382 -0.7803
vn -0.8734 -0.4227 -0.2419
vn -0.2050 0.8914 -0.4042
vn -0.6031 0.7052 -0.3728
vn -0.5050 0.8609 -0.0615
vn -0.2168 0.9669 -0.1343
vn -0.9108 -0.4080 -0.0634
vn -0.2569 0.0342 0.9658
vn -0.8140 0.5757 -0.0770
vn -0.7837 -0.2049 0.5863
vn -0.6993 -0.6655 0.2609
vn -0.7898 -0.4919 0.3663
vn -0.9153 -0.2636 0.3044
vn -0.9152 -0.2651 0.3034
vn -0.1456 -0.9758 0.1630
vn -0.6308 -0.6193 0.4675
vn -0.7086 -0.5517 -0.4399
vn -0.1980 -0.5807 0.7897
vn -0.0692 -0.8368 0.5431
vn -0.6562 -0.5352 0.5319
vn -0.1684 0.6758 -0.7176
vn -0.0464 0.9679 0.2471
vn -0.4997 0.8492 0.1706
vn -0.6124 0.7222 0.3216
vn -0.5527 -0.8282 0.0921
vn -0.2524 -0.2799 0.9263
vn -0.2451 -0.2746 0.9298
vn -0.2692 0.3437 0.8997
vn -0.2120 0.6977 0.6843
vn -0.1093 0.3334 -0.9364
vn 0.2197 0.9057 -0.3624
vn -0.1848 -0.5866 0.7885
vn -0.2239 0.8792 -0.4205
vn -0.6081 0.6939 -0.3857
vn -0.6766 0.7127 -0.1853
vn -0.7515 -0.5735 -0.3261
vn 0.0973 -0.9802 0.1727
vn -0.6616 -0.7221 0.2020
vn -0.2772 0.3483 0.8955
vn -0.1231 0.9904 -0.0626
vn -0.0976 0.9749 0.1999
vn -0.5888 -0.6676 0.4557
vn -0.2997 -0.2271 -0.9266
vn 0.0258 -0.3451 -0.9382
vn -0.0352 0.4343 -0.9001
vn -0.1633 -0.7897 -0.5913
vn -0.7086 -0.0637 -0.7027
vn -0.1959 -0.1210 -0.9731
vn -0.4773 0.0154 0.8786
vn -0.2363 -0.4337 0.8695
vn -0.5126 0.0410 0.8576
vn -0.9882 -0.0731 -0.1343
vn -0.8797 0.0225 0.4750
vn -0.9853 0.0126 0.1706
vn -0.2724 0.0444 0.9612
vn -0.6620 -0.7218 0.2018
vn -0.9785 -0.1207 -0.1671
vn 0.0000 0.0676 -0.9977
vn -0.1296 0.1929 -0.9726
vn -0.2426 0.5505 -0.7988
vn -0.7831 -0.2019 0.5882
vn 0.8843 0.1229 -0.4505
vn 0.9866 -0.1120 -0.1187
vn 0.1670 0.1531 -0.9740
vn 0.8850 0.1240 -0.4488
vn 0.5233 0.1839 -0.8320
vn 0.6090 -0.2163 -0.7631
vn 0.1509 0.1152 -0.9818
vn 0.9868 0.1062 -0.1224
vn 0.9927 0.0781 -0.0916
vn 0.4968 0.1644 -0.8522
vn 0.6124 -0.2160 -0.7604
vn 0.2857 -0.0840 -0.9546
vn 0.8068 -0.4197 -0.4159
vn 0.5455 -0.7100 -0.4453
vn 0.8912 -0.3337 -0.3071
vn 0.8341 -0.0368 -0.5504
vn 0.4168 -0.1441 -0.8975
vn 0.4758 -0.7401 -0.4754
vn 0.6077 -0.6120 -0.5062
vn 0.8246 -0.2665 -0.4990
vn 0.6598 -0.2983 -0.6896
vn 0.2591 -0.0201 -0.9656
vn 0.8918 -0.1020 -0.4407
vn 0.9131 -0.3901 -0.1188
vn 0.9267 -0.3648 0.0902
vn 0.8483 -0.5290 0.0216
vn 0.6028 -0.5985 0.5277
vn 0.8587 -0.4957 0.1296
vn 0.8261 -0.5257 0.2029
vn 0.9848 0.0483 0.1668
vn 0.8127 -0.0641 0.5792
vn 0.9618 -0.0469 0.2697
vn 0.8827 0.1433 0.4476
vn 0.8468 0.4888 0.2095
vn 0.9403 0.1706 0.2945
vn 0.9344 -0.3515 0.0579
vn 0.7174 -0.6878 0.1107
vn 0.5570 -0.7585 0.3383
vn 0.8343 -0.5511 0.0170
vn 0.0563 -0.8304 0.5543
vn 0.2658 0.7221 0.6387
vn 0.4714 0.6495 0.5966
vn 0.1139 -0.9677 0.2251
vn 0.2368 -0.4345 0.8690
vn 0.6487 -0.5014 0.5725
vn 0.4657 -0.1337 0.8748
vn 0.9936 -0.1017 0.0500
vn 0.5955 0.3483 0.7239
vn 0.5147 0.2998 0.8033
vn 0.3829 0.5192 -0.7641
vn 0.3184 -0.5382 -0.7803
vn 0.8734 -0.4227 -0.2419
vn 0.2050 0.8914 -0.4042
vn 0.6031 0.7052 -0.3728
vn 0.5050 0.8609 -0.0615
vn 0.2168 0.9669 -0.1343
vn 0.9108 -0.4080 -0.0634
vn 0.2569 0.0342 0.9658
vn 0.8140 0.5757 -0.0770
vn 0.7837 -0.2049 0.5863
vn 0.6993 -0.6655 0.2609
vn 0.7898 -0.4919 0.3663
vn 0.9153 -0.2636 0.3044
vn 0.9152 -0.2651 0.3034
vn 0.1216 -0.9837 0.1321
vn 0.6308 -0.6193 0.4675
vn 0.7086 -0.5517 -0.4399
vn 0.1980 -0.5807 0.7897
vn 0.0692 -0.8368 0.5431
vn 0.6562 -0.5352 0.5319
vn 0.1684 0.6758 -0.7176
vn 0.0464 0.9679 0.2471
vn 0.4997 0.8492 0.1706
vn 0.6124 0.7222 0.3216
vn 0.0000 -0.9794 0.2017
vn 0.5527 -0.8282 0.0921
vn 0.2524 -0.2799 0.9263
vn 0.2451 -0.2746 0.9298
vn 0.2692 0.3437 0.8997
vn 0.2120 0.6977 0.6843
vn 0.1093 0.3334 -0.9364
vn -0.2072 0.9018 -0.3792
vn 0.1848 -0.5866 0.7885
vn 0.2239 0.8792 -0.4205
vn 0.6081 0.6939 -0.3857
vn 0.6766 0.7127 -0.1853
vn 0.7515 -0.5735 -0.3261
vn -0.0973 -0.9802 0.1727
vn 0.6616 -0.7221 0.2020
vn 0.2772 0.3483 0.8955
vn 0.1231 0.9904 -0.0626
vn 0.0976 0.9749 0.1999
vn 0.5888 -0.6676 0.4557
vn 0.2997 -0.2271 -0.9266
vn 0.0000 -0.7059 -0.7083
vn -0.0258 -0.3451 -0.9382
vn 0.0023 0.5063 -0.8623
vn 0.1633 -0.7897 -0.5913
vn 0.7086 -0.0637 -0.7027
vn 0.1959 -0.1210 -0.9731
vn 0.4773 0.0154 0.8786
vn 0.2363 -0.4337 0.8695
vn 0.5126 0.0410 0.8576
vn 0.9882 -0.0731 -0.1343
vn 0.8797 0.0225 0.4750
vn 0.9853 0.0126 0.1706
vn 0.2724 0.0444 0.9612
vn 0.6620 -0.7218 0.2018
vn 0.9785 -0.1207 -0.1671
vn 0.1296 0.1929 -0.9726
vn 0.2426 0.5505 -0.7988
vn 0.7831 -0.2019 0.5882
vn 0.0000 -0.1054 -0.9944
vn -0.8853 -0.1606 -0.4365
vn -0.4168 -0.1441 -0.8975
vn -0.4758 -0.7401 -0.4754
vn -0.6077 -0.6120 -0.5062
vn -0.6598 -0.2983 -0.6896
vn 0.2703 -0.0863 -0.9589
vn -0.1216 -0.9837 0.1321
vn 0.2072 0.9018 -0.3792
vn 0.1162 -0.9738 0.1955
vn -0.0023 0.5063 -0.8623
vn -0.1396 -0.8320 -0.5370
vn 0.8853 -0.1606 -0.4365
vn -0.2857 -0.0840 -0.9546
vn 0.4619 -0.7018 -0.5424
vn 0.5470 -0.5804 -0.6033
vn 0.5079 -0.3460 -0.7889
vn 0.1456 -0.9758 0.1630
vn -0.2197 0.9057 -0.3624
vn -0.1162 -0.9738 0.1955
vn 0.0352 0.4343 -0.9001
vn 0.1396 -0.8320 -0.5370
vn -0.4170 -0.1440 -0.8974
vn 0.0000 -0.9213 0.3889
vn -0.0354 -0.9127 0.4070
vn 0.0000 -0.9428 0.3334
vn 0.0354 -0.9127 0.4070
vn -0.3716 -0.1565 -0.9151
vn 0.0441 -0.2082 -0.9771
vn -0.4517 -0.4170 -0.7887
vn -0.7781 -0.3868 -0.4949
vn -0.8718 -0.1912 -0.4510
vn -0.6831 -0.3920 -0.6162
vn -0.2877 0.0792 -0.9544
vn -0.6696 0.0041 -0.7427
vn -0.2038 0.4715 -0.8580
vn -0.8670 0.1333 -0.4802
vn -0.5360 0.4734 -0.6990
vn 0.0827 0.1510 -0.9851
vn 0.0254 0.3578 -0.9335
vn -0.3222 -0.0696 -0.9441
vn -0.7425 -0.1613 -0.6501
vn -0.2051 -0.0973 -0.9739
vn -0.4598 -0.0124 -0.8879
vn -0.8803 0.0244 -0.4737
vn -0.1878 -0.2177 -0.9578
vn -0.1390 -0.1427 -0.9800
vn -0.8531 -0.2194 -0.4735
vn -0.4674 -0.3413 -0.8155
vn -0.9498 -0.0664 -0.3057
vn -0.6883 -0.1612 -0.7073
vn 0.3716 -0.1565 -0.9151
vn 0.4517 -0.4170 -0.7887
vn -0.0441 -0.2082 -0.9771
vn 0.7781 -0.3868 -0.4949
vn 0.6831 -0.3920 -0.6162
vn 0.8718 -0.1912 -0.4510
vn 0.2877 0.0792 -0.9544
vn 0.6696 0.0041 -0.7427
vn 0.2038 0.4715 -0.8580
vn 0.5360 0.4734 -0.6990
vn 0.8670 0.1333 -0.4802
vn -0.0827 0.1510 -0.9851
vn -0.0254 0.3578 -0.9335
vn 0.3222 -0.0696 -0.9441
vn 0.7425 -0.1614 -0.6501
vn 0.2051 -0.0973 -0.9739
vn 0.4598 -0.0124 -0.8879
vn 0.8803 0.0244 -0.4737
vn 0.1878 -0.2177 -0.9578
vn 0.1390 -0.1427 -0.9800
vn 0.8531 -0.2194 -0.4735
vn 0.4674 -0.3413 -0.8155
vn 0.9498 -0.0664 -0.3057
vn 0.6883 -0.1612 -0.7073
usemtl alien
s off
f 1//1 2//1 3//1
f 1//2 4//2 5//2
f 6//3 7//3 8//3
f 1//4 3//4 9//4
f 7//5 9//5 3//5
f 10//6 11//6 12//6
f 8//7 13//7 6//7
f 5//8 14//8 1//8
f 2//9 1//9 14//9
f 9//10 7//10 6//10
f 10//11 12//11 15//11
f 12//12 16//12 15//12
f 11//13 17//13 18//13
f 19//14 9//14 20//14
f 11//15 10//15 17//15
f 4//16 1//16 19//16
f 21//17 22//17 23//17
f 24//18 9//18 6//18
f 25//19 6//19 13//19
f 11//20 18//20 26//20
f 27//21 13//21 23//21
f 16//22 28//22 22//22
f 26//23 18//23 4//23
f 29//24 18//24 17//24
f 30//25 29//25 31//25
f 17//26 32//26 31//26
f 33//27 34//27 35//27
f 36//28 31//28 32//28
f 32//29 35//29 36//29
f 37//30 14//30 5//30
f 38//31 39//31 40//31
f 40//32 37//32 30//32
f 37//33 39//33 41//33
f 41//34 42//34 14//34
f 14//35 37//35 41//35
f 36//36 30//36 31//36
f 43//37 44//37 32//37
f 45//38 46//38 47//38
f 32//39 17//39 43//39
f 48//40 33//40 47//40
f 49//41 50//41 51//41
f 51//42 41//42 49//42
f 52//43 53//43 44//43
f 54//44 55//44 56//44
f 34//45 55//45 57//45
f 58//46 38//46 55//46
f 30//47 5//47 29//47
f 49//48 41//48 39//48
f 39//49 59//49 49//49
f 7//50 3//50 60//50
f 61//51 62//51 52//51
f 10//52 43//52 17//52
f 63//53 64//53 65//53
f 60//54 3//54 2//54
f 65//55 42//55 66//55
f 66//56 63//56 65//56
f 29//57 17//57 31//57
f 67//58 58//58 68//58
f 14//59 42//59 2//59
f 40//60 55//60 38//60
f 35//61 32//61 45//61
f 36//62 35//62 57//62
f 57//63 40//63 30//63
f 30//64 36//64 57//64
f 69//65 44//65 53//65
f 47//66 33//66 45//66
f 61//67 52//67 10//67
f 70//68 56//68 33//68
f 48//69 70//69 33//69
f 34//70 57//70 35//70
f 71//71 60//71 64//71
f 50//72 72//72 51//72
f 66//73 42//73 51//73
f 51//74 42//74 41//74
f 52//75 44//75 43//75
f 58//76 55//76 54//76
f 58//77 54//77 68//77
f 49//78 59//78 73//78
f 73//79 50//79 49//79
f 7//80 71//80 74//80
f 75//81 76//81 77//81
f 33//82 56//82 34//82
f 65//83 64//83 60//83
f 65//84 60//84 2//84
f 65//85 2//85 42//85
f 52//86 43//86 10//86
f 78//87 76//87 79//87
f 45//88 44//88 46//88
f 67//89 73//89 59//89
f 63//90 66//90 72//90
f 72//91 66//91 51//91
f 33//92 35//92 45//92
f 15//93 80//93 61//93
f 76//94 81//94 77//94
f 62//95 79//95 75//95
f 79//96 80//96 78//96
f 15//97 61//97 10//97
f 15//98 22//98 80//98
f 58//99 59//99 38//99
f 55//100 34//100 56//100
f 38//101 59//101 39//101
f 4//102 29//102 5//102
f 40//103 39//103 37//103
f 30//104 37//104 5//104
f 67//105 59//105 58//105
f 44//106 45//106 32//106
f 4//107 18//107 29//107
f 8//108 82//108 13//108
f 7//109 74//109 8//109
f 71//110 7//110 60//110
f 40//111 57//111 55//111
f 83//112 84//112 85//112
f 83//113 86//113 87//113
f 88//114 8//114 89//114
f 83//115 90//115 84//115
f 89//116 84//116 90//116
f 91//117 92//117 93//117
f 8//118 88//118 82//118
f 86//119 83//119 94//119
f 85//120 94//120 83//120
f 90//121 88//121 89//121
f 91//122 95//122 92//122
f 22//123 96//123 95//123
f 93//124 97//124 98//124
f 90//125 99//125 100//125
f 93//126 98//126 91//126
f 87//127 99//127 83//127
f 21//128 23//128 101//128
f 102//129 90//129 100//129
f 103//130 88//130 102//130
f 97//131 93//131 104//131
f 101//132 82//132 103//132
f 96//133 22//133 21//133
f 104//134 87//134 97//134
f 105//135 98//135 97//135
f 106//136 107//136 105//136
f 98//137 107//137 108//137
f 109//138 110//138 111//138
f 112//139 108//139 107//139
f 108//140 112//140 110//140
f 113//141 86//141 94//141
f 114//142 115//142 116//142
f 115//143 106//143 113//143
f 113//144 117//144 116//144
f 117//145 94//145 118//145
f 94//146 117//146 113//146
f 112//147 107//147 106//147
f 119//148 108//148 120//148
f 121//149 122//149 123//149
f 108//150 119//150 98//150
f 48//151 122//151 109//151
f 124//152 125//152 50//152
f 125//153 124//153 117//153
f 126//154 120//154 53//154
f 54//155 56//155 127//155
f 111//156 128//156 127//156
f 129//157 127//157 114//157
f 106//158 105//158 86//158
f 124//159 116//159 117//159
f 116//160 124//160 130//160
f 89//161 131//161 84//161
f 132//162 126//162 62//162
f 91//163 98//163 119//163
f 63//164 133//164 64//164
f 131//165 85//165 84//165
f 133//166 134//166 118//166
f 134//167 133//167 63//167
f 105//168 107//168 98//168
f 67//169 68//169 129//169
f 94//170 85//170 118//170
f 115//171 114//171 127//171
f 110//172 121//172 108//172
f 112//173 128//173 110//173
f 128//174 106//174 115//174
f 106//175 128//175 112//175
f 69//176 120//176 123//176
f 122//177 121//177 109//177
f 132//178 91//178 126//178
f 70//179 109//179 56//179
f 48//180 109//180 70//180
f 111//181 110//181 128//181
f 71//182 64//182 131//182
f 50//183 125//183 72//183
f 134//184 125//184 118//184
f 125//185 117//185 118//185
f 126//186 53//186 52//186
f 126//187 119//187 120//187
f 129//188 54//188 127//188
f 129//189 68//189 54//189
f 124//190 73//190 130//190
f 73//191 124//191 50//191
f 89//192 74//192 71//192
f 75//193 135//193 136//193
f 109//194 111//194 56//194
f 133//195 131//195 64//195
f 133//196 85//196 131//196
f 133//197 118//197 85//197
f 126//198 91//198 119//198
f 135//199 78//199 136//199
f 121//200 123//200 120//200
f 67//201 130//201 73//201
f 63//202 72//202 134//202
f 72//203 125//203 134//203
f 109//204 121//204 110//204
f 95//205 132//205 80//205
f 62//206 126//206 52//206
f 135//207 77//207 81//207
f 62//208 136//208 132//208
f 80//209 136//209 78//209
f 95//210 91//210 132//210
f 95//211 80//211 22//211
f 129//212 114//212 130//212
f 127//213 56//213 111//213
f 114//214 116//214 130//214
f 87//215 86//215 105//215
f 115//216 113//216 116//216
f 106//217 86//217 113//217
f 67//218 129//218 130//218
f 120//219 108//219 121//219
f 87//220 105//220 97//220
f 89//221 8//221 74//221
f 71//222 131//222 89//222
f 115//223 127//223 128//223
f 82//224 23//224 13//224
f 19//225 1//225 9//225
f 28//226 27//226 23//226
f 24//227 20//227 9//227
f 25//228 24//228 6//228
f 27//229 25//229 13//229
f 96//230 92//230 95//230
f 69//231 46//231 44//231
f 75//232 79//232 76//232
f 78//233 81//233 76//233
f 62//234 61//234 79//234
f 79//235 61//235 80//235
f 90//236 83//236 99//236
f 16//237 22//237 15//237
f 102//238 88//238 90//238
f 103//239 82//239 88//239
f 101//240 23//240 82//240
f 69//241 53//241 120//241
f 75//242 77//242 135//242
f 135//243 81//243 78//243
f 62//244 75//244 136//244
f 80//245 132//245 136//245
f 22//246 28//246 23//246
f 46//247 123//247 48//247
f 48//248 47//248 46//248
f 46//249 69//249 123//249
f 123//250 122//250 48//250
usemtl glasses
s 1
f 137//251 138//252 139//253
f 11//254 26//255 140//256
f 140//256 139//253 11//254
f 141//257 137//251 142//258
f 143//259 141//257 142//258
f 142//258 144//260 145//261
f 141//257 146//262 137//251
f 145//261 143//259 142//258
f 143//259 147//263 141//257
f 147//263 143//259 25//264
f 20//265 145//261 144//260
f 147//263 27//266 146//262
f 24//267 143//259 145//261
f 24//267 25//264 143//259
f 147//263 25//264 27//266
f 20//265 144//260 19//268
f 16//269 138//252 28//270
f 26//255 148//271 140//256
f 12//272 139//253 16//269
f 26//255 4//273 148//271
f 4//273 144//260 148//271
f 12//272 11//254 139//253
f 19//268 144//260 4//273
f 137//251 149//274 142//258
f 140//256 137//251 139//253
f 149//274 148//271 142//258
f 141//257 147//263 146//262
f 20//265 24//267 145//261
f 146//262 27//266 28//270
f 138//252 146//262 28//270
f 138//252 16//269 139//253
f 148//271 149//274 140//256
f 137//251 140//256 149//274
f 146//262 138//252 137//251
f 148//271 144//260 142//258
f 150//275 151//276 152//277
f 93//278 153//279 104//280
f 153//279 93//278 151//276
f 154//281 155//282 150//275
f 156//283 155//282 154//281
f 155//282 157//284 158//285
f 154//281 150//275 159//286
f 157//284 155//282 156//283
f 156//283 154//281 160//287
f 160//287 103//288 156//283
f 100//289 158//285 157//284
f 160//287 159//286 101//290
f 102//291 157//284 156//283
f 102//291 156//283 103//288
f 160//287 101//290 103//288
f 100//289 99//292 158//285
f 96//293 21//294 152//277
f 104//280 153//279 161//295
f 92//296 96//293 151//276
f 104//280 161//295 87//297
f 87//297 161//295 158//285
f 92//296 151//276 93//278
f 99//292 87//297 158//285
f 150//275 155//282 162//298
f 153//279 151//276 150//275
f 162//298 155//282 161//295
f 154//281 159//286 160//287
f 100//289 157//284 102//291
f 159//286 21//294 101//290
f 152//277 21//294 159//286
f 152//277 151//276 96//293
f 161//295 153//279 162//298
f 150//275 162//298 153//279
f 159//286 150//275 152//277
f 161//295 155//282 158//285
