# Blender v2.78 (sub 0) OBJ File: 'Default Left Hand.blend'
# www.blender.org
mtllib Default Left Hand.mtl
o left_hand_Hand
v 0.033690 0.003819 0.061699
v 0.120128 0.008001 0.056889
v 0.066270 -0.013564 0.219589
v 0.021538 -0.012839 0.219714
v 0.034330 0.080399 0.064361
v 0.019768 0.060229 0.215364
v 0.067515 0.063239 0.219306
v 0.115868 0.091906 0.072201
v 0.039823 0.087366 -0.042799
v 0.103878 0.084999 -0.039244
v 0.098295 0.075092 -0.136526
v 0.043153 0.075981 -0.136209
v -0.133592 0.071174 0.066874
v -0.134840 -0.007866 0.067156
v -0.112667 -0.010661 0.220091
v -0.111420 0.066141 0.219809
v -0.138392 0.078754 -0.041861
v -0.139637 0.003466 -0.026681
v 0.115360 0.099324 0.021934
v 0.038578 0.014576 -0.029351
v 0.106040 0.013544 -0.025771
v 0.115155 0.025679 0.019454
v -0.086405 0.007769 -0.028019
v -0.023915 0.011571 -0.031506
v -0.023475 0.007741 0.066789
v -0.079075 0.003611 0.066964
v -0.085160 0.086606 -0.043594
v -0.077830 0.079481 0.066681
v -0.022230 0.078371 0.067659
v -0.022667 0.089286 -0.039436
v -0.084262 -0.028081 -0.112319
v -0.026472 -0.027654 -0.112811
v -0.066687 0.065416 0.219681
v -0.022087 0.064466 0.219476
v -0.023197 -0.012111 0.219839
v -0.067932 -0.011386 0.219964
v -0.019825 0.068814 -0.144719
v -0.020940 -0.000744 -0.143901
v -0.140260 -0.020694 -0.101241
v -0.095137 -0.021426 -0.101114
v 0.095410 0.061304 -0.219679
v 0.045523 0.062122 -0.219729
v 0.042053 0.008446 -0.140909
v 0.097198 0.007569 -0.141084
v 0.094418 0.001577 -0.206049
v 0.044528 0.002399 -0.206074
v 0.047153 -0.015703 -0.265126
v 0.088618 -0.016768 -0.265394
v 0.048165 0.038874 -0.279329
v 0.089630 0.037802 -0.279784
v 0.036248 0.067716 -0.145349
v 0.033973 0.015307 -0.220566
v -0.016817 0.016359 -0.221149
v 0.035130 -0.001869 -0.144014
v 0.032490 -0.039031 -0.189839
v 0.034623 -0.080294 -0.206256
v 0.034758 -0.044223 -0.253334
v -0.018297 -0.037976 -0.190424
v -0.012740 -0.080769 -0.206724
v -0.012605 -0.044701 -0.253804
v -0.025320 0.043234 -0.134214
v -0.028270 -0.074111 -0.155999
v -0.026682 -0.024544 -0.201854
v -0.083110 0.039311 -0.134579
v -0.082655 -0.073174 -0.156819
v -0.081067 -0.023554 -0.202734
v -0.076290 -0.095846 -0.225424
v -0.076420 -0.122171 -0.169181
v -0.026615 -0.095249 -0.225056
v -0.026747 -0.121573 -0.168811
v -0.139360 0.037746 -0.122309
v -0.094237 0.037014 -0.122181
v -0.097952 -0.015399 -0.164104
v -0.135310 -0.014811 -0.164766
v -0.099117 -0.051981 -0.122094
v -0.099590 -0.101819 -0.125496
v -0.099545 -0.088474 -0.172871
v -0.136472 -0.051394 -0.122756
v -0.133622 -0.102254 -0.125699
v -0.133577 -0.088909 -0.173074
v 0.188053 -0.003399 0.078789
v 0.173033 0.061066 0.093331
v 0.222377 0.050035 0.023485
v 0.173362 0.073870 0.027734
v 0.145355 0.085594 0.044024
v 0.246585 0.057732 -0.043762
v 0.200492 0.069145 -0.046243
v 0.200794 -0.005910 0.018507
v 0.150285 0.021891 0.032439
v 0.151477 0.016887 0.021715
v 0.183793 0.021705 -0.052729
v 0.234363 0.010492 -0.053276
v 0.079463 0.068259 0.268004
v 0.078055 -0.018611 0.268324
v 0.027458 -0.017789 0.268466
v 0.078093 -0.018561 0.281771
v 0.027495 -0.017741 0.281914
v -0.021730 0.069901 0.268289
v 0.028865 0.069079 0.268146
v -0.124335 -0.015326 0.268891
v -0.122925 0.071541 0.268571
v -0.023140 -0.016969 0.268606
v -0.072327 0.070721 0.268431
v -0.073737 -0.016146 0.268749
v -0.072290 0.070771 0.281879
v -0.122887 0.071591 0.282019
v -0.124295 -0.015279 0.282339
v -0.073697 -0.016099 0.282196
v -0.023100 -0.016919 0.282054
v 0.079503 0.068306 0.281451
v 0.028905 0.069129 0.281594
v -0.021692 0.069949 0.281736
vn 0.0320 -0.9927 -0.1159
vn -0.0005 -0.9940 -0.1093
vn -0.0164 -0.9942 -0.1061
vn -0.1365 0.9810 0.1379
vn -0.0957 0.9869 0.1298
vn -0.1516 0.9784 0.1408
vn 0.0336 0.9935 -0.1091
vn 0.0256 0.9931 -0.1141
vn 0.0153 0.9926 -0.1204
vn -0.9895 0.0163 0.1439
vn -0.9895 0.0165 0.1438
vn -0.9894 0.0161 0.1440
vn -0.9986 0.0219 0.0487
vn -0.9985 0.0201 0.0500
vn -0.9986 0.0258 0.0459
vn -0.1835 0.9792 0.0864
vn -0.1272 0.9917 0.0211
vn -0.0978 0.9928 -0.0693
vn 0.0748 -0.9876 -0.1378
vn 0.0198 -0.9031 -0.4291
vn 0.1519 -0.9664 -0.2072
vn 0.0634 -0.9970 -0.0451
vn 0.0682 -0.9968 -0.0424
vn 0.0580 -0.9972 -0.0481
vn -0.0034 0.9959 0.0903
vn -0.0280 0.9966 0.0775
vn -0.0472 0.9966 0.0675
vn 0.0536 -0.9117 0.4074
vn 0.0363 -0.9076 0.4182
vn 0.0104 -0.9007 0.4342
vn 0.0209 0.9956 0.0910
vn 0.0189 0.9957 0.0904
vn 0.0183 0.9958 0.0902
vn 0.0572 -0.9926 -0.1074
vn 0.0029 -0.9924 -0.1231
vn 0.0734 -0.9920 -0.1026
vn 0.0076 -0.9961 -0.0875
vn -0.0281 -0.9975 -0.0656
vn -0.0718 -0.9967 -0.0385
vn 0.0146 0.9969 0.0773
vn -0.0088 0.9959 0.0901
vn 0.0342 0.9972 0.0666
vn -0.9995 0.0140 -0.0290
vn -0.9995 0.0147 -0.0287
vn -0.9995 0.0157 -0.0282
vn -0.0048 0.9924 0.1233
vn 0.0803 0.9918 0.0990
vn -0.0280 0.9912 0.1297
vn -0.0673 -0.9912 -0.1136
vn -0.0299 -0.9917 -0.1247
vn -0.0165 -0.9916 -0.1286
vn 0.1633 -0.9850 -0.0560
vn 0.0301 -0.9958 -0.0862
vn 0.2012 -0.9784 -0.0471
vn -0.0182 0.9964 0.0828
vn -0.1184 0.9911 0.0604
vn -0.1470 0.9877 0.0538
vn 0.0510 -0.9376 0.3440
vn 0.0213 -0.9443 0.3285
vn 0.0841 -0.9288 0.3609
vn -0.1457 0.9866 0.0740
vn -0.1442 0.9867 0.0746
vn -0.1431 0.9868 0.0751
vn 0.1195 -0.9876 -0.1014
vn 0.1612 -0.9837 -0.0796
vn 0.0769 -0.9894 -0.1234
vn 0.0154 0.9864 -0.1636
vn 0.0158 0.9864 -0.1638
vn 0.0150 0.9865 -0.1633
vn -0.9993 0.0136 -0.0350
vn -0.9993 0.0168 -0.0328
vn -0.9993 0.0162 -0.0333
vn 0.9978 0.0073 -0.0657
vn 0.9975 -0.0006 -0.0701
vn 0.9981 0.0190 -0.0592
vn -0.0174 -0.9984 0.0535
vn -0.0165 -0.9984 0.0539
vn -0.0181 -0.9984 0.0531
vn -0.0184 -0.9553 0.2950
vn -0.0198 -0.9556 0.2941
vn -0.0159 -0.9548 0.2967
vn -0.0159 -0.9956 0.0921
vn -0.0161 -0.9956 0.0922
vn -0.0165 -0.9956 0.0925
vn -0.9993 0.0132 -0.0350
vn -0.9992 0.0078 -0.0387
vn 0.9992 -0.0188 -0.0355
vn 0.9991 -0.0199 -0.0363
vn 0.9994 -0.0141 -0.0323
vn -0.0145 -0.2534 -0.9672
vn -0.0154 -0.2528 -0.9674
vn -0.0128 -0.2547 -0.9669
vn -0.9989 0.0062 -0.0465
vn -0.9989 0.0065 -0.0464
vn 0.9958 -0.0378 -0.0832
vn 0.9958 -0.0381 -0.0834
vn 0.9960 -0.0353 -0.0820
vn 0.0173 0.9311 -0.3644
vn 0.0182 0.9313 -0.3638
vn 0.0201 0.9317 -0.3625
vn 0.0142 0.8231 -0.5676
vn 0.0188 0.8216 -0.5698
vn 0.0098 0.8246 -0.5656
vn 0.0248 -0.9910 0.1314
vn 0.0002 -0.9929 0.1187
vn 0.0427 -0.9891 0.1406
vn 0.9994 -0.0204 -0.0294
vn 0.9996 -0.0215 -0.0209
vn 0.9993 -0.0227 -0.0305
vn 0.0191 0.9816 -0.1898
vn 0.0181 0.9818 -0.1893
vn 0.0199 0.9815 -0.1903
vn 0.9993 0.0157 0.0344
vn 0.9993 0.0127 0.0347
vn 0.9993 -0.0068 0.0362
vn -0.9986 0.0079 -0.0515
vn -0.9986 0.0059 -0.0520
vn -0.9985 -0.0034 -0.0540
vn 0.9994 -0.0190 -0.0277
vn 0.9994 -0.0288 -0.0216
vn -0.0185 -0.7787 0.6271
vn -0.0191 -0.7784 0.6275
vn -0.0234 -0.7758 0.6305
vn 0.0140 -0.7937 -0.6081
vn 0.0140 -0.7938 -0.6081
vn -0.0117 -0.3641 0.9313
vn -0.0123 -0.3635 0.9315
vn -0.0055 -0.3699 0.9290
vn 0.0138 0.4763 -0.8792
vn 0.0104 0.4783 -0.8781
vn 0.0199 0.4726 -0.8811
vn -0.9948 -0.0594 -0.0830
vn -0.9949 -0.0559 -0.0834
vn -0.9920 -0.0989 -0.0786
vn 0.9997 -0.0246 -0.0032
vn 0.9997 -0.0261 -0.0033
vn 0.9998 -0.0171 -0.0030
vn 0.9996 -0.0197 -0.0198
vn 0.9996 -0.0205 -0.0200
vn 0.9997 -0.0180 -0.0192
vn -0.9996 0.0093 -0.0282
vn -0.9994 0.0043 -0.0346
vn -0.9995 0.0081 -0.0289
vn -0.0247 0.8953 -0.4448
vn -0.0408 0.8905 -0.4531
vn -0.0572 0.8853 -0.4615
vn -0.9949 -0.0744 -0.0677
vn -0.9950 -0.0729 -0.0682
vn -0.9921 -0.1124 -0.0549
vn -0.0041 -0.6910 0.7229
vn -0.0068 -0.6927 0.7212
vn 0.0113 -0.6811 0.7321
vn -0.9994 0.0024 -0.0352
vn -0.9994 -0.0007 -0.0354
vn -0.0213 0.7162 -0.6976
vn 0.0003 0.7254 -0.6883
vn 0.0243 0.7352 -0.6774
vn 0.0140 -0.9056 -0.4238
vn 0.0141 -0.9056 -0.4239
vn 0.0144 0.3048 -0.9523
vn 0.0103 0.3074 -0.9515
vn 0.0209 0.3007 -0.9535
vn 0.9997 0.0092 0.0211
vn 0.9997 0.0078 0.0216
vn 0.9996 -0.0077 0.0263
vn -0.0115 -0.2537 0.9672
vn -0.0119 -0.2534 0.9673
vn -0.0041 -0.2607 0.9654
vn 0.0161 0.6272 -0.7787
vn 0.0195 0.6255 -0.7800
vn 0.0124 0.6289 -0.7774
vn 0.9946 -0.0406 -0.0953
vn 0.9945 -0.0428 -0.0960
vn 0.9950 -0.0342 -0.0934
vn -0.0968 0.8604 -0.5003
vn -0.0368 0.8783 -0.4767
vn 0.0157 0.8907 -0.4542
vn -0.9999 0.0169 0.0032
vn -0.9999 0.0168 0.0031
vn -0.9999 0.0165 0.0030
vn 0.9998 -0.0174 0.0041
vn 0.9999 -0.0158 0.0029
vn 0.9997 -0.0227 0.0079
vn -0.9960 -0.0377 -0.0811
vn -0.9962 -0.0330 -0.0807
vn -0.9944 -0.0642 -0.0834
vn 0.9968 -0.0618 -0.0505
vn 0.9972 -0.0559 -0.0499
vn 0.9983 -0.0326 -0.0477
vn -0.0175 -0.5694 0.8219
vn -0.0168 -0.5700 0.8215
vn -0.0235 -0.5638 0.8256
vn 0.0139 -0.9625 -0.2711
vn -0.0135 -0.0623 0.9980
vn -0.0106 -0.0643 0.9979
vn -0.0051 -0.0681 0.9977
vn 0.0153 0.1138 -0.9934
vn 0.0089 0.1169 -0.9931
vn 0.0194 0.1118 -0.9935
vn -0.9989 -0.0328 -0.0331
vn -0.9989 -0.0378 -0.0293
vn -0.9984 -0.0550 -0.0164
vn 0.7578 0.0193 0.6522
vn 0.7638 -0.0007 0.6455
vn 0.7550 0.0281 0.6551
vn 0.4343 0.8808 0.1888
vn 0.4518 0.8752 0.1731
vn 0.4325 0.8803 0.1951
vn 0.3711 0.9187 0.1353
vn 0.3108 0.9370 0.1593
vn 0.4422 0.8907 0.1053
vn 0.8898 -0.1145 0.4417
vn 0.9005 -0.1598 0.4045
vn 0.8198 0.0626 0.5693
vn 0.0096 -0.8745 -0.4850
vn -0.2777 -0.9528 -0.1223
vn -0.3193 -0.9167 -0.2400
vn 0.0559 0.1506 -0.9870
vn 0.0553 0.1503 -0.9871
vn 0.0179 0.1292 -0.9915
vn 0.8863 -0.3406 0.3139
vn 0.8944 -0.3252 0.3072
vn 0.9094 -0.2944 0.2937
vn -0.3501 -0.8985 -0.2648
vn -0.2847 -0.9147 -0.2867
vn -0.2090 -0.9276 -0.3097
vn -0.8648 0.3627 -0.3472
vn -0.8669 0.3594 -0.3454
vn -0.8614 0.3678 -0.3502
vn -0.1108 -0.9798 -0.1665
vn 0.3679 0.8825 0.2929
vn 0.9715 -0.0166 -0.2366
vn -0.0162 -0.9999 0.0036
vn -0.0162 -0.9999 0.0037
vn 0.0520 0.9888 -0.1400
vn 0.0468 0.9885 -0.1439
vn 0.0156 0.9857 -0.1679
vn -0.0164 -0.9949 -0.0990
vn -0.9728 0.0149 -0.2312
vn -0.9728 0.0150 -0.2312
vn -0.0164 -0.9949 -0.0991
vn 0.0158 0.9942 -0.1064
vn 0.0171 0.9941 -0.1075
vn -0.0183 0.9910 -0.1329
vn -0.0155 0.9913 -0.1308
vn 0.0181 0.9939 -0.1084
vn 0.0207 0.9936 -0.1108
vn 0.0029 0.0036 1.0000
vn 0.0162 0.9999 -0.0038
vn 0.0162 0.9999 -0.0037
vn 0.0162 0.9999 -0.0036
vn 0.9999 -0.0162 -0.0027
vn 0.9999 -0.0162 -0.0029
vn -0.9999 0.0162 0.0029
vn -0.9999 0.0162 0.0027
vn 0.7363 -0.2101 -0.6432
vn 0.3244 0.5205 -0.7899
vn -0.4200 0.0116 -0.9075
vn 0.9819 -0.0005 -0.1892
vn 0.9806 -0.0072 -0.1957
vn -0.5229 0.1563 -0.8380
vn 0.8535 0.3265 -0.4062
vn 0.3287 0.9348 0.1346
vn 0.0631 -0.8992 -0.4330
vn 0.0415 -0.9922 -0.1178
vn -0.0727 0.9895 0.1252
vn 0.0425 0.9937 -0.1036
vn -0.9895 0.0166 0.1438
vn -0.9985 0.0159 0.0530
vn 0.0490 0.9704 -0.2364
vn -0.1520 0.9776 0.1458
vn 0.1323 -0.9911 0.0179
vn -0.0288 -0.9640 0.2645
vn 0.0739 -0.9965 -0.0392
vn 0.0181 0.9947 0.1013
vn 0.0777 -0.9168 0.3918
vn 0.0216 0.9956 0.0912
vn -0.0164 -0.9916 -0.1286
vn 0.0517 -0.9921 -0.1144
vn -0.0297 0.9944 0.1015
vn -0.9995 0.0130 -0.0295
vn 0.1091 0.9899 0.0906
vn -0.0778 -0.9908 -0.1104
vn -0.0164 -0.9952 -0.0964
vn 0.0164 0.9958 0.0903
vn -0.0163 -0.9511 0.3083
vn -0.1467 0.9864 0.0735
vn 0.2011 -0.9778 -0.0583
vn 0.0163 0.9863 -0.1641
vn -0.9993 0.0103 -0.0369
vn 0.9971 -0.0111 -0.0759
vn -0.0157 -0.9984 0.0544
vn -0.0227 -0.9561 0.2921
vn -0.0156 -0.9957 0.0918
vn 0.9989 -0.0258 -0.0404
vn -0.0171 -0.2515 -0.9677
vn -0.9989 0.0060 -0.0466
vn 0.9956 -0.0408 -0.0847
vn 0.0156 0.9307 -0.3654
vn 0.0236 0.8199 -0.5720
vn -0.0197 -0.9939 0.1084
vn 0.0171 0.9819 -0.1887
vn 0.9987 0.0387 0.0325
vn -0.9986 0.0154 -0.0499
vn 0.9989 -0.0410 -0.0243
vn -0.0144 -0.7811 0.6243
vn -0.0182 -0.3580 0.9336
vn 0.0038 0.4822 -0.8760
vn -0.9960 -0.0221 -0.0871
vn 0.9994 -0.0353 -0.0036
vn 0.9995 -0.0225 -0.0206
vn -0.9996 0.0103 -0.0279
vn -0.0095 0.8995 -0.4368
vn -0.9960 -0.0411 -0.0788
vn -0.0228 -0.7026 0.7112
vn -0.0435 0.7062 -0.7067
vn 0.0033 0.3118 -0.9501
vn 0.9995 0.0279 0.0154
vn -0.0189 -0.2469 0.9689
vn 0.0237 0.6234 -0.7815
vn 0.9938 -0.0508 -0.0984
vn -0.1414 0.8445 -0.5166
vn -0.9998 0.0172 0.0033
vn 1.0000 -0.0094 -0.0017
vn -0.9968 -0.0131 -0.0789
vn 0.9942 -0.0929 -0.0533
vn -0.0116 -0.5748 0.8182
vn -0.0186 -0.0588 0.9981
vn 0.0044 0.1190 -0.9929
vn -0.9989 -0.0185 -0.0437
vn 0.7665 -0.0101 0.6422
vn 0.3995 0.8903 0.2186
vn 0.4428 0.8796 0.1739
vn 0.2262 0.9552 0.1908
vn 0.9065 -0.3681 0.2069
vn -0.4837 -0.8752 -0.0071
vn -0.3725 -0.8562 0.3581
vn 0.0955 0.1727 -0.9803
vn 0.8724 -0.3655 0.3245
vn -0.4202 -0.8754 -0.2391
vn -0.8708 0.3533 -0.3419
vn -0.0162 -0.9999 0.0038
vn 0.0893 0.9898 -0.1109
vn -0.0165 -0.9949 -0.0991
vn -0.0492 0.9864 -0.1569
vn 0.0028 0.0036 1.0000
vn -0.8886 0.3699 -0.2713
usemtl Green
s 1
f 1//1 3//2 4//3
f 5//4 7//5 8//6
f 9//7 11//8 12//9
f 14//10 16//11 13//12
f 18//13 13//14 17//15
f 5//16 19//17 9//18
f 22//19 2//20 1//21
f 24//22 26//23 23//24
f 28//25 30//26 27//27
f 24//28 31//29 32//30
f 33//31 29//32 28//33
f 25//34 36//35 26//36
f 24//37 1//38 25//39
f 30//40 5//41 9//42
f 24//43 37//44 38//45
f 29//46 6//47 5//48
f 25//49 4//50 35//51
f 26//52 15//53 14//54
f 16//55 28//56 13//57
f 18//58 40//59 23//60
f 13//61 27//62 17//63
f 23//64 14//65 18//66
f 11//67 42//68 12//69
f 20//70 12//71 43//72
f 21//73 11//74 10//75
f 20//76 44//77 21//78
f 46//79 48//80 45//81
f 44//82 46//83 45//84
f 43//72 42//85 46//86
f 44//87 41//88 11//89
f 47//90 50//91 48//92
f 46//93 49//93 47//94
f 45//95 50//96 41//97
f 42//98 50//99 49//100
f 51//101 53//102 37//103
f 24//104 54//105 20//106
f 20//107 51//108 9//109
f 9//110 37//111 30//112
f 55//113 57//114 52//115
f 38//116 53//117 58//118
f 54//119 52//120 51//108
f 54//121 58//122 55//123
f 60//124 56//125 59//125
f 55//126 59//127 56//128
f 52//129 60//130 53//131
f 58//132 60//133 59//134
f 32//135 63//136 61//137
f 24//138 61//139 30//140
f 23//141 64//142 31//143
f 27//144 61//145 64//146
f 65//147 67//148 68//149
f 31//150 62//151 32//152
f 31//143 66//153 65//154
f 64//155 63//156 66//157
f 67//158 70//158 68//159
f 63//160 67//161 66//162
f 62//163 69//164 63//165
f 62//166 68//167 70//168
f 72//169 74//170 71//171
f 23//172 72//173 27//174
f 17//175 72//176 71//177
f 18//178 71//179 39//180
f 75//181 77//182 73//183
f 39//184 74//185 78//186
f 40//187 73//188 72//189
f 40//190 78//191 75//192
f 79//193 77//193 76//193
f 75//194 79//195 76//196
f 73//197 80//198 74//199
f 78//200 80//201 79//202
f 82//203 3//204 81//205
f 82//206 84//207 85//208
f 83//209 87//210 84//211
f 81//212 83//213 82//214
f 2//215 89//216 81//217
f 87//218 92//219 91//220
f 83//221 92//222 86//223
f 88//224 91//225 92//226
f 84//227 91//228 90//229
f 3//230 2//230 81//230
f 8//231 7//231 82//231
f 3//232 93//232 94//232
f 95//233 96//234 97//233
f 6//235 98//236 99//237
f 3//238 95//238 4//238
f 15//239 101//239 16//240
f 4//238 102//241 35//241
f 16//242 103//242 33//243
f 7//244 99//245 93//242
f 36//238 102//241 104//238
f 15//238 104//238 100//238
f 33//243 98//246 34//247
f 109//248 111//248 112//248
f 101//249 105//249 103//250
f 104//233 107//233 100//233
f 93//251 111//249 110//251
f 95//233 109//234 102//234
f 94//252 110//253 96//252
f 102//234 108//233 104//233
f 99//249 112//251 111//249
f 100//254 106//255 101//255
f 103//250 112//251 98//251
f 22//256 85//257 89//258
f 10//259 22//256 21//260
f 84//261 89//258 85//257
f 19//262 8//263 85//257
f 2//264 22//256 89//258
f 1//1 2//265 3//2
f 5//4 6//266 7//5
f 9//7 10//267 11//8
f 14//10 15//268 16//11
f 18//13 14//269 13//14
f 10//270 9//18 19//17
f 5//16 8//271 19//17
f 1//21 20//272 22//19
f 21//273 22//19 20//272
f 24//22 25//274 26//23
f 28//25 29//275 30//26
f 24//28 23//276 31//29
f 33//31 34//277 29//32
f 25//34 35//278 36//35
f 24//37 20//279 1//38
f 30//40 29//280 5//41
f 24//43 30//281 37//44
f 29//46 34//282 6//47
f 25//49 1//283 4//50
f 26//52 36//284 15//53
f 16//55 33//285 28//56
f 18//58 39//286 40//59
f 13//61 28//287 27//62
f 23//64 26//288 14//65
f 11//67 41//289 42//68
f 20//70 9//290 12//71
f 21//73 44//291 11//74
f 20//76 43//292 44//77
f 46//79 47//293 48//80
f 44//82 43//294 46//83
f 43//72 12//71 42//85
f 44//87 45//295 41//88
f 47//90 49//296 50//91
f 46//93 42//297 49//93
f 45//95 48//298 50//96
f 42//98 41//299 50//99
f 51//101 52//300 53//102
f 24//104 38//301 54//105
f 20//107 54//119 51//108
f 9//110 51//302 37//111
f 55//113 56//303 57//114
f 38//116 37//304 53//117
f 54//119 55//305 52//120
f 54//121 38//306 58//122
f 60//124 57//124 56//125
f 55//126 58//307 59//127
f 52//129 57//308 60//130
f 58//132 53//309 60//133
f 32//135 62//310 63//136
f 24//138 32//311 61//139
f 23//141 27//312 64//142
f 27//144 30//313 61//145
f 65//147 66//314 67//148
f 31//150 65//315 62//151
f 31//143 64//142 66//153
f 64//155 61//316 63//156
f 67//158 69//158 70//158
f 63//160 69//317 67//161
f 62//163 70//318 69//164
f 62//166 65//319 68//167
f 72//169 73//320 74//170
f 23//172 40//321 72//173
f 17//175 27//322 72//176
f 18//178 17//323 71//179
f 75//181 76//324 77//182
f 39//184 71//325 74//185
f 40//187 75//326 73//188
f 40//190 39//327 78//191
f 79//193 80//193 77//193
f 75//194 78//328 79//195
f 73//197 77//329 80//198
f 78//200 74//330 80//201
f 82//203 7//331 3//204
f 85//208 8//332 82//206
f 82//206 83//333 84//207
f 83//209 86//334 87//210
f 81//212 88//335 83//213
f 88//336 81//217 89//216
f 89//216 90//337 88//336
f 87//218 86//338 92//219
f 83//221 88//339 92//222
f 88//224 90//340 91//225
f 84//227 87//341 91//228
f 3//232 7//232 93//232
f 95//233 94//342 96//234
f 6//235 34//343 98//236
f 3//238 94//344 95//238
f 15//239 100//239 101//239
f 4//238 95//238 102//241
f 16//242 101//242 103//242
f 7//244 6//345 99//245
f 36//238 35//241 102//241
f 15//238 36//238 104//238
f 33//243 103//242 98//246
f 112//248 105//346 109//248
f 106//346 107//248 108//248
f 109//248 97//248 111//248
f 106//346 108//248 105//346
f 110//248 111//248 97//248
f 105//346 108//248 109//248
f 97//248 96//248 110//248
f 101//249 106//249 105//249
f 104//233 108//233 107//233
f 93//251 99//249 111//249
f 95//233 97//233 109//234
f 94//252 93//253 110//253
f 102//234 109//234 108//233
f 99//249 98//251 112//251
f 100//254 107//254 106//255
f 103//250 105//249 112//251
f 22//256 19//262 85//257
f 10//259 19//262 22//256
f 84//261 90//347 89//258
