# Blender v2.78 (sub 0) OBJ File: 'Default Right Hand.blend'
# www.blender.org
mtllib Default Right Hand.mtl
o right_hand_Hand.001
v -0.039935 0.016337 0.070135
v -0.112158 0.001132 0.065943
v -0.074080 0.001207 0.227443
v -0.029345 0.001932 0.227568
v -0.041180 0.095782 0.069853
v -0.030590 0.078734 0.227285
v -0.075325 0.078009 0.227160
v -0.113403 0.087969 0.065303
v -0.047633 0.103272 -0.035690
v -0.110123 0.098252 -0.033907
v -0.106105 0.089062 -0.135825
v -0.050960 0.089969 -0.135855
v 0.125785 0.085944 0.074728
v 0.127030 0.006904 0.075010
v 0.104857 0.004109 0.227945
v 0.103612 0.080912 0.227663
v 0.130585 0.093524 -0.034007
v 0.131830 0.018237 -0.018827
v -0.111763 0.094229 0.015698
v -0.046385 0.027274 -0.019685
v -0.108878 0.021539 -0.018730
v -0.110518 0.021189 0.023605
v 0.078597 0.021914 -0.019735
v 0.016105 0.020884 -0.019710
v 0.015665 0.022537 0.074663
v 0.071267 0.018382 0.074818
v 0.077352 0.101377 -0.035740
v 0.070022 0.094252 0.074535
v 0.014420 0.095122 0.074380
v 0.014860 0.100349 -0.035715
v 0.076452 -0.013166 -0.103945
v 0.018662 -0.014103 -0.103782
v 0.058877 0.080187 0.227535
v 0.014145 0.079462 0.227410
v 0.015390 0.002659 0.227693
v 0.060122 0.003384 0.227818
v 0.012015 0.047669 -0.143750
v 0.013132 -0.017148 -0.120352
v 0.132452 -0.005923 -0.093387
v 0.087327 -0.006656 -0.093260
v -0.103220 0.052167 -0.211962
v -0.053330 0.052939 -0.212240
v -0.049863 0.023649 -0.121900
v -0.105005 0.022742 -0.121870
v -0.102225 -0.001046 -0.181505
v -0.052338 -0.000273 -0.181782
v -0.054963 -0.037311 -0.229097
v -0.096428 -0.038321 -0.229132
v -0.055973 0.003904 -0.259867
v -0.097438 0.002894 -0.259900
v -0.044055 0.046759 -0.143592
v -0.041783 -0.028086 -0.197382
v 0.009007 -0.027288 -0.198285
v -0.042938 -0.018058 -0.120195
v -0.040300 -0.069048 -0.150282
v -0.042430 -0.113426 -0.151982
v -0.042565 -0.095141 -0.208402
v 0.010490 -0.068251 -0.151185
v 0.004932 -0.114031 -0.152265
v 0.004797 -0.095746 -0.208685
v 0.017512 0.052702 -0.127895
v 0.020460 -0.061976 -0.138422
v 0.018872 -0.018113 -0.188857
v 0.075300 0.053639 -0.128057
v 0.074847 -0.061118 -0.139387
v 0.073260 -0.017256 -0.189825
v 0.068480 -0.091716 -0.203987
v 0.068612 -0.111366 -0.145080
v 0.018807 -0.091081 -0.203692
v 0.018940 -0.110731 -0.144782
v 0.131552 0.052517 -0.114455
v 0.086430 0.051784 -0.114327
v 0.090145 -0.000628 -0.156250
v 0.127502 -0.000041 -0.156912
v 0.091307 -0.037211 -0.114240
v 0.091782 -0.087048 -0.117642
v 0.091737 -0.073703 -0.165017
v 0.128665 -0.036623 -0.114902
v 0.125815 -0.087483 -0.117845
v 0.125770 -0.074138 -0.165220
v -0.181400 -0.013536 0.075383
v -0.181440 0.057334 0.075540
v -0.218428 -0.008936 0.006150
v -0.173713 0.030807 -0.000962
v -0.137135 0.068669 0.025630
v -0.189805 -0.057353 -0.064280
v -0.161278 -0.019466 -0.060852
v -0.176910 -0.050813 0.030495
v -0.130253 0.004244 0.037715
v -0.132193 -0.011071 0.023383
v -0.128728 -0.045186 -0.033460
v -0.157255 -0.083073 -0.036885
v -0.087273 0.083029 0.275858
v -0.085863 -0.003841 0.276178
v -0.035265 -0.003018 0.276320
v -0.085903 -0.003791 0.289625
v -0.035305 -0.002971 0.289768
v 0.013922 0.084672 0.276143
v -0.036675 0.083849 0.276000
v 0.116525 -0.000556 0.276745
v 0.115117 0.086312 0.276425
v 0.015330 -0.002198 0.276460
v 0.064520 0.085492 0.276285
v 0.065927 -0.001378 0.276603
v 0.064482 0.085542 0.289733
v 0.115080 0.086362 0.289873
v 0.116487 -0.000508 0.290193
v 0.065890 -0.001328 0.290050
v 0.015292 -0.002148 0.289908
v -0.087310 0.083077 0.289305
v -0.036713 0.083899 0.289447
v 0.013885 0.084719 0.289590
vn 0.1770 -0.9826 -0.0561
vn 0.0648 -0.9946 -0.0816
vn 0.2085 -0.9768 -0.0487
vn -0.0967 0.9911 0.0910
vn -0.0402 0.9938 0.1036
vn -0.0164 0.9939 0.1087
vn -0.0616 0.9926 -0.1049
vn -0.0396 0.9923 -0.1177
vn -0.0824 0.9923 -0.0927
vn 0.9895 0.0164 0.1438
vn 0.9895 0.0162 0.1439
vn 0.9894 0.0161 0.1440
vn 0.9985 0.0201 0.0500
vn 0.9986 0.0219 0.0487
vn 0.9986 0.0258 0.0459
vn -0.0776 0.9939 0.0780
vn -0.0897 0.9919 0.0899
vn -0.0789 0.9939 0.0765
vn 0.0909 -0.9668 -0.2388
vn 0.1034 -0.9769 -0.1871
vn 0.0403 -0.9960 -0.0803
vn -0.0411 -0.9992 -0.0025
vn -0.0144 -0.9997 -0.0181
vn 0.0165 -0.9992 -0.0361
vn -0.0069 0.9983 0.0587
vn 0.0052 0.9986 0.0526
vn -0.0164 0.9979 0.0634
vn 0.0156 -0.9231 0.3843
vn 0.0158 -0.9230 0.3844
vn 0.0154 -0.9231 0.3842
vn 0.0085 0.9945 0.1042
vn -0.0096 0.9950 0.0998
vn 0.0153 0.9956 0.0926
vn -0.0030 -0.9924 -0.1232
vn -0.0576 -0.9925 -0.1074
vn -0.0738 -0.9920 -0.1026
vn -0.0271 -0.9974 -0.0674
vn 0.0325 -0.9990 -0.0303
vn -0.1011 -0.9884 -0.1131
vn 0.0347 0.9975 0.0616
vn 0.0204 0.9983 0.0540
vn 0.0080 0.9988 0.0475
vn 0.9995 0.0082 -0.0312
vn 0.9995 0.0072 -0.0314
vn 0.9995 0.0094 -0.0309
vn -0.0123 0.9946 0.1030
vn -0.0164 0.9947 0.1018
vn 0.1007 -0.9895 -0.1037
vn 0.0384 -0.9917 -0.1223
vn 0.1182 -0.9881 -0.0984
vn -0.0301 -0.9958 -0.0862
vn -0.1633 -0.9850 -0.0560
vn -0.2012 -0.9784 -0.0471
vn 0.1184 0.9911 0.0604
vn 0.0182 0.9964 0.0828
vn 0.1470 0.9877 0.0538
vn -0.0161 -0.9453 0.3258
vn -0.0418 -0.9397 0.3393
vn -0.0705 -0.9326 0.3540
vn 0.1442 0.9867 0.0746
vn 0.1457 0.9866 0.0740
vn 0.1431 0.9868 0.0751
vn -0.1577 -0.9846 -0.0754
vn -0.1126 -0.9887 -0.0991
vn -0.0663 -0.9902 -0.1230
vn -0.0159 0.8997 -0.4363
vn -0.0155 0.8998 -0.4360
vn -0.0150 0.8999 -0.4358
vn 0.9993 0.0066 -0.0357
vn 0.9994 0.0092 -0.0344
vn 0.9994 0.0092 -0.0343
vn -0.9991 -0.0244 -0.0360
vn -0.9991 -0.0261 -0.0333
vn -0.9990 -0.0217 -0.0380
vn 0.0425 -0.9989 0.0199
vn 0.0678 -0.9977 0.0053
vn 0.0913 -0.9958 -0.0082
vn 0.0173 -0.7872 0.6164
vn 0.0168 -0.7870 0.6167
vn 0.0156 -0.7865 0.6174
vn 0.0159 -0.9286 0.3707
vn 0.0160 -0.9286 0.3708
vn 0.0155 -0.9287 0.3704
vn 0.9993 0.0026 -0.0375
vn 0.9992 0.0104 -0.0377
vn -0.9991 -0.0294 -0.0294
vn -0.9994 -0.0196 -0.0295
vn 0.0152 -0.5979 -0.8014
vn 0.9989 -0.0093 -0.0470
vn 0.9988 -0.0095 -0.0470
vn 0.9989 -0.0082 -0.0469
vn -0.9959 -0.0639 -0.0640
vn -0.9960 -0.0623 -0.0640
vn -0.9965 -0.0550 -0.0636
vn -0.0153 0.6966 -0.7173
vn -0.0158 0.6968 -0.7171
vn -0.0148 0.6964 -0.7175
vn -0.0195 0.5849 -0.8109
vn -0.0156 0.5868 -0.8096
vn -0.0118 0.5886 -0.8083
vn -0.0203 -0.9282 0.3716
vn -0.0603 -0.9183 0.3913
vn -0.0928 -0.9088 0.4067
vn -0.9995 -0.0238 -0.0225
vn -0.9995 -0.0225 -0.0223
vn -0.9995 -0.0211 -0.0221
vn 0.0256 0.8897 -0.4559
vn 0.0015 0.8953 -0.4456
vn 0.0412 0.8857 -0.4625
vn -0.9993 0.0235 0.0284
vn -0.9993 0.0262 0.0272
vn -0.9993 0.0057 0.0364
vn 0.9986 -0.0096 -0.0516
vn 0.9986 -0.0118 -0.0513
vn 0.9986 -0.0018 -0.0526
vn -0.9994 -0.0342 -0.0105
vn -0.9994 -0.0316 -0.0109
vn -0.9997 -0.0216 -0.0122
vn 0.0164 -0.5126 0.8585
vn 0.0173 -0.5119 0.8589
vn 0.0108 -0.5170 0.8559
vn -0.0140 -0.9512 -0.3082
vn 0.0117 -0.0323 0.9994
vn 0.0123 -0.0316 0.9994
vn 0.0182 -0.0258 0.9995
vn -0.0104 0.1578 -0.9874
vn -0.0138 0.1555 -0.9877
vn -0.0199 0.1514 -0.9883
vn 0.9948 -0.0837 -0.0585
vn 0.9949 -0.0806 -0.0600
vn 0.9960 -0.0499 -0.0747
vn -0.9996 -0.0271 -0.0012
vn -0.9997 -0.0257 -0.0013
vn -0.9998 -0.0178 -0.0016
vn -0.9996 -0.0222 -0.0195
vn -0.9996 -0.0214 -0.0193
vn -0.9996 -0.0194 -0.0187
vn 0.9996 0.0089 -0.0278
vn 0.9993 0.0032 -0.0372
vn 0.9996 0.0101 -0.0275
vn -0.0154 0.8881 -0.4593
vn -0.0151 0.8882 -0.4592
vn -0.0148 0.8883 -0.4590
vn 0.9949 -0.0818 -0.0593
vn 0.9949 -0.0807 -0.0598
vn 0.9960 -0.0497 -0.0746
vn 0.0174 -0.5903 0.8070
vn 0.0178 -0.5900 0.8072
vn 0.0119 -0.5946 0.8039
vn 0.9996 0.0063 -0.0280
vn 0.9993 -0.0011 -0.0371
vn -0.0199 0.6538 -0.7564
vn -0.0164 0.6554 -0.7551
vn -0.0128 0.6571 -0.7537
vn -0.0140 -0.9485 -0.3164
vn -0.0101 0.1948 -0.9808
vn -0.0141 0.1922 -0.9813
vn -0.0204 0.1881 -0.9819
vn -0.9997 0.0103 0.0207
vn -0.9997 0.0115 0.0202
vn -0.9996 -0.0047 0.0274
vn 0.0119 -0.1221 0.9924
vn 0.0123 -0.1218 0.9925
vn 0.0194 -0.1149 0.9932
vn -0.0195 0.6255 -0.7800
vn -0.0161 0.6272 -0.7787
vn -0.0124 0.6289 -0.7774
vn -0.9945 -0.0428 -0.0959
vn -0.9946 -0.0407 -0.0952
vn -0.9950 -0.0344 -0.0932
vn 0.0968 0.8604 -0.5003
vn 0.0368 0.8783 -0.4767
vn 0.1414 0.8445 -0.5166
vn 0.9999 0.0169 0.0032
vn 0.9999 0.0168 0.0031
vn 0.9998 0.0172 0.0033
vn -0.9999 -0.0158 0.0029
vn -0.9998 -0.0175 0.0041
vn -0.9997 -0.0227 0.0079
vn 0.9960 -0.0377 -0.0811
vn 0.9962 -0.0330 -0.0807
vn 0.9968 -0.0131 -0.0789
vn -0.9972 -0.0559 -0.0500
vn -0.9968 -0.0618 -0.0505
vn -0.9983 -0.0326 -0.0478
vn 0.0175 -0.5694 0.8219
vn 0.0168 -0.5700 0.8215
vn 0.0116 -0.5748 0.8182
vn -0.0139 -0.9625 -0.2711
vn 0.0135 -0.0623 0.9980
vn 0.0106 -0.0643 0.9979
vn 0.0186 -0.0588 0.9981
vn -0.0089 0.1169 -0.9931
vn -0.0153 0.1138 -0.9934
vn -0.0194 0.1118 -0.9935
vn 0.9989 -0.0328 -0.0331
vn 0.9989 -0.0378 -0.0293
vn 0.9989 -0.0185 -0.0437
vn -0.8182 -0.0090 0.5749
vn -0.8173 -0.0040 0.5762
vn -0.8169 -0.0017 0.5767
vn -0.6226 0.7177 -0.3118
vn -0.6593 0.6873 -0.3049
vn -0.5492 0.7905 -0.2711
vn -0.6028 0.5291 -0.5973
vn -0.5955 0.5419 -0.5931
vn -0.5874 0.5556 -0.5884
vn -0.8514 -0.2914 0.4360
vn -0.8675 -0.2125 0.4498
vn -0.8818 -0.0015 0.4715
vn 0.6035 -0.5835 0.5434
vn 0.4572 -0.8634 0.2133
vn 0.5337 -0.7635 0.3635
vn 0.4764 -0.2835 -0.8323
vn -0.7106 -0.6886 0.1442
vn -0.7252 -0.6730 0.1451
vn -0.7437 -0.6523 0.1462
vn 0.6577 -0.6101 0.4418
vn 0.6672 -0.5933 0.4504
vn 0.6383 -0.6423 0.4244
vn 0.7514 0.5786 -0.3171
vn 0.7479 0.5835 -0.3164
vn 0.7592 0.5675 -0.3187
vn 0.2009 -0.9785 -0.0469
vn -0.3876 0.9100 0.1472
vn -0.9715 -0.0166 -0.2366
vn 0.0162 -0.9999 0.0036
vn 0.0162 -0.9999 0.0037
vn -0.0158 0.9942 -0.1064
vn 0.0164 -0.9949 -0.0990
vn 0.9728 0.0149 -0.2312
vn 0.0164 -0.9949 -0.0991
vn -0.0029 0.0036 1.0000
vn -0.0162 0.9999 -0.0038
vn -0.0162 0.9999 -0.0037
vn 0.0162 -0.9999 0.0038
vn -0.0162 0.9999 -0.0036
vn -0.9999 -0.0162 -0.0029
vn -0.9999 -0.0162 -0.0027
vn 0.9999 0.0162 0.0027
vn -0.2733 0.1554 -0.9493
vn -0.6114 -0.3362 -0.7164
vn 0.5270 -0.2891 -0.7992
vn -0.9370 0.2432 -0.2509
vn 0.6765 0.0359 -0.7355
vn 0.7332 0.4128 -0.5404
vn -0.6949 0.7160 0.0674
vn 0.4379 -0.8189 -0.3710
vn 0.0164 -0.9956 -0.0922
vn -0.1126 0.9898 0.0874
vn -0.0164 0.9912 -0.1311
vn 0.9895 0.0166 0.1438
vn 0.9985 0.0159 0.0530
vn -0.0939 0.9911 0.0940
vn -0.1143 0.9861 0.1207
vn 0.0913 -0.9958 -0.0047
vn 0.2106 -0.8866 -0.4119
vn -0.0746 -0.9971 0.0171
vn 0.0155 0.9988 0.0475
vn 0.0161 -0.9230 0.3846
vn 0.0164 -0.9915 -0.1288
vn 0.1094 -0.9938 0.0179
vn 0.0466 0.9966 0.0679
vn 0.9995 0.0058 -0.0317
vn 0.0031 0.9942 0.1075
vn 0.0165 -0.9915 -0.1288
vn 0.0164 -0.9952 -0.0964
vn -0.0164 0.9958 0.0903
vn 0.0163 -0.9511 0.3083
vn 0.1467 0.9864 0.0735
vn -0.2012 -0.9782 -0.0521
vn -0.0164 0.8995 -0.4365
vn 0.0165 -0.9993 0.0349
vn 0.0187 -0.7878 0.6156
vn 0.0164 -0.9284 0.3711
vn 0.9992 -0.0041 -0.0397
vn -0.9988 -0.0369 -0.0318
vn 0.9988 -0.0107 -0.0471
vn -0.9953 -0.0725 -0.0644
vn -0.0164 0.6971 -0.7168
vn -0.0236 0.5830 -0.8122
vn 0.0162 -0.9355 0.3530
vn -0.9994 -0.0255 -0.0228
vn -0.0158 0.8989 -0.4379
vn -0.9987 0.0473 0.0177
vn 0.9985 -0.0214 -0.0501
vn -0.9989 -0.0464 -0.0089
vn 0.0233 -0.5072 0.8615
vn 0.0055 -0.0385 0.9992
vn -0.0038 0.1622 -0.9867
vn 0.9920 -0.1195 -0.0411
vn -0.9993 -0.0370 -0.0007
vn -0.9995 -0.0245 -0.0202
vn -0.0157 0.8880 -0.4595
vn 0.9921 -0.1184 -0.0417
vn 0.0236 -0.5855 0.8103
vn 0.9993 -0.0062 -0.0369
vn -0.0238 0.6520 -0.7579
vn -0.0033 0.1992 -0.9799
vn -0.9995 0.0296 0.0121
vn 0.0043 -0.1295 0.9916
vn -0.0237 0.6234 -0.7815
vn -0.9939 -0.0507 -0.0983
vn -0.0157 0.8907 -0.4542
vn 0.9999 0.0165 0.0030
vn -1.0000 -0.0094 -0.0017
vn 0.9944 -0.0642 -0.0834
vn -0.9942 -0.0929 -0.0534
vn 0.0235 -0.5638 0.8256
vn 0.0051 -0.0681 0.9977
vn -0.0044 0.1190 -0.9929
vn 0.9984 -0.0550 -0.0164
vn -0.8185 -0.0112 0.5744
vn -0.4261 0.8872 -0.1767
vn -0.4961 0.8310 -0.2516
vn -0.6109 0.5144 -0.6019
vn -0.7583 -0.5368 0.3699
vn 0.1738 -0.9605 -0.2173
vn 0.6041 -0.5823 0.5440
vn 0.4765 -0.2835 -0.8322
vn -0.6847 -0.7148 0.1425
vn 0.6855 -0.5584 0.4673
vn 0.7371 0.5983 -0.3141
vn 0.0165 -0.9949 -0.0991
vn 0.0165 -0.9949 -0.0990
vn -0.0028 0.0036 1.0000
usemtl Green
s 1
f 1//1 3//2 2//3
f 5//4 7//5 6//6
f 9//7 11//8 10//9
f 16//10 14//11 13//12
f 13//13 18//14 17//15
f 10//16 19//17 9//18
f 1//19 22//20 20//21
f 26//22 24//23 23//24
f 30//25 28//26 27//27
f 24//28 31//29 23//30
f 29//31 33//32 28//33
f 36//34 25//35 26//36
f 24//37 1//38 20//39
f 30//40 5//41 29//42
f 24//43 37//44 30//45
f 29//31 6//46 34//47
f 25//48 4//49 1//50
f 15//51 26//52 14//53
f 28//54 16//55 13//56
f 40//57 18//58 23//59
f 27//60 13//61 17//62
f 14//63 23//64 18//65
f 42//66 11//67 12//68
f 43//69 9//70 20//71
f 10//72 44//73 21//74
f 44//75 20//76 21//77
f 48//78 46//79 45//80
f 44//81 46//82 43//83
f 43//69 42//84 12//85
f 41//86 44//73 11//87
f 48//88 49//88 47//88
f 46//89 49//90 42//91
f 50//92 45//93 41//94
f 42//95 50//96 41//97
f 53//98 51//99 37//100
f 54//101 24//102 20//103
f 51//104 20//105 9//106
f 30//107 51//108 9//109
f 57//110 55//111 52//112
f 38//113 53//114 37//115
f 52//116 54//117 51//118
f 54//119 58//120 38//121
f 56//122 60//122 59//122
f 55//123 59//124 58//125
f 60//126 52//127 53//128
f 58//129 60//130 53//131
f 63//132 32//133 61//134
f 61//135 24//136 30//137
f 23//138 64//139 27//140
f 64//141 30//142 27//143
f 65//144 67//145 66//146
f 32//147 65//148 31//149
f 31//150 66//151 64//139
f 66//152 61//153 64//154
f 70//155 67//155 68//155
f 67//156 63//157 66//158
f 69//159 62//160 63//161
f 62//162 68//163 65//164
f 74//165 72//166 71//167
f 72//168 23//169 27//170
f 17//171 72//172 27//173
f 18//174 71//175 17//176
f 77//177 75//178 73//179
f 39//180 74//181 71//182
f 73//183 40//184 72//185
f 40//186 78//187 39//188
f 79//189 77//189 80//189
f 75//190 79//191 78//192
f 80//193 73//194 74//195
f 78//196 80//197 74//198
f 3//199 82//200 81//201
f 84//202 83//203 82//204
f 87//205 83//206 84//207
f 83//208 81//209 82//210
f 90//211 89//212 81//213
f 92//214 87//214 91//214
f 86//215 88//216 83//217
f 88//218 91//219 90//220
f 90//221 87//222 84//223
f 3//224 81//224 2//224
f 8//225 82//225 7//225
f 3//226 93//226 7//226
f 97//227 94//228 95//227
f 6//229 98//229 34//229
f 95//230 3//230 4//230
f 16//231 100//231 15//231
f 102//232 4//230 35//232
f 103//229 16//229 33//229
f 7//229 99//229 6//229
f 36//232 102//232 35//232
f 15//232 104//232 36//232
f 98//229 33//229 34//229
f 109//233 108//233 112//233
f 105//234 101//234 103//235
f 100//227 108//228 104//236
f 110//237 99//235 93//237
f 109//228 95//227 102//236
f 94//238 110//239 93//239
f 104//236 109//228 102//236
f 111//235 98//237 99//235
f 106//240 100//240 101//240
f 112//237 103//235 98//237
f 85//241 22//242 89//243
f 21//74 19//244 10//72
f 84//245 89//243 90//246
f 19//244 85//241 8//247
f 2//248 89//243 22//242
f 1//1 4//249 3//2
f 5//4 8//250 7//5
f 9//7 12//251 11//8
f 16//10 15//252 14//11
f 13//13 14//253 18//14
f 5//254 9//18 19//17
f 19//17 8//255 5//254
f 21//256 20//21 22//20
f 1//19 2//257 22//20
f 26//22 25//258 24//23
f 30//25 29//259 28//26
f 24//28 32//260 31//29
f 29//31 34//47 33//32
f 36//34 35//261 25//35
f 24//37 25//262 1//38
f 30//40 9//263 5//41
f 24//43 38//264 37//44
f 29//31 5//265 6//46
f 25//48 35//266 4//49
f 15//51 36//267 26//52
f 28//54 33//268 16//55
f 40//57 39//269 18//58
f 27//60 28//270 13//61
f 14//63 26//271 23//64
f 42//66 41//272 11//67
f 43//69 12//85 9//70
f 10//72 11//87 44//73
f 44//75 43//273 20//76
f 48//78 47//274 46//79
f 44//81 45//275 46//82
f 43//69 46//276 42//84
f 41//86 45//277 44//73
f 48//88 50//88 49//88
f 46//89 47//278 49//90
f 50//92 48//279 45//93
f 42//95 49//280 50//96
f 53//98 52//281 51//99
f 54//101 38//282 24//102
f 51//104 54//283 20//105
f 30//107 37//284 51//108
f 57//110 56//285 55//111
f 38//113 58//286 53//114
f 52//116 55//287 54//117
f 54//119 55//288 58//120
f 56//122 57//122 60//122
f 55//123 56//289 59//124
f 60//126 57//290 52//127
f 58//129 59//291 60//130
f 63//132 62//292 32//133
f 61//135 32//293 24//136
f 23//138 31//150 64//139
f 64//141 61//294 30//142
f 65//144 68//295 67//145
f 32//147 62//296 65//148
f 31//150 65//297 66//151
f 66//152 63//298 61//153
f 70//155 69//155 67//155
f 67//156 69//299 63//157
f 69//159 70//300 62//160
f 62//162 70//301 68//163
f 74//165 73//302 72//166
f 72//168 40//303 23//169
f 17//171 71//304 72//172
f 18//174 39//305 71//175
f 77//177 76//306 75//178
f 39//180 78//307 74//181
f 73//183 75//308 40//184
f 40//186 75//309 78//187
f 79//189 76//189 77//189
f 75//190 76//310 79//191
f 80//193 77//311 73//194
f 78//196 79//312 80//197
f 3//199 7//313 82//200
f 82//204 8//314 85//315
f 85//315 84//202 82//204
f 87//205 86//316 83//206
f 83//208 88//317 81//209
f 2//318 81//213 89//212
f 88//319 90//211 81//213
f 92//214 86//320 87//214
f 86//215 92//321 88//216
f 88//218 92//322 91//219
f 90//221 91//323 87//222
f 3//226 94//226 93//226
f 97//227 96//236 94//228
f 6//229 99//229 98//229
f 95//230 94//324 3//230
f 16//231 101//231 100//231
f 102//232 95//230 4//230
f 103//229 101//229 16//229
f 7//229 93//229 99//229
f 36//232 104//232 102//232
f 15//232 100//325 104//232
f 98//229 103//229 33//229
f 106//326 105//233 108//233
f 112//233 111//233 109//233
f 110//233 96//233 97//233
f 110//233 97//233 111//233
f 105//233 112//233 108//233
f 108//233 107//233 106//326
f 97//233 109//233 111//233
f 105//234 106//234 101//234
f 100//227 107//227 108//228
f 110//237 111//235 99//235
f 109//228 97//227 95//227
f 94//238 96//238 110//239
f 104//236 108//228 109//228
f 111//235 112//237 98//237
f 106//240 107//240 100//240
f 112//237 105//234 103//235
f 85//241 19//244 22//242
f 21//74 22//242 19//244
f 84//245 85//241 89//243
