<?xml version="1.0" standalone="yes"?>

<svg version="1.1" viewBox="0.0 0.0 1000.0 1000.0" fill="none" stroke="none" stroke-linecap="square" stroke-miterlimit="10" xmlns="http://www.w3.org/2000/svg" xmlns:xlink="http://www.w3.org/1999/xlink"><clipPath id="p.0"><path d="m0 0l1000.0 0l0 1000.0l-1000.0 0l0 -1000.0z" clip-rule="nonzero"></path></clipPath><g clip-path="url(#p.0)"><path fill="#000000" fill-opacity="0.0" d="m0 0l1000.0 0l0 1000.0l-1000.0 0z" fill-rule="nonzero"></path><path fill="#ffffff" d="m30.790026 79.772736l0 0c0 -29.925442 24.259367 -54.184807 54.184814 -54.184807l618.2445 0c14.370728 0 28.152832 5.70874 38.314453 15.870363c10.161621 10.161625 15.870361 23.94374 15.870361 38.314445l0 216.73276c0 29.925415 -24.259338 54.184784 -54.184814 54.184784l-618.2445 0c-29.925446 0 -54.184814 -24.259369 -54.184814 -54.184784z" fill-rule="nonzero"></path><path stroke="#000000" stroke-width="1.0" stroke-linejoin="round" stroke-linecap="butt" d="m30.790026 79.772736l0 0c0 -29.925442 24.259367 -54.184807 54.184814 -54.184807l618.2445 0c14.370728 0 28.152832 5.70874 38.314453 15.870363c10.161621 10.161625 15.870361 23.94374 15.870361 38.314445l0 216.73276c0 29.925415 -24.259338 54.184784 -54.184814 54.184784l-618.2445 0c-29.925446 0 -54.184814 -24.259369 -54.184814 -54.184784z" fill-rule="nonzero"></path><path fill="#000000" d="m59.863342 71.37811l0 -13.515625l4.734375 0q2.453125 0 3.71875 0.953125q1.28125 0.9375 1.28125 2.75q0 1.0 -0.515625 1.765625q-0.5 0.75 -1.40625 1.09375q1.03125 0.265625 1.625 1.0625q0.609375 0.78125 0.609375 1.921875q0 1.953125 -1.25 2.953125q-1.234375 1.0 -3.546875 1.015625l-5.25 0zm2.78125 -5.875l0 3.640625l2.390625 0q0.984375 0 1.53125 -0.46875q0.5625 -0.46875 0.5625 -1.296875q0 -1.859375 -1.921875 -1.875l-2.5625 0zm0 -1.96875l2.0625 0q2.109375 -0.046875 2.109375 -1.6875q0 -0.921875 -0.53125 -1.3125q-0.53125 -0.40625 -1.6875 -0.40625l-1.953125 0l0 3.40625zm14.593613 0.3125q-0.546875 -0.0625 -0.96875 -0.0625q-1.515625 0 -1.984375 1.03125l0 6.5625l-2.6875 0l0 -10.03125l2.53125 0l0.078125 1.1875q0.796875 -1.375 2.234375 -1.375q0.4375 0 0.828125 0.109375l-0.03125 2.578125zm0.7422943 2.421875q0 -1.5 0.578125 -2.65625q0.578125 -1.171875 1.65625 -1.8125q1.078125 -0.640625 2.515625 -0.640625q2.03125 0 3.3125 1.25q1.28125 1.234375 1.4375 3.359375l0.015625 0.6875q0 2.3125 -1.296875 3.71875q-1.28125 1.390625 -3.453125 1.390625q-2.171875 0 -3.46875 -1.390625q-1.296875 -1.390625 -1.296875 -3.78125l0 -0.125zm2.6875 0.1875q0 1.4375 0.53125 2.203125q0.546875 0.75 1.546875 0.75q0.96875 0 1.515625 -0.75q0.546875 -0.75 0.546875 -2.390625q0 -1.40625 -0.546875 -2.171875q-0.546875 -0.765625 -1.53125 -0.765625q-0.984375 0 -1.53125 0.765625q-0.53125 0.765625 -0.53125 2.359375zm17.017548 1.28125l1.3125 -6.390625l2.59375 0l-2.5625 10.03125l-2.25 0l-1.90625 -6.3125l-1.890625 6.3125l-2.234375 0l-2.5625 -10.03125l2.578125 0l1.3125 6.375l1.84375 -6.375l1.9375 0l1.828125 6.390625zm10.412918 0.859375q0 -0.484375 -0.484375 -0.765625q-0.484375 -0.28125 -1.5625 -0.5q-3.59375 -0.765625 -3.59375 -3.046875q0 -1.34375 1.109375 -2.234375q1.109375 -0.890625 2.90625 -0.890625q1.90625 0 3.046875 0.90625q1.15625 0.890625 1.15625 2.328125l-2.6875 0q0 -0.578125 -0.375 -0.953125q-0.359375 -0.375 -1.15625 -0.375q-0.671875 0 -1.046875 0.3125q-0.359375 0.296875 -0.359375 0.765625q0 0.453125 0.421875 0.734375q0.421875 0.265625 1.421875 0.46875q1.0 0.203125 1.6875 0.453125q2.125 0.765625 2.125 2.6875q0 1.375 -1.1875 2.234375q-1.171875 0.84375 -3.03125 0.84375q-1.265625 0 -2.25 -0.453125q-0.96875 -0.453125 -1.53125 -1.234375q-0.5625 -0.78125 -0.5625 -1.6875l2.546875 0q0.03125 0.703125 0.515625 1.09375q0.5 0.375 1.328125 0.375q0.765625 0 1.15625 -0.28125q0.40625 -0.296875 0.40625 -0.78125zm8.7798 2.96875q-2.21875 0 -3.609375 -1.359375q-1.375 -1.359375 -1.375 -3.609375l0 -0.25q0 -1.515625 0.578125 -2.703125q0.59375 -1.203125 1.65625 -1.84375q1.078125 -0.640625 2.453125 -0.640625q2.046875 0 3.234375 1.296875q1.1875 1.296875 1.1875 3.6875l0 1.09375l-6.390625 0q0.125 0.984375 0.78125 1.578125q0.65625 0.59375 1.65625 0.59375q1.546875 0 2.421875 -1.125l1.3125 1.46875q-0.59375 0.859375 -1.625 1.34375q-1.03125 0.46875 -2.28125 0.46875zm-0.3125 -8.234375q-0.796875 0 -1.296875 0.53125q-0.5 0.53125 -0.625 1.546875l3.71875 0l0 -0.21875q-0.015625 -0.890625 -0.484375 -1.375q-0.453125 -0.484375 -1.3125 -0.484375zm11.412338 0.515625q-0.546875 -0.0625 -0.96875 -0.0625q-1.515625 0 -1.984375 1.03125l0 6.5625l-2.6875 0l0 -10.03125l2.53125 0l0.078125 1.1875q0.796875 -1.375 2.234375 -1.375q0.4375 0 0.828125 0.109375l-0.03125 2.578125z" fill-rule="nonzero"></path><path fill="#ffffff" d="m30.789736 517.06744l0 0c0 -50.518402 40.953255 -91.47165 91.47165 -91.47165l763.7024 0c24.259827 0 47.526 9.6371765 64.68024 26.791443c17.154236 17.154236 26.791443 40.42041 26.791443 64.68021l0 365.8756c0 50.51837 -40.953247 91.47162 -91.47168 91.47162l-763.7024 0c-50.518394 0 -91.47165 -40.953247 -91.47165 -91.47162z" fill-rule="nonzero"></path><path stroke="#000000" stroke-width="1.0" stroke-linejoin="round" stroke-linecap="butt" d="m30.789736 517.06744l0 0c0 -50.518402 40.953255 -91.47165 91.47165 -91.47165l763.7024 0c24.259827 0 47.526 9.6371765 64.68024 26.791443c17.154236 17.154236 26.791443 40.42041 26.791443 64.68021l0 365.8756c0 50.51837 -40.953247 91.47162 -91.47168 91.47162l-763.7024 0c-50.518394 0 -91.47165 -40.953247 -91.47165 -91.47162z" fill-rule="nonzero"></path><path fill="#000000" d="m70.78399 482.30692l0 -13.515625l4.734375 0q2.453125 0 3.71875 0.953125q1.28125 0.9375 1.28125 2.75q0 1.0 -0.515625 1.765625q-0.5 0.75 -1.40625 1.09375q1.03125 0.265625 1.625 1.0625q0.609375 0.78125 0.609375 1.921875q0 1.953125 -1.25 2.953125q-1.234375 1.0 -3.546875 1.015625l-5.25 0zm2.78125 -5.875l0 3.640625l2.390625 0q0.984375 0 1.53125 -0.46875q0.5625 -0.46875 0.5625 -1.296875q0 -1.859375 -1.921875 -1.875l-2.5625 0zm0 -1.96875l2.0625 0q2.109375 -0.046875 2.109375 -1.6875q0 -0.921875 -0.53125 -1.3125q-0.53125 -0.40625 -1.6875 -0.40625l-1.953125 0l0 3.40625zm14.765488 7.84375q-0.1875 -0.359375 -0.265625 -0.90625q-0.96875 1.09375 -2.53125 1.09375q-1.484375 0 -2.453125 -0.84375q-0.96875 -0.859375 -0.96875 -2.171875q0 -1.59375 1.1875 -2.4375q1.1875 -0.859375 3.421875 -0.859375l1.234375 0l0 -0.578125q0 -0.703125 -0.359375 -1.109375q-0.359375 -0.421875 -1.125 -0.421875q-0.671875 0 -1.0625 0.328125q-0.390625 0.3125 -0.390625 0.890625l-2.671875 0q0 -0.875 0.53125 -1.609375q0.546875 -0.75 1.515625 -1.171875q0.984375 -0.421875 2.21875 -0.421875q1.859375 0 2.9375 0.9375q1.09375 0.921875 1.09375 2.609375l0 4.359375q0.015625 1.421875 0.40625 2.15625l0 0.15625l-2.71875 0zm-2.21875 -1.859375q0.59375 0 1.09375 -0.265625q0.5 -0.265625 0.75 -0.71875l0 -1.71875l-1.0 0q-2.015625 0 -2.140625 1.390625l-0.015625 0.15625q0 0.5 0.34375 0.828125q0.359375 0.328125 0.96875 0.328125zm10.580353 -0.109375q0.75 0 1.203125 -0.40625q0.46875 -0.421875 0.484375 -1.09375l2.515625 0q-0.015625 1.015625 -0.5625 1.875q-0.546875 0.84375 -1.5 1.3125q-0.9375 0.46875 -2.09375 0.46875q-2.15625 0 -3.40625 -1.359375q-1.234375 -1.375 -1.234375 -3.796875l0 -0.171875q0 -2.3125 1.234375 -3.6875q1.234375 -1.390625 3.390625 -1.390625q1.875 0 3.015625 1.078125q1.140625 1.0625 1.15625 2.84375l-2.515625 0q-0.015625 -0.78125 -0.484375 -1.265625q-0.453125 -0.484375 -1.21875 -0.484375q-0.9375 0 -1.421875 0.6875q-0.46875 0.671875 -0.46875 2.203125l0 0.28125q0 1.546875 0.46875 2.234375q0.46875 0.671875 1.4375 0.671875zm9.197693 -2.0625l-0.953125 0.96875l0 3.0625l-2.6875 0l0 -14.25l2.6875 0l0 7.890625l0.515625 -0.65625l2.5625 -3.015625l3.21875 0l-3.625 4.171875l3.9375 5.859375l-3.078125 0l-2.578125 -4.03125zm10.950165 4.21875q-2.21875 0 -3.609375 -1.359375q-1.375 -1.359375 -1.375 -3.609375l0 -0.25q0 -1.515625 0.578125 -2.703125q0.59375 -1.203125 1.65625 -1.84375q1.078125 -0.640625 2.453125 -0.640625q2.046875 0 3.234375 1.296875q1.1875 1.296875 1.1875 3.6875l0 1.09375l-6.390625 0q0.125 0.984375 0.78125 1.578125q0.65625 0.59375 1.65625 0.59375q1.546875 0 2.421875 -1.125l1.3125 1.46875q-0.59375 0.859375 -1.625 1.34375q-1.03125 0.46875 -2.28125 0.46875zm-0.3125 -8.234375q-0.796875 0 -1.296875 0.53125q-0.5 0.53125 -0.625 1.546875l3.71875 0l0 -0.21875q-0.015625 -0.890625 -0.484375 -1.375q-0.453125 -0.484375 -1.3125 -0.484375zm8.240463 -1.984375l0.078125 1.15625q1.078125 -1.34375 2.890625 -1.34375q1.5937576 0 2.3750076 0.9375q0.78125 0.9375 0.796875 2.796875l0 6.484375l-2.6875 0l0 -6.421875q0 -0.859375 -0.37500763 -1.234375q-0.359375 -0.390625 -1.21875 -0.390625q-1.140625 0 -1.703125 0.96875l0 7.078125l-2.6875 0l0 -10.03125l2.53125 0zm7.557976 4.9375q0 -2.34375 1.046875 -3.734375q1.0625 -1.390625 2.890625 -1.390625q1.46875 0 2.421875 1.09375l0 -5.125l2.6875 0l0 14.25l-2.421875 0l-0.125 -1.0625q-1.0 1.25 -2.578125 1.25q-1.78125 0 -2.859375 -1.390625q-1.0625 -1.40625 -1.0625 -3.890625zm2.6875 0.1875q0 1.421875 0.484375 2.171875q0.5 0.75 1.4375 0.75q1.234375 0 1.75 -1.046875l0 -3.96875q-0.5 -1.046875 -1.734375 -1.046875q-1.9375 0 -1.9375 3.140625z" fill-rule="nonzero"></path><path fill="#ffffff" d="m87.3625 145.56352l0 0c0 -17.041443 13.814819 -30.856262 30.856262 -30.856262l132.36621 0l0 0c8.183609 0 16.031998 3.2509155 21.81868 9.03759c5.786682 5.7866745 9.037598 13.635078 9.037598 21.818672l0 123.42134c0 17.041443 -13.814819 30.856262 -30.856277 30.856262l-132.36621 0c-17.041443 0 -30.856262 -13.814819 -30.856262 -30.856262z" fill-rule="nonzero"></path><path stroke="#000000" stroke-width="1.0" stroke-linejoin="round" stroke-linecap="butt" d="m87.3625 145.56352l0 0c0 -17.041443 13.814819 -30.856262 30.856262 -30.856262l132.36621 0l0 0c8.183609 0 16.031998 3.2509155 21.81868 9.03759c5.786682 5.7866745 9.037598 13.635078 9.037598 21.818672l0 123.42134c0 17.041443 -13.814819 30.856262 -30.856277 30.856262l-132.36621 0c-17.041443 0 -30.856262 -13.814819 -30.856262 -30.856262z" fill-rule="nonzero"></path><path fill="#000000" d="m143.53917 198.92856l0.25 1.78125l0.390625 -1.59375l2.671875 -9.4375l1.5 0l2.609375 9.4375l0.375 1.625l0.28125 -1.8125l2.09375 -9.25l1.796875 0l-3.28125 13.515625l-1.625 0l-2.78125 -9.84375l-0.21875 -1.03125l-0.203125 1.03125l-2.890625 9.84375l-1.625 0l-3.265625 -13.515625l1.78125 0l2.140625 9.25zm17.536331 4.453125q-2.046875 0 -3.328125 -1.34375q-1.28125 -1.34375 -1.28125 -3.578125l0 -0.328125q0 -1.484375 0.5625 -2.65625q0.578125 -1.171875 1.59375 -1.828125q1.03125 -0.671875 2.234375 -0.671875q1.953125 0 3.03125 1.296875q1.09375 1.28125 1.09375 3.6875l0 0.703125l-6.796875 0q0.03125 1.484375 0.859375 2.40625q0.84375 0.90625 2.125 0.90625q0.90625 0 1.53125 -0.359375q0.640625 -0.375 1.109375 -0.984375l1.046875 0.8125q-1.265625 1.9375 -3.78125 1.9375zm-0.21875 -9.0q-1.03125 0 -1.75 0.765625q-0.703125 0.75 -0.859375 2.109375l5.015625 0l0 -0.125q-0.0625 -1.3125 -0.703125 -2.03125q-0.625 -0.71875 -1.703125 -0.71875zm14.430679 3.90625q0 2.296875 -1.0625 3.703125q-1.046875 1.390625 -2.828125 1.390625q-1.90625 0 -2.953125 -1.34375l-0.078125 1.15625l-1.578125 0l0 -14.25l1.71875 0l0 5.3125q1.03125 -1.28125 2.859375 -1.28125q1.828125 0 2.875 1.390625q1.046875 1.375 1.046875 3.765625l0 0.15625zm-1.71875 -0.203125q0 -1.75 -0.6875 -2.703125q-0.671875 -0.953125 -1.9375 -0.953125q-1.703125 0 -2.4375 1.578125l0 4.34375q0.78125 1.578125 2.453125 1.578125q1.234375 0 1.921875 -0.953125q0.6875 -0.96875 0.6875 -2.890625zm13.935562 3.34375q-0.6875 0.984375 -1.921875 1.46875q-1.234375 0.484375 -2.859375 0.484375q-1.65625 0 -2.9375 -0.765625q-1.28125 -0.78125 -1.984375 -2.203125q-0.6875 -1.4375 -0.71875 -3.328125l0 -1.171875q0 -3.046875 1.421875 -4.71875q1.4375 -1.6875 4.015625 -1.6875q2.109375 0 3.390625 1.078125q1.296875 1.078125 1.59375 3.0625l-1.78125 0q-0.5 -2.6875 -3.203125 -2.6875q-1.78125 0 -2.703125 1.265625q-0.921875 1.25 -0.9375 3.640625l0 1.109375q0 2.265625 1.03125 3.609375q1.046875 1.34375 2.8125 1.34375q1.015625 0 1.765625 -0.21875q0.75 -0.234375 1.234375 -0.765625l0 -3.03125l-3.125 0l0 -1.4375l4.90625 0l0 4.953125zm4.5202484 0.3125l6.40625 0l0 1.453125l-8.203125 0l0 -13.515625l1.796875 0l0 12.0625zm8.319916 2.609375l-1.46875 0l5.640625 -14.671875l1.46875 0l-5.640625 14.671875zm12.094666 -3.515625l3.859375 -11.15625l1.9375 0l-5.0 13.515625l-1.578125 0l-5.0 -13.515625l1.9375 0l3.84375 11.15625zm12.338425 -3.109375l-3.171875 0l0 5.46875l-1.78125 0l0 -13.515625l4.46875 0q2.28125 0 3.5 1.046875q1.234375 1.03125 1.234375 3.03125q0 1.25 -0.6875 2.1875q-0.671875 0.9375 -1.890625 1.40625l3.171875 5.734375l0 0.109375l-1.90625 0l-2.9375 -5.46875zm-3.171875 -1.453125l2.75 0q1.3125 0 2.09375 -0.6875q0.796875 -0.6875 0.796875 -1.828125q0 -1.265625 -0.75 -1.921875q-0.75 -0.671875 -2.15625 -0.6875l-2.734375 0l0 5.125z" fill-rule="nonzero"></path><path fill="#000000" d="m153.62776 219.72543l-3.171875 0l0 5.46875l-1.78125 0l0 -13.515625l4.46875 0q2.28125 0 3.5 1.046875q1.234375 1.03125 1.234375 3.03125q0 1.25 -0.6875 2.1875q-0.671875 0.9375 -1.890625 1.40625l3.171875 5.734375l0 0.109375l-1.90625 0l-2.9375 -5.46875zm-3.171875 -1.453125l2.75 0q1.3125 0 2.09375 -0.6875q0.796875 -0.6875 0.796875 -1.828125q0 -1.265625 -0.75 -1.921875q-0.75 -0.671875 -2.15625 -0.6875l-2.734375 0l0 5.125zm13.612076 7.109375q-2.046875 0 -3.328125 -1.34375q-1.28125 -1.34375 -1.28125 -3.578125l0 -0.328125q0 -1.484375 0.5625 -2.65625q0.578125 -1.171875 1.59375 -1.828125q1.03125 -0.671875 2.234375 -0.671875q1.953125 0 3.03125 1.296875q1.09375 1.28125 1.09375 3.6875l0 0.703125l-6.796875 0q0.03125 1.484375 0.859375 2.40625q0.84375 0.90625 2.125 0.90625q0.90625 0 1.53125 -0.359375q0.640625 -0.375 1.109375 -0.984375l1.046875 0.8125q-1.265625 1.9375 -3.78125 1.9375zm-0.21875 -9.0q-1.03125 0 -1.75 0.765625q-0.703125 0.75 -0.859375 2.109375l5.015625 0l0 -0.125q-0.0625 -1.3125 -0.703125 -2.03125q-0.625 -0.71875 -1.703125 -0.71875zm7.5556793 -1.21875l0.0625 1.25q1.140625 -1.4375 3.0 -1.4375q3.1875 0 3.203125 3.578125l0 6.640625l-1.703125 0l0 -6.640625q-0.015625 -1.09375 -0.5 -1.609375q-0.484375 -0.515625 -1.515625 -0.515625q-0.84375 0 -1.46875 0.453125q-0.625 0.4375 -0.984375 1.15625l0 7.15625l-1.71875 0l0 -10.03125l1.625 0zm8.246857 4.921875q0 -2.296875 1.09375 -3.703125q1.109375 -1.40625 2.875 -1.40625q1.765625 0 2.796875 1.203125l0 -5.234375l1.71875 0l0 14.25l-1.578125 0l-0.09375 -1.078125q-1.03125 1.265625 -2.859375 1.265625q-1.75 0 -2.859375 -1.421875q-1.09375 -1.4375 -1.09375 -3.734375l0 -0.140625zm1.71875 0.203125q0 1.703125 0.703125 2.671875q0.71875 0.96875 1.953125 0.96875q1.640625 0 2.390625 -1.46875l0 -4.609375q-0.78125 -1.421875 -2.375 -1.421875q-1.25 0 -1.96875 0.984375q-0.703125 0.96875 -0.703125 2.875zm13.396469 5.09375q-2.046875 0 -3.328125 -1.34375q-1.28125 -1.34375 -1.28125 -3.578125l0 -0.328125q0 -1.484375 0.5625 -2.65625q0.578125 -1.171875 1.59375 -1.828125q1.03125 -0.671875 2.234375 -0.671875q1.953125 0 3.03125 1.296875q1.09375 1.28125 1.09375 3.6875l0 0.703125l-6.796875 0q0.03125 1.484375 0.859375 2.40625q0.84375 0.90625 2.125 0.90625q0.90625 0 1.53125 -0.359375q0.640625 -0.375 1.109375 -0.984375l1.046875 0.8125q-1.265625 1.9375 -3.78125 1.9375zm-0.21875 -9.0q-1.03125 0 -1.75 0.765625q-0.703125 0.75 -0.859375 2.109375l5.015625 0l0 -0.125q-0.0625 -1.3125 -0.703125 -2.03125q-0.625 -0.71875 -1.703125 -0.71875zm10.790054 0.3125q-0.390625 -0.0625 -0.84375 -0.0625q-1.6875 0 -2.296875 1.4375l0 7.125l-1.71875 0l0 -10.03125l1.671875 0l0.03125 1.15625q0.84375 -1.34375 2.390625 -1.34375q0.5 0 0.765625 0.125l0 1.59375zm5.6253815 8.6875q-2.046875 0 -3.328125 -1.34375q-1.28125 -1.34375 -1.28125 -3.578125l0 -0.328125q0 -1.484375 0.5625 -2.65625q0.578125 -1.171875 1.59375 -1.828125q1.03125 -0.671875 2.234375 -0.671875q1.953125 0 3.03125 1.296875q1.09375 1.28125 1.09375 3.6875l0 0.703125l-6.796875 0q0.03125 1.484375 0.859375 2.40625q0.84375 0.90625 2.125 0.90625q0.90625 0 1.53125 -0.359375q0.640625 -0.375 1.109375 -0.984375l1.046875 0.8125q-1.265625 1.9375 -3.78125 1.9375zm-0.21875 -9.0q-1.03125 0 -1.75 0.765625q-0.703125 0.75 -0.859375 2.109375l5.015625 0l0 -0.125q-0.0625 -1.3125 -0.703125 -2.03125q-0.625 -0.71875 -1.703125 -0.71875zm10.790054 0.3125q-0.390625 -0.0625 -0.84375 -0.0625q-1.6875 0 -2.296875 1.4375l0 7.125l-1.71875 0l0 -10.03125l1.671875 0l0.03125 1.15625q0.84375 -1.34375 2.390625 -1.34375q0.5 0 0.765625 0.125l0 1.59375z" fill-rule="nonzero"></path><path fill="#ffffff" d="m297.06537 145.56352l0 0c0 -17.041443 13.814819 -30.856262 30.856262 -30.856262l132.36621 0l0 0c8.183594 0 16.032013 3.2509155 21.818665 9.03759c5.786682 5.7866745 9.037598 13.635078 9.037598 21.818672l0 123.42134c0 17.041443 -13.814819 30.856262 -30.856262 30.856262l-132.36621 0c-17.041443 0 -30.856262 -13.814819 -30.856262 -30.856262z" fill-rule="nonzero"></path><path stroke="#000000" stroke-width="1.0" stroke-linejoin="round" stroke-linecap="butt" d="m297.06537 145.56352l0 0c0 -17.041443 13.814819 -30.856262 30.856262 -30.856262l132.36621 0l0 0c8.183594 0 16.032013 3.2509155 21.818665 9.03759c5.786682 5.7866745 9.037598 13.635078 9.037598 21.818672l0 123.42134c0 17.041443 -13.814819 30.856262 -30.856262 30.856262l-132.36621 0c-17.041443 0 -30.856262 -13.814819 -30.856262 -30.856262z" fill-rule="nonzero"></path><path fill="#000000" d="m357.63406 208.17856q-2.296875 -0.671875 -3.34375 -1.625q-1.03125 -0.953125 -1.03125 -2.375q0 -1.59375 1.265625 -2.625q1.28125 -1.046875 3.328125 -1.046875q1.390625 0 2.46875 0.53125q1.09375 0.53125 1.6875 1.484375q0.609375 0.953125 0.609375 2.0625l-1.796875 0q0 -1.21875 -0.78125 -1.921875q-0.765625 -0.703125 -2.1875 -0.703125q-1.328125 0 -2.0625 0.59375q-0.734375 0.578125 -0.734375 1.609375q0 0.8125 0.703125 1.390625q0.703125 0.5625 2.375 1.046875q1.6875 0.46875 2.640625 1.046875q0.953125 0.5625 1.40625 1.328125q0.46875 0.75 0.46875 1.78125q0 1.640625 -1.28125 2.640625q-1.28125 0.984375 -3.421875 0.984375q-1.390625 0 -2.609375 -0.53125q-1.203125 -0.53125 -1.859375 -1.453125q-0.640625 -0.9375 -0.640625 -2.125l1.78125 0q0 1.234375 0.90625 1.953125q0.90625 0.703125 2.421875 0.703125q1.40625 0 2.15625 -0.578125q0.75 -0.578125 0.75 -1.5625q0 -1.0 -0.703125 -1.546875q-0.6875 -0.546875 -2.515625 -1.0625zm8.677399 6.015625l-1.703125 0l0 -10.03125l1.703125 0l0 10.03125zm-1.84375 -12.703125q0 -0.421875 0.25 -0.703125q0.25 -0.28125 0.75 -0.28125q0.515625 0 0.765625 0.28125q0.265625 0.28125 0.265625 0.703125q0 0.421875 -0.265625 0.703125q-0.25 0.265625 -0.765625 0.265625q-0.5 0 -0.75 -0.265625q-0.25 -0.28125 -0.25 -0.703125zm6.1211853 2.671875l0.046875 1.109375q1.109375 -1.296875 2.984375 -1.296875q2.109375 0 2.859375 1.609375q0.515625 -0.71875 1.3125 -1.15625q0.796875 -0.453125 1.890625 -0.453125q3.3125 0 3.359375 3.5l0 6.71875l-1.71875 0l0 -6.625q0 -1.078125 -0.5 -1.609375q-0.484375 -0.53125 -1.640625 -0.53125q-0.953125 0 -1.59375 0.578125q-0.625 0.5625 -0.71875 1.53125l0 6.65625l-1.734375 0l0 -6.578125q0 -2.1875 -2.140625 -2.1875q-1.6875 0 -2.3125 1.4375l0 7.328125l-1.703125 0l0 -10.03125l1.609375 0zm29.563812 5.75q-0.25 2.140625 -1.578125 3.3125q-1.328125 1.15625 -3.53125 1.15625q-2.40625 0 -3.84375 -1.71875q-1.4375 -1.71875 -1.4375 -4.59375l0 -1.296875q0 -1.890625 0.671875 -3.3125q0.671875 -1.421875 1.90625 -2.1875q1.234375 -0.765625 2.859375 -0.765625q2.140625 0 3.4375 1.203125q1.3125 1.1875 1.515625 3.3125l-1.78125 0q-0.234375 -1.609375 -1.015625 -2.328125q-0.765625 -0.734375 -2.15625 -0.734375q-1.71875 0 -2.6875 1.265625q-0.96875 1.265625 -0.96875 3.59375l0 1.3125q0 2.1875 0.921875 3.5q0.921875 1.296875 2.578125 1.296875q1.484375 0 2.265625 -0.671875q0.796875 -0.671875 1.0625 -2.34375l1.78125 0zm3.7991943 4.28125l-1.703125 0l0 -14.25l1.703125 0l0 14.25zm4.5274353 0l-1.703125 0l0 -10.03125l1.703125 0l0 10.03125zm-1.84375 -12.703125q0 -0.421875 0.25 -0.703125q0.25 -0.28125 0.75 -0.28125q0.515625 0 0.765625 0.28125q0.265625 0.28125 0.265625 0.703125q0 0.421875 -0.265625 0.703125q-0.25 0.265625 -0.765625 0.265625q-0.5 0 -0.75 -0.265625q-0.25 -0.28125 -0.25 -0.703125zm8.683655 12.890625q-2.046875 0 -3.328125 -1.34375q-1.28125 -1.34375 -1.28125 -3.578125l0 -0.328125q0 -1.484375 0.5625 -2.65625q0.578125 -1.171875 1.59375 -1.828125q1.03125 -0.671875 2.234375 -0.671875q1.953125 0 3.03125 1.296875q1.09375 1.28125 1.09375 3.6875l0 0.703125l-6.796875 0q0.03125 1.484375 0.859375 2.40625q0.84375 0.90625 2.125 0.90625q0.90625 0 1.53125 -0.359375q0.640625 -0.375 1.109375 -0.984375l1.046875 0.8125q-1.265625 1.9375 -3.78125 1.9375zm-0.21875 -9.0q-1.03125 0 -1.75 0.765625q-0.703125 0.75 -0.859375 2.109375l5.015625 0l0 -0.125q-0.0625 -1.3125 -0.703125 -2.03125q-0.625 -0.71875 -1.703125 -0.71875zm7.5556946 -1.21875l0.0625 1.25q1.140625 -1.4375 3.0 -1.4375q3.1875 0 3.203125 3.578125l0 6.640625l-1.703125 0l0 -6.640625q-0.015625 -1.09375 -0.5 -1.609375q-0.484375 -0.515625 -1.515625 -0.515625q-0.84375 0 -1.46875 0.453125q-0.625 0.4375 -0.984375 1.15625l0 7.15625l-1.71875 0l0 -10.03125l1.625 0zm10.996857 -2.4375l0 2.4375l1.8749695 0l0 1.3125l-1.8749695 0l0 6.234375q0 0.59375 0.25 0.90625q0.24996948 0.296875 0.8593445 0.296875q0.296875 0 0.8125 -0.109375l0 1.390625q-0.671875 0.1875 -1.3125 0.1875q-1.1562195 0 -1.7499695 -0.6875q-0.578125 -0.703125 -0.578125 -1.984375l0 -6.234375l-1.828125 0l0 -1.3125l1.828125 0l0 -2.4375l1.71875 0z" fill-rule="nonzero"></path><path fill="#ffffff" d="m460.5616 760.1026l0 0c0 -6.4942017 5.264557 -11.758789 11.758759 -11.758789l212.4195 0c3.1185913 0 6.109497 1.2388916 8.314697 3.4440918c2.2052002 2.2052002 3.4440308 5.196106 3.4440308 8.314697l0 47.03363c0 6.4942017 -5.2645874 11.758789 -11.758728 11.758789l-212.4195 0c-6.4942017 0 -11.758759 -5.2645874 -11.758759 -11.758789z" fill-rule="nonzero"></path><path stroke="#000000" stroke-width="1.0" stroke-linejoin="round" stroke-linecap="butt" d="m460.5616 760.1026l0 0c0 -6.4942017 5.264557 -11.758789 11.758759 -11.758789l212.4195 0c3.1185913 0 6.109497 1.2388916 8.314697 3.4440918c2.2052002 2.2052002 3.4440308 5.196106 3.4440308 8.314697l0 47.03363c0 6.4942017 -5.2645874 11.758789 -11.758728 11.758789l-212.4195 0c-6.4942017 0 -11.758759 -5.2645874 -11.758759 -11.758789z" fill-rule="nonzero"></path><path fill="#000000" d="m537.82355 784.5238q-2.296875 -0.671875 -3.34375 -1.625q-1.03125 -0.953125 -1.03125 -2.375q0 -1.59375 1.265625 -2.625q1.28125 -1.046875 3.328125 -1.046875q1.390625 0 2.46875 0.53125q1.09375 0.53125 1.6875 1.484375q0.609375 0.953125 0.609375 2.0625l-1.796875 0q0 -1.21875 -0.78125 -1.921875q-0.765625 -0.703125 -2.1875 -0.703125q-1.328125 0 -2.0625 0.59375q-0.734375 0.578125 -0.734375 1.609375q0 0.8125 0.703125 1.390625q0.703125 0.5625 2.375 1.046875q1.6875 0.46875 2.640625 1.046875q0.953125 0.5625 1.40625 1.328125q0.46875 0.75 0.46875 1.78125q0 1.640625 -1.28125 2.640625q-1.28125 0.984375 -3.421875 0.984375q-1.390625 0 -2.609375 -0.53125q-1.203125 -0.53125 -1.859375 -1.453125q-0.640625 -0.9375 -0.640625 -2.125l1.78125 0q0 1.234375 0.90625 1.953125q0.90625 0.703125 2.421875 0.703125q1.40625 0 2.15625 -0.578125q0.75 -0.578125 0.75 -1.5625q0 -1.0 -0.703125 -1.546875q-0.6875 -0.546875 -2.515625 -1.0625zm10.849243 4.796875q0.921875 0 1.59375 -0.546875q0.6875 -0.5625 0.765625 -1.390625l1.625 0q-0.046875 0.859375 -0.59375 1.640625q-0.546875 0.765625 -1.46875 1.234375q-0.90625 0.46875 -1.921875 0.46875q-2.046875 0 -3.265625 -1.359375q-1.203125 -1.375 -1.203125 -3.75l0 -0.296875q0 -1.46875 0.53125 -2.609375q0.546875 -1.140625 1.546875 -1.765625q1.0 -0.625 2.375 -0.625q1.6875 0 2.796875 1.015625q1.125 1.0 1.203125 2.609375l-1.625 0q-0.078125 -0.96875 -0.734375 -1.59375q-0.65625 -0.625 -1.640625 -0.625q-1.296875 0 -2.03125 0.9375q-0.71875 0.9375 -0.71875 2.71875l0 0.328125q0 1.734375 0.71875 2.671875q0.71875 0.9375 2.046875 0.9375zm10.593506 -7.28125q-0.390625 -0.0625 -0.84375 -0.0625q-1.6875 0 -2.296875 1.4375l0 7.125l-1.71875 0l0 -10.03125l1.671875 0l0.03125 1.15625q0.84375 -1.34375 2.390625 -1.34375q0.5 0 0.765625 0.125l0 1.59375zm3.3129272 8.5l-1.703125 0l0 -10.03125l1.703125 0l0 10.03125zm-1.84375 -12.703125q0 -0.421875 0.25 -0.703125q0.25 -0.28125 0.75 -0.28125q0.515625 0 0.765625 0.28125q0.265625 0.28125 0.265625 0.703125q0 0.421875 -0.265625 0.703125q-0.25 0.265625 -0.765625 0.265625q-0.5 0 -0.75 -0.265625q-0.25 -0.28125 -0.25 -0.703125zm12.996155 7.796875q0 2.296875 -1.046875 3.703125q-1.046875 1.390625 -2.84375 1.390625q-1.828125 0 -2.875 -1.15625l0 4.828125l-1.71875 0l0 -13.890625l1.5625 0l0.09375 1.109375q1.046875 -1.296875 2.90625 -1.296875q1.8125 0 2.859375 1.359375q1.0625 1.359375 1.0625 3.796875l0 0.15625zm-1.71875 -0.203125q0 -1.6875 -0.734375 -2.671875q-0.71875 -0.984375 -1.96875 -0.984375q-1.5625 0 -2.34375 1.375l0 4.796875q0.765625 1.375 2.359375 1.375q1.234375 0 1.953125 -0.96875q0.734375 -0.984375 0.734375 -2.921875zm6.029297 -7.359375l0 2.4375l1.875 0l0 1.3125l-1.875 0l0 6.234375q0 0.59375 0.25 0.90625q0.25 0.296875 0.859375 0.296875q0.296875 0 0.8125 -0.109375l0 1.390625q-0.671875 0.1875 -1.3125 0.1875q-1.15625 0 -1.75 -0.6875q-0.578125 -0.703125 -0.578125 -1.984375l0 -6.234375l-1.828125 0l0 -1.3125l1.828125 0l0 -2.4375l1.71875 0zm19.040894 12.46875l-1.796875 0l0 -6.25l-6.8125 0l0 6.25l-1.78125 0l0 -13.515625l1.78125 0l0 5.8125l6.8125 0l0 -5.8125l1.796875 0l0 13.515625zm2.1904907 -5.109375q0 -1.484375 0.578125 -2.65625q0.578125 -1.171875 1.609375 -1.8125q1.046875 -0.640625 2.375 -0.640625q2.046875 0 3.3125 1.421875q1.265625 1.40625 1.265625 3.765625l0 0.125q0 1.46875 -0.5625 2.640625q-0.5625 1.15625 -1.609375 1.8125q-1.046875 0.640625 -2.390625 0.640625q-2.046875 0 -3.3125 -1.421875q-1.265625 -1.421875 -1.265625 -3.75l0 -0.125zm1.71875 0.203125q0 1.671875 0.78125 2.6875q0.78125 1.0 2.078125 1.0q1.296875 0 2.0625 -1.015625q0.78125 -1.03125 0.78125 -2.875q0 -1.65625 -0.78125 -2.671875q-0.78125 -1.03125 -2.078125 -1.03125q-1.28125 0 -2.0625 1.015625q-0.78125 1.0 -0.78125 2.890625zm15.218018 2.25q0 -0.703125 -0.53125 -1.078125q-0.515625 -0.390625 -1.828125 -0.671875q-1.296875 -0.28125 -2.0625 -0.671875q-0.765625 -0.390625 -1.140625 -0.921875q-0.359375 -0.546875 -0.359375 -1.28125q0 -1.234375 1.046875 -2.078125q1.046875 -0.859375 2.671875 -0.859375q1.703125 0 2.765625 0.875q1.0625 0.875 1.0625 2.25l-1.71875 0q0 -0.703125 -0.609375 -1.203125q-0.59375 -0.515625 -1.5 -0.515625q-0.9375 0 -1.46875 0.40625q-0.53125 0.40625 -0.53125 1.0625q0 0.625 0.484375 0.9375q0.5 0.3125 1.78125 0.609375q1.296875 0.28125 2.09375 0.6875q0.796875 0.390625 1.171875 0.953125q0.390625 0.5625 0.390625 1.375q0 1.34375 -1.078125 2.15625q-1.078125 0.8125 -2.796875 0.8125q-1.203125 0 -2.125 -0.421875q-0.921875 -0.4375 -1.453125 -1.203125q-0.53125 -0.765625 -0.53125 -1.65625l1.71875 0q0.046875 0.859375 0.6875 1.375q0.65625 0.5 1.703125 0.5q0.984375 0 1.5625 -0.390625q0.59375 -0.390625 0.59375 -1.046875zm6.104004 -9.8125l0 2.4375l1.875 0l0 1.3125l-1.875 0l0 6.234375q0 0.59375 0.25 0.90625q0.25 0.296875 0.859375 0.296875q0.296875 0 0.8125 -0.109375l0 1.390625q-0.671875 0.1875 -1.3125 0.1875q-1.15625 0 -1.75 -0.6875q-0.578125 -0.703125 -0.578125 -1.984375l0 -6.234375l-1.828125 0l0 -1.3125l1.828125 0l0 -2.4375l1.71875 0z" fill-rule="nonzero"></path><path fill="#ffffff" d="m460.56525 856.49066l0 0c0 -6.4942017 5.2645874 -11.758789 11.758789 -11.758789l212.4195 0c3.1185913 0 6.109497 1.2388916 8.314697 3.4440918c2.2052002 2.2052002 3.4440308 5.196045 3.4440308 8.314697l0 47.03363c0 6.4942017 -5.2645874 11.758789 -11.758728 11.758789l-212.4195 0c-6.4942017 0 -11.758789 -5.2645874 -11.758789 -11.758789z" fill-rule="nonzero"></path><path stroke="#000000" stroke-width="1.0" stroke-linejoin="round" stroke-linecap="butt" d="m460.56525 856.49066l0 0c0 -6.4942017 5.2645874 -11.758789 11.758789 -11.758789l212.4195 0c3.1185913 0 6.109497 1.2388916 8.314697 3.4440918c2.2052002 2.2052002 3.4440308 5.196045 3.4440308 8.314697l0 47.03363c0 6.4942017 -5.2645874 11.758789 -11.758728 11.758789l-212.4195 0c-6.4942017 0 -11.758789 -5.2645874 -11.758789 -11.758789z" fill-rule="nonzero"></path><path fill="#000000" d="m549.6754 881.64624l0 5.28125l-1.78125 0l0 -13.515625l4.984375 0q2.21875 0 3.46875 1.140625q1.265625 1.125 1.265625 3.0q0 1.96875 -1.234375 3.03125q-1.21875 1.0625 -3.515625 1.0625l-3.1875 0zm0 -1.46875l3.203125 0q1.4375 0 2.1875 -0.671875q0.765625 -0.671875 0.765625 -1.9375q0 -1.203125 -0.765625 -1.921875q-0.75 -0.734375 -2.078125 -0.765625l-3.3125 0l0 5.296875zm11.441345 -2.078125q1.140625 -1.390625 2.96875 -1.390625q3.1875 0 3.203125 3.578125l0 6.640625l-1.703125 0l0 -6.640625q-0.015625 -1.09375 -0.5 -1.609375q-0.484375 -0.515625 -1.515625 -0.515625q-0.84375 0 -1.46875 0.453125q-0.625 0.4375 -0.984375 1.15625l0 7.15625l-1.71875 0l0 -14.25l1.71875 0l0 5.421875zm11.838013 6.3125l2.34375 -7.515625l1.84375 0l-4.046875 11.578125q-0.9375 2.5 -2.96875 2.5l-0.328125 -0.015625l-0.640625 -0.125l0 -1.390625l0.46875 0.03125q0.859375 0 1.34375 -0.359375q0.5 -0.34375 0.8125 -1.28125l0.375 -1.015625l-3.578125 -9.921875l1.875 0l2.5 7.515625zm11.389648 -0.140625q0 -0.703125 -0.53125 -1.078125q-0.515625 -0.390625 -1.828125 -0.671875q-1.296875 -0.28125 -2.0625 -0.671875q-0.765625 -0.390625 -1.140625 -0.921875q-0.359375 -0.546875 -0.359375 -1.28125q0 -1.234375 1.046875 -2.078125q1.046875 -0.859375 2.671875 -0.859375q1.703125 0 2.765625 0.875q1.0625 0.875 1.0625 2.25l-1.71875 0q0 -0.703125 -0.609375 -1.203125q-0.59375 -0.515625 -1.5 -0.515625q-0.9375 0 -1.46875 0.40625q-0.53125 0.40625 -0.53125 1.0625q0 0.625 0.484375 0.9375q0.5 0.3125 1.78125 0.609375q1.296875 0.28125 2.09375 0.6875q0.796875 0.390625 1.171875 0.953125q0.390625 0.5625 0.390625 1.375q0 1.34375 -1.078125 2.15625q-1.078125 0.8125 -2.796875 0.8125q-1.203125 0 -2.125 -0.421875q-0.921875 -0.4375 -1.453125 -1.203125q-0.53125 -0.765625 -0.53125 -1.65625l1.71875 0q0.046875 0.859375 0.6875 1.375q0.65625 0.5 1.703125 0.5q0.984375 0 1.5625 -0.390625q0.59375 -0.390625 0.59375 -1.046875zm5.635254 2.65625l-1.703125 0l0 -10.03125l1.703125 0l0 10.03125zm-1.84375 -12.703125q0 -0.421875 0.25 -0.703125q0.25 -0.28125 0.75 -0.28125q0.515625 0 0.765625 0.28125q0.265625 0.28125 0.265625 0.703125q0 0.421875 -0.265625 0.703125q-0.25 0.265625 -0.765625 0.265625q-0.5 0 -0.75 -0.265625q-0.25 -0.28125 -0.25 -0.703125zm8.54303 11.484375q0.921875 0 1.59375 -0.546875q0.6875 -0.5625 0.765625 -1.390625l1.625 0q-0.046875 0.859375 -0.59375 1.640625q-0.546875 0.765625 -1.46875 1.234375q-0.90625 0.46875 -1.921875 0.46875q-2.046875 0 -3.265625 -1.359375q-1.203125 -1.375 -1.203125 -3.75l0 -0.296875q0 -1.46875 0.53125 -2.609375q0.546875 -1.140625 1.546875 -1.765625q1.0 -0.625 2.375 -0.625q1.6875 0 2.796875 1.015625q1.125 1.0 1.203125 2.609375l-1.625 0q-0.078125 -0.96875 -0.734375 -1.59375q-0.65625 -0.625 -1.640625 -0.625q-1.296875 0 -2.03125 0.9375q-0.71875 0.9375 -0.71875 2.71875l0 0.328125q0 1.734375 0.71875 2.671875q0.71875 0.9375 2.046875 0.9375zm11.577881 -1.4375q0 -0.703125 -0.53125 -1.078125q-0.515625 -0.390625 -1.828125 -0.671875q-1.296875 -0.28125 -2.0625 -0.671875q-0.765625 -0.390625 -1.140625 -0.921875q-0.359375 -0.546875 -0.359375 -1.28125q0 -1.234375 1.046875 -2.078125q1.046875 -0.859375 2.671875 -0.859375q1.703125 0 2.765625 0.875q1.0625 0.875 1.0625 2.25l-1.71875 0q0 -0.703125 -0.609375 -1.203125q-0.59375 -0.515625 -1.5 -0.515625q-0.9375 0 -1.46875 0.40625q-0.53125 0.40625 -0.53125 1.0625q0 0.625 0.484375 0.9375q0.5 0.3125 1.78125 0.609375q1.296875 0.28125 2.09375 0.6875q0.796875 0.390625 1.171875 0.953125q0.390625 0.5625 0.390625 1.375q0 1.34375 -1.078125 2.15625q-1.078125 0.8125 -2.796875 0.8125q-1.203125 0 -2.125 -0.421875q-0.921875 -0.4375 -1.453125 -1.203125q-0.53125 -0.765625 -0.53125 -1.65625l1.71875 0q0.046875 0.859375 0.6875 1.375q0.65625 0.5 1.703125 0.5q0.984375 0 1.5625 -0.390625q0.59375 -0.390625 0.59375 -1.046875z" fill-rule="nonzero"></path><path fill="#ffffff" d="m292.75336 770.0505l0 0c0 -17.044312 13.817169 -30.861511 30.861511 -30.861511l132.35574 0l0 0c8.184967 0 16.034729 3.2514648 21.822388 9.039124c5.787628 5.7876587 9.039124 13.63739 9.039124 21.822388l0 123.44232c0 17.044373 -13.817169 30.861511 -30.861511 30.861511l-132.35574 0c-17.044342 0 -30.861511 -13.817139 -30.861511 -30.861511z" fill-rule="nonzero"></path><path stroke="#000000" stroke-width="1.0" stroke-linejoin="round" stroke-linecap="butt" d="m292.75336 770.0505l0 0c0 -17.044312 13.817169 -30.861511 30.861511 -30.861511l132.35574 0l0 0c8.184967 0 16.034729 3.2514648 21.822388 9.039124c5.787628 5.7876587 9.039124 13.63739 9.039124 21.822388l0 123.44232c0 17.044373 -13.817169 30.861511 -30.861511 30.861511l-132.35574 0c-17.044342 0 -30.861511 -13.817139 -30.861511 -30.861511z" fill-rule="nonzero"></path><path fill="#000000" d="m357.23004 832.676q-2.296875 -0.671875 -3.34375 -1.625q-1.03125 -0.953125 -1.03125 -2.375q0 -1.59375 1.265625 -2.625q1.28125 -1.046875 3.328125 -1.046875q1.390625 0 2.46875 0.53125q1.09375 0.53125 1.6875 1.484375q0.609375 0.953125 0.609375 2.0625l-1.796875 0q0 -1.21875 -0.78125 -1.921875q-0.765625 -0.703125 -2.1875 -0.703125q-1.328125 0 -2.0625 0.59375q-0.734375 0.578125 -0.734375 1.609375q0 0.8125 0.703125 1.390625q0.703125 0.5625 2.375 1.046875q1.6875 0.46875 2.640625 1.046875q0.953125 0.5625 1.40625 1.328125q0.46875 0.75 0.46875 1.78125q0 1.640625 -1.28125 2.640625q-1.28125 0.984375 -3.421875 0.984375q-1.390625 0 -2.609375 -0.53125q-1.203125 -0.53125 -1.859375 -1.453125q-0.640625 -0.9375 -0.640625 -2.125l1.78125 0q0 1.234375 0.90625 1.953125q0.90625 0.703125 2.421875 0.703125q1.40625 0 2.15625 -0.578125q0.75 -0.578125 0.75 -1.5625q0 -1.0 -0.703125 -1.546875q-0.6875 -0.546875 -2.515625 -1.0625zm8.677399 6.015625l-1.703125 0l0 -10.03125l1.703125 0l0 10.03125zm-1.84375 -12.703125q0 -0.421875 0.25 -0.703125q0.25 -0.28125 0.75 -0.28125q0.515625 0 0.765625 0.28125q0.265625 0.28125 0.265625 0.703125q0 0.421875 -0.265625 0.703125q-0.25 0.265625 -0.765625 0.265625q-0.5 0 -0.75 -0.265625q-0.25 -0.28125 -0.25 -0.703125zm6.1211853 2.671875l0.046875 1.109375q1.109375 -1.296875 2.984375 -1.296875q2.109375 0 2.859375 1.609375q0.515625 -0.71875 1.3125 -1.15625q0.796875 -0.453125 1.890625 -0.453125q3.3125 0 3.359375 3.5l0 6.71875l-1.71875 0l0 -6.625q0 -1.078125 -0.5 -1.609375q-0.484375 -0.53125 -1.640625 -0.53125q-0.953125 0 -1.59375 0.578125q-0.625 0.5625 -0.71875 1.53125l0 6.65625l-1.734375 0l0 -6.578125q0 -2.1875 -2.140625 -2.1875q-1.6875 0 -2.3125 1.4375l0 7.328125l-1.703125 0l0 -10.03125l1.609375 0zm30.016937 10.03125l-1.796875 0l0 -6.25l-6.8125 0l0 6.25l-1.78125 0l0 -13.515625l1.78125 0l0 5.8125l6.8125 0l0 -5.8125l1.796875 0l0 13.515625zm2.1904907 -5.109375q0 -1.484375 0.578125 -2.65625q0.578125 -1.171875 1.609375 -1.8125q1.046875 -0.640625 2.375 -0.640625q2.046875 0 3.3125 1.421875q1.265625 1.40625 1.265625 3.765625l0 0.125q0 1.46875 -0.5625 2.640625q-0.5625 1.15625 -1.609375 1.8125q-1.046875 0.640625 -2.390625 0.640625q-2.046875 0 -3.3125 -1.421875q-1.265625 -1.421875 -1.265625 -3.75l0 -0.125zm1.71875 0.203125q0 1.671875 0.78125 2.6875q0.78125 1.0 2.078125 1.0q1.296875 0 2.0625 -1.015625q0.78125 -1.03125 0.78125 -2.875q0 -1.65625 -0.78125 -2.671875q-0.78125 -1.03125 -2.078125 -1.03125q-1.28125 0 -2.0625 1.015625q-0.78125 1.0 -0.78125 2.890625zm15.218018 2.25q0 -0.703125 -0.53125 -1.078125q-0.515625 -0.390625 -1.828125 -0.671875q-1.296875 -0.28125 -2.0625 -0.671875q-0.765625 -0.390625 -1.140625 -0.921875q-0.359375 -0.546875 -0.359375 -1.28125q0 -1.234375 1.046875 -2.078125q1.046875 -0.859375 2.671875 -0.859375q1.703125 0 2.765625 0.875q1.0625 0.875 1.0625 2.25l-1.71875 0q0 -0.703125 -0.609375 -1.203125q-0.59375 -0.515625 -1.5 -0.515625q-0.9375 0 -1.46875 0.40625q-0.53125 0.40625 -0.53125 1.0625q0 0.625 0.484375 0.9375q0.5 0.3125 1.78125 0.609375q1.296875 0.28125 2.09375 0.6875q0.796875 0.390625 1.171875 0.953125q0.390625 0.5625 0.390625 1.375q0 1.34375 -1.078125 2.15625q-1.078125 0.8125 -2.796875 0.8125q-1.203125 0 -2.125 -0.421875q-0.921875 -0.4375 -1.453125 -1.203125q-0.53125 -0.765625 -0.53125 -1.65625l1.71875 0q0.046875 0.859375 0.6875 1.375q0.65625 0.5 1.703125 0.5q0.984375 0 1.5625 -0.390625q0.59375 -0.390625 0.59375 -1.046875zm6.104004 -9.8125l0 2.4375l1.875 0l0 1.3125l-1.875 0l0 6.234375q0 0.59375 0.25 0.90625q0.25 0.296875 0.859375 0.296875q0.296875 0 0.8125 -0.109375l0 1.390625q-0.671875 0.1875 -1.3125 0.1875q-1.15625 0 -1.75 -0.6875q-0.578125 -0.703125 -0.578125 -1.984375l0 -6.234375l-1.828125 0l0 -1.3125l1.828125 0l0 -2.4375l1.71875 0z" fill-rule="nonzero"></path><path fill="#ffffff" d="m502.49692 559.02545l0 0c0 -17.041443 13.81485 -30.856262 30.856293 -30.856262l132.36621 0l0 0c8.183594 0 16.031982 3.2509155 21.818665 9.037598c5.786682 5.786682 9.037598 13.635071 9.037598 21.818665l0 123.42139c0 17.041443 -13.814819 30.856262 -30.856262 30.856262l-132.36621 0c-17.041443 0 -30.856293 -13.814819 -30.856293 -30.856262z" fill-rule="nonzero"></path><path stroke="#000000" stroke-width="1.0" stroke-linejoin="round" stroke-linecap="butt" d="m502.49692 559.02545l0 0c0 -17.041443 13.81485 -30.856262 30.856293 -30.856262l132.36621 0l0 0c8.183594 0 16.031982 3.2509155 21.818665 9.037598c5.786682 5.786682 9.037598 13.635071 9.037598 21.818665l0 123.42139c0 17.041443 -13.814819 30.856262 -30.856262 30.856262l-132.36621 0c-17.041443 0 -30.856293 -13.814819 -30.856293 -30.856262z" fill-rule="nonzero"></path><path fill="#000000" d="m553.2352 621.4061l-5.859375 0l0 4.796875l6.8125 0l0 1.453125l-8.59375 0l0 -13.515625l8.5 0l0 1.46875l-6.71875 0l0 4.34375l5.859375 0l0 1.453125zm6.0097046 3.921875l2.484375 -7.703125l1.75 0l-3.59375 10.03125l-1.3125 0l-3.625 -10.03125l1.75 0l2.546875 7.703125zm9.895996 2.515625q-2.046875 0 -3.328125 -1.34375q-1.28125 -1.34375 -1.28125 -3.578125l0 -0.328125q0 -1.484375 0.5625 -2.65625q0.578125 -1.171875 1.59375 -1.828125q1.03125 -0.671875 2.234375 -0.671875q1.953125 0 3.03125 1.296875q1.09375 1.28125 1.09375 3.6875l0 0.703125l-6.796875 0q0.03125 1.484375 0.859375 2.40625q0.84375 0.90625 2.125 0.90625q0.90625 0 1.53125 -0.359375q0.640625 -0.375 1.109375 -0.984375l1.046875 0.8125q-1.265625 1.9375 -3.78125 1.9375zm-0.21875 -9.0q-1.03125 0 -1.75 0.765625q-0.703125 0.75 -0.859375 2.109375l5.015625 0l0 -0.125q-0.0625 -1.3125 -0.703125 -2.03125q-0.625 -0.71875 -1.703125 -0.71875zm7.555725 -1.21875l0.0625 1.25q1.140625 -1.4375 3.0 -1.4375q3.1875 0 3.203125 3.578125l0 6.640625l-1.703125 0l0 -6.640625q-0.015625 -1.09375 -0.5 -1.609375q-0.484375 -0.515625 -1.515625 -0.515625q-0.84375 0 -1.46875 0.453125q-0.625 0.4375 -0.984375 1.15625l0 7.15625l-1.71875 0l0 -10.03125l1.625 0zm10.996826 -2.4375l0 2.4375l1.875 0l0 1.3125l-1.875 0l0 6.234375q0 0.59375 0.25 0.90625q0.25 0.296875 0.859375 0.296875q0.296875 0 0.8125 -0.109375l0 1.390625q-0.671875 0.1875 -1.3125 0.1875q-1.15625 0 -1.75 -0.6875q-0.578125 -0.703125 -0.578125 -1.984375l0 -6.234375l-1.828125 0l0 -1.3125l1.828125 0l0 -2.4375l1.71875 0zm12.634644 6.453125q-2.296875 -0.671875 -3.34375 -1.625q-1.03125 -0.953125 -1.03125 -2.375q0 -1.59375 1.265625 -2.625q1.28125 -1.046875 3.328125 -1.046875q1.390625 0 2.46875 0.53125q1.09375 0.53125 1.6875 1.484375q0.609375 0.953125 0.609375 2.0625l-1.796875 0q0 -1.21875 -0.78125 -1.921875q-0.765625 -0.703125 -2.1875 -0.703125q-1.328125 0 -2.0625 0.59375q-0.734375 0.578125 -0.734375 1.609375q0 0.8125 0.703125 1.390625q0.703125 0.5625 2.375 1.046875q1.6875 0.46875 2.640625 1.046875q0.953125 0.5625 1.40625 1.328125q0.46875 0.75 0.46875 1.78125q0 1.640625 -1.28125 2.640625q-1.28125 0.984375 -3.421875 0.984375q-1.390625 0 -2.609375 -0.53125q-1.203125 -0.53125 -1.859375 -1.453125q-0.640625 -0.9375 -0.640625 -2.125l1.78125 0q0 1.234375 0.90625 1.953125q0.90625 0.703125 2.421875 0.703125q1.40625 0 2.15625 -0.578125q0.75 -0.578125 0.75 -1.5625q0 -1.0 -0.703125 -1.546875q-0.6875 -0.546875 -2.515625 -1.0625zm10.989929 6.203125q-2.046875 0 -3.328125 -1.34375q-1.28125 -1.34375 -1.28125 -3.578125l0 -0.328125q0 -1.484375 0.5625 -2.65625q0.578125 -1.171875 1.59375 -1.828125q1.03125 -0.671875 2.234375 -0.671875q1.953125 0 3.03125 1.296875q1.09375 1.28125 1.09375 3.6875l0 0.703125l-6.796875 0q0.03125 1.484375 0.859375 2.40625q0.84375 0.90625 2.125 0.90625q0.90625 0 1.53125 -0.359375q0.640625 -0.375 1.109375 -0.984375l1.046875 0.8125q-1.265625 1.9375 -3.78125 1.9375zm-0.21875 -9.0q-1.03125 0 -1.75 0.765625q-0.703125 0.75 -0.859375 2.109375l5.015625 0l0 -0.125q-0.0625 -1.3125 -0.703125 -2.03125q-0.625 -0.71875 -1.703125 -0.71875zm10.790039 0.3125q-0.390625 -0.0625 -0.84375 -0.0625q-1.6875 0 -2.296875 1.4375l0 7.125l-1.71875 0l0 -10.03125l1.671875 0l0.03125 1.15625q0.84375 -1.34375 2.390625 -1.34375q0.5 0 0.765625 0.125l0 1.59375zm4.765991 6.171875l2.484375 -7.703125l1.75 0l-3.59375 10.03125l-1.3125 0l-3.625 -10.03125l1.75 0l2.546875 7.703125zm7.583496 2.328125l-1.703125 0l0 -10.03125l1.703125 0l0 10.03125zm-1.84375 -12.703125q0 -0.421875 0.25 -0.703125q0.25 -0.28125 0.75 -0.28125q0.515625 0 0.765625 0.28125q0.265625 0.28125 0.265625 0.703125q0 0.421875 -0.265625 0.703125q-0.25 0.265625 -0.765625 0.265625q-0.5 0 -0.75 -0.265625q-0.25 -0.28125 -0.25 -0.703125zm8.543091 11.484375q0.921875 0 1.59375 -0.546875q0.6875 -0.5625 0.765625 -1.390625l1.625 0q-0.046875 0.859375 -0.59375 1.640625q-0.546875 0.765625 -1.46875 1.234375q-0.90625 0.46875 -1.921875 0.46875q-2.046875 0 -3.265625 -1.359375q-1.203125 -1.375 -1.203125 -3.75l0 -0.296875q0 -1.46875 0.53125 -2.609375q0.546875 -1.140625 1.546875 -1.765625q1.0 -0.625 2.375 -0.625q1.6875 0 2.796875 1.015625q1.125 1.0 1.203125 2.609375l-1.625 0q-0.078125 -0.96875 -0.734375 -1.59375q-0.65625 -0.625 -1.640625 -0.625q-1.296875 0 -2.03125 0.9375q-0.71875 0.9375 -0.71875 2.71875l0 0.328125q0 1.734375 0.71875 2.671875q0.71875 0.9375 2.046875 0.9375zm9.906006 1.40625q-2.046875 0 -3.328125 -1.34375q-1.28125 -1.34375 -1.28125 -3.578125l0 -0.328125q0 -1.484375 0.5625 -2.65625q0.578125 -1.171875 1.59375 -1.828125q1.03125 -0.671875 2.234375 -0.671875q1.953125 0 3.03125 1.296875q1.09375 1.28125 1.09375 3.6875l0 0.703125l-6.796875 0q0.03125 1.484375 0.859375 2.40625q0.84375 0.90625 2.125 0.90625q0.90625 0 1.53125 -0.359375q0.640625 -0.375 1.109375 -0.984375l1.046875 0.8125q-1.265625 1.9375 -3.78125 1.9375zm-0.21875 -9.0q-1.03125 0 -1.75 0.765625q-0.703125 0.75 -0.859375 2.109375l5.015625 0l0 -0.125q-0.0625 -1.3125 -0.703125 -2.03125q-0.625 -0.71875 -1.703125 -0.71875z" fill-rule="nonzero"></path><path fill="#ffffff" d="m292.79813 559.02545l0 0c0 -17.041443 13.814819 -30.856262 30.856262 -30.856262l132.36621 0l0 0c8.183594 0 16.032013 3.2509155 21.818665 9.037598c5.786682 5.786682 9.037598 13.635071 9.037598 21.818665l0 123.42139c0 17.041443 -13.814819 30.856262 -30.856262 30.856262l-132.36621 0c-17.041443 0 -30.856262 -13.814819 -30.856262 -30.856262z" fill-rule="nonzero"></path><path stroke="#000000" stroke-width="1.0" stroke-linejoin="round" stroke-linecap="butt" d="m292.79813 559.02545l0 0c0 -17.041443 13.814819 -30.856262 30.856262 -30.856262l132.36621 0l0 0c8.183594 0 16.032013 3.2509155 21.818665 9.037598c5.786682 5.786682 9.037598 13.635071 9.037598 21.818665l0 123.42139c0 17.041443 -13.814819 30.856262 -30.856262 30.856262l-132.36621 0c-17.041443 0 -30.856262 -13.814819 -30.856262 -30.856262z" fill-rule="nonzero"></path><path fill="#000000" d="m324.84357 622.1874l-3.171875 0l0 5.46875l-1.78125 0l0 -13.515625l4.46875 0q2.28125 0 3.5 1.046875q1.234375 1.03125 1.234375 3.03125q0 1.25 -0.6875 2.1875q-0.671875 0.9375 -1.890625 1.40625l3.171875 5.734375l0 0.109375l-1.90625 0l-2.9375 -5.46875zm-3.171875 -1.453125l2.75 0q1.3125 0 2.09375 -0.6875q0.796875 -0.6875 0.796875 -1.828125q0 -1.265625 -0.75 -1.921875q-0.75 -0.671875 -2.15625 -0.6875l-2.734375 0l0 5.125zm17.346436 0.671875l-5.859375 0l0 4.796875l6.8125 0l0 1.453125l-8.59375 0l0 -13.515625l8.5 0l0 1.46875l-6.71875 0l0 4.34375l5.859375 0l0 1.453125zm6.9472046 0.234375q-2.296875 -0.671875 -3.34375 -1.625q-1.03125 -0.953125 -1.03125 -2.375q0 -1.59375 1.265625 -2.625q1.28125 -1.046875 3.328125 -1.046875q1.390625 0 2.46875 0.53125q1.09375 0.53125 1.6875 1.484375q0.609375 0.953125 0.609375 2.0625l-1.796875 0q0 -1.21875 -0.78125 -1.921875q-0.765625 -0.703125 -2.1875 -0.703125q-1.328125 0 -2.0625 0.59375q-0.734375 0.578125 -0.734375 1.609375q0 0.8125 0.703125 1.390625q0.703125 0.5625 2.375 1.046875q1.6875 0.46875 2.640625 1.046875q0.953125 0.5625 1.40625 1.328125q0.46875 0.75 0.46875 1.78125q0 1.640625 -1.28125 2.640625q-1.28125 0.984375 -3.421875 0.984375q-1.390625 0 -2.609375 -0.53125q-1.203125 -0.53125 -1.859375 -1.453125q-0.640625 -0.9375 -0.640625 -2.125l1.78125 0q0 1.234375 0.90625 1.953125q0.90625 0.703125 2.421875 0.703125q1.40625 0 2.15625 -0.578125q0.75 -0.578125 0.75 -1.5625q0 -1.0 -0.703125 -1.546875q-0.6875 -0.546875 -2.515625 -1.0625zm16.42743 -6.03125l-4.34375 0l0 12.046875l-1.78125 0l0 -12.046875l-4.328125 0l0 -1.46875l10.453125 0l0 1.46875zm13.875305 8.515625l-5.65625 0l-1.28125 3.53125l-1.828125 0l5.15625 -13.515625l1.5625 0l5.15625 13.515625l-1.828125 0l-1.28125 -3.53125zm-5.125 -1.453125l4.59375 0l-2.296875 -6.328125l-2.296875 6.328125zm11.607788 -0.296875l0 5.28125l-1.78125 0l0 -13.515625l4.984375 0q2.21875 0 3.46875 1.140625q1.265625 1.125 1.265625 3.0q0 1.96875 -1.234375 3.03125q-1.21875 1.0625 -3.515625 1.0625l-3.1875 0zm0 -1.46875l3.203125 0q1.4375 0 2.1875 -0.671875q0.765625 -0.671875 0.765625 -1.9375q0 -1.203125 -0.765625 -1.921875q-0.75 -0.734375 -2.078125 -0.765625l-3.3125 0l0 5.296875zm11.910095 6.75l-1.78125 0l0 -13.515625l1.78125 0l0 13.515625zm11.755005 -6.015625q-2.296875 -0.671875 -3.34375 -1.625q-1.03125 -0.953125 -1.03125 -2.375q0 -1.59375 1.265625 -2.625q1.28125 -1.046875 3.328125 -1.046875q1.390625 0 2.46875 0.53125q1.09375 0.53125 1.6875 1.484375q0.609375 0.953125 0.609375 2.0625l-1.796875 0q0 -1.21875 -0.78125 -1.921875q-0.765625 -0.703125 -2.1875 -0.703125q-1.328125 0 -2.0625 0.59375q-0.734375 0.578125 -0.734375 1.609375q0 0.8125 0.703125 1.390625q0.703125 0.5625 2.375 1.046875q1.6875 0.46875 2.640625 1.046875q0.953125 0.5625 1.40625 1.328125q0.46875 0.75 0.46875 1.78125q0 1.640625 -1.28125 2.640625q-1.28125 0.984375 -3.421875 0.984375q-1.390625 0 -2.609375 -0.53125q-1.203125 -0.53125 -1.859375 -1.453125q-0.640625 -0.9375 -0.640625 -2.125l1.78125 0q0 1.234375 0.90625 1.953125q0.90625 0.703125 2.421875 0.703125q1.40625 0 2.15625 -0.578125q0.75 -0.578125 0.75 -1.5625q0 -1.0 -0.703125 -1.546875q-0.6875 -0.546875 -2.515625 -1.0625zm10.989929 6.203125q-2.046875 0 -3.328125 -1.34375q-1.28125 -1.34375 -1.28125 -3.578125l0 -0.328125q0 -1.484375 0.5625 -2.65625q0.578125 -1.171875 1.59375 -1.828125q1.03125 -0.671875 2.234375 -0.671875q1.953125 0 3.03125 1.296875q1.09375 1.28125 1.09375 3.6875l0 0.703125l-6.796875 0q0.03125 1.484375 0.859375 2.40625q0.84375 0.90625 2.125 0.90625q0.90625 0 1.53125 -0.359375q0.640625 -0.375 1.109375 -0.984375l1.046875 0.8125q-1.265625 1.9375 -3.78125 1.9375zm-0.21875 -9.0q-1.03125 0 -1.75 0.765625q-0.703125 0.75 -0.859375 2.109375l5.015625 0l0 -0.125q-0.0625 -1.3125 -0.703125 -2.03125q-0.625 -0.71875 -1.703125 -0.71875zm10.790039 0.3125q-0.390625 -0.0625 -0.84375 -0.0625q-1.6875 0 -2.296875 1.4375l0 7.125l-1.71875 0l0 -10.03125l1.671875 0l0.03125 1.15625q0.84375 -1.34375 2.390625 -1.34375q0.5 0 0.765625 0.125l0 1.59375zm4.7660217 6.171875l2.484375 -7.703125l1.75 0l-3.59375 10.03125l-1.3125 0l-3.625 -10.03125l1.75 0l2.546875 7.703125zm7.583496 2.328125l-1.703125 0l0 -10.03125l1.703125 0l0 10.03125zm-1.84375 -12.703125q0 -0.421875 0.25 -0.703125q0.25 -0.28125 0.75 -0.28125q0.515625 0 0.765625 0.28125q0.265625 0.28125 0.265625 0.703125q0 0.421875 -0.265625 0.703125q-0.25 0.265625 -0.765625 0.265625q-0.5 0 -0.75 -0.265625q-0.25 -0.28125 -0.25 -0.703125zm8.54303 11.484375q0.921875 0 1.59375 -0.546875q0.6875 -0.5625 0.765625 -1.390625l1.625 0q-0.046875 0.859375 -0.59375 1.640625q-0.546875 0.765625 -1.46875 1.234375q-0.90625 0.46875 -1.921875 0.46875q-2.046875 0 -3.265625 -1.359375q-1.203125 -1.375 -1.203125 -3.75l0 -0.296875q0 -1.46875 0.53125 -2.609375q0.546875 -1.140625 1.546875 -1.765625q1.0 -0.625 2.375 -0.625q1.6875 0 2.796875 1.015625q1.125 1.0 1.203125 2.609375l-1.625 0q-0.078125 -0.96875 -0.734375 -1.59375q-0.65625 -0.625 -1.640625 -0.625q-1.296875 0 -2.03125 0.9375q-0.71875 0.9375 -0.71875 2.71875l0 0.328125q0 1.734375 0.71875 2.671875q0.71875 0.9375 2.046875 0.9375zm9.906006 1.40625q-2.046875 0 -3.328125 -1.34375q-1.28125 -1.34375 -1.28125 -3.578125l0 -0.328125q0 -1.484375 0.5625 -2.65625q0.578125 -1.171875 1.59375 -1.828125q1.03125 -0.671875 2.234375 -0.671875q1.953125 0 3.03125 1.296875q1.09375 1.28125 1.09375 3.6875l0 0.703125l-6.796875 0q0.03125 1.484375 0.859375 2.40625q0.84375 0.90625 2.125 0.90625q0.90625 0 1.53125 -0.359375q0.640625 -0.375 1.109375 -0.984375l1.046875 0.8125q-1.265625 1.9375 -3.78125 1.9375zm-0.21875 -9.0q-1.03125 0 -1.75 0.765625q-0.703125 0.75 -0.859375 2.109375l5.015625 0l0 -0.125q-0.0625 -1.3125 -0.703125 -2.03125q-0.625 -0.71875 -1.703125 -0.71875z" fill-rule="nonzero"></path><path fill="#ffffff" d="m83.09932 559.02545l0 0c0 -17.041443 13.814812 -30.856262 30.856255 -30.856262l132.36621 0l0 0c8.183594 0 16.031998 3.2509155 21.81868 9.037598c5.7866516 5.786682 9.037598 13.635071 9.037598 21.818665l0 123.42139c0 17.041443 -13.814819 30.856262 -30.856277 30.856262l-132.36621 0c-17.041443 0 -30.856255 -13.814819 -30.856255 -30.856262z" fill-rule="nonzero"></path><path stroke="#000000" stroke-width="1.0" stroke-linejoin="round" stroke-linecap="butt" d="m83.09932 559.02545l0 0c0 -17.041443 13.814812 -30.856262 30.856255 -30.856262l132.36621 0l0 0c8.183594 0 16.031998 3.2509155 21.81868 9.037598c5.7866516 5.786682 9.037598 13.635071 9.037598 21.818665l0 123.42139c0 17.041443 -13.814819 30.856262 -30.856277 30.856262l-132.36621 0c-17.041443 0 -30.856255 -13.814819 -30.856255 -30.856262z" fill-rule="nonzero"></path><path fill="#000000" d="m120.58909 610.6405q-2.296875 -0.671875 -3.34375 -1.625q-1.03125 -0.953125 -1.03125 -2.375q0 -1.59375 1.265625 -2.625q1.28125 -1.046875 3.328125 -1.046875q1.390625 0 2.46875 0.53125q1.09375 0.53125 1.6875 1.484375q0.609375 0.953125 0.609375 2.0625l-1.796875 0q0 -1.21875 -0.78125 -1.921875q-0.765625 -0.703125 -2.1875 -0.703125q-1.328125 0 -2.0625 0.59375q-0.734375 0.578125 -0.734375 1.609375q0 0.8125 0.703125 1.390625q0.703125 0.5625 2.375 1.046875q1.6875 0.46875 2.640625 1.046875q0.953125 0.5625 1.40625 1.328125q0.46875 0.75 0.46875 1.78125q0 1.640625 -1.28125 2.640625q-1.28125 0.984375 -3.421875 0.984375q-1.390625 0 -2.609375 -0.53125q-1.203125 -0.53125 -1.859375 -1.453125q-0.640625 -0.9375 -0.640625 -2.125l1.78125 0q0 1.234375 0.90625 1.953125q0.90625 0.703125 2.421875 0.703125q1.40625 0 2.15625 -0.578125q0.75 -0.578125 0.75 -1.5625q0 -1.0 -0.703125 -1.546875q-0.6875 -0.546875 -2.515625 -1.0625zm9.146172 -6.453125l0 2.4375l1.875 0l0 1.3125l-1.875 0l0 6.234375q0 0.59375 0.25 0.90625q0.25 0.296875 0.859375 0.296875q0.296875 0 0.8125 -0.109375l0 1.390625q-0.671875 0.1875 -1.3125 0.1875q-1.15625 0 -1.75 -0.6875q-0.578125 -0.703125 -0.578125 -1.984375l0 -6.234375l-1.8281326 0l0 -1.3125l1.8281326 0l0 -2.4375l1.71875 0zm9.969254 12.46875q-0.15625 -0.296875 -0.25 -1.0625q-1.1875 1.25 -2.859375 1.25q-1.484375 0 -2.4375 -0.84375q-0.9375 -0.84375 -0.9375 -2.125q0 -1.5625 1.1875 -2.4375q1.1875 -0.875 3.359375 -0.875l1.671875 0l0 -0.78125q0 -0.90625 -0.546875 -1.4375q-0.53125 -0.53125 -1.578125 -0.53125q-0.921875 0 -1.546875 0.46875q-0.625 0.46875 -0.625 1.125l-1.71875 0q0 -0.75 0.53125 -1.453125q0.53125 -0.703125 1.4375 -1.109375q0.921875 -0.40625 2.015625 -0.40625q1.734375 0 2.71875 0.875q0.984375 0.859375 1.015625 2.375l0 4.625q0 1.375 0.359375 2.1875l0 0.15625l-1.796875 0zm-2.859375 -1.3125q0.8125 0 1.53125 -0.40625q0.734375 -0.421875 1.0625 -1.09375l0 -2.0625l-1.359375 0q-3.140625 0 -3.140625 1.84375q0 0.8125 0.53125 1.265625q0.53125 0.453125 1.375 0.453125zm9.132355 -11.15625l0 2.4375l1.875 0l0 1.3125l-1.875 0l0 6.234375q0 0.59375 0.25 0.90625q0.25 0.296875 0.859375 0.296875q0.296875 0 0.8125 -0.109375l0 1.390625q-0.671875 0.1875 -1.3125 0.1875q-1.15625 0 -1.75 -0.6875q-0.578125 -0.703125 -0.578125 -1.984375l0 -6.234375l-1.828125 0l0 -1.3125l1.828125 0l0 -2.4375l1.71875 0zm5.6255035 12.46875l-1.703125 0l0 -10.03125l1.703125 0l0 10.03125zm-1.84375 -12.703125q0 -0.421875 0.25 -0.703125q0.25 -0.28125 0.75 -0.28125q0.515625 0 0.765625 0.28125q0.265625 0.28125 0.265625 0.703125q0 0.421875 -0.265625 0.703125q-0.25 0.265625 -0.765625 0.265625q-0.5 0 -0.75 -0.265625q-0.25 -0.28125 -0.25 -0.703125zm8.543045 11.484375q0.921875 0 1.59375 -0.546875q0.6875 -0.5625 0.765625 -1.390625l1.625 0q-0.046875 0.859375 -0.59375 1.640625q-0.546875 0.765625 -1.46875 1.234375q-0.90625 0.46875 -1.921875 0.46875q-2.046875 0 -3.265625 -1.359375q-1.203125 -1.375 -1.203125 -3.75l0 -0.296875q0 -1.46875 0.53125 -2.609375q0.546875 -1.140625 1.546875 -1.765625q1.0 -0.625 2.375 -0.625q1.6875 0 2.796875 1.015625q1.125 1.0 1.203125 2.609375l-1.625 0q-0.078125 -0.96875 -0.734375 -1.59375q-0.65625 -0.625 -1.640625 -0.625q-1.296875 0 -2.03125 0.9375q-0.71875 0.9375 -0.71875 2.71875l0 0.328125q0 1.734375 0.71875 2.671875q0.71875 0.9375 2.046875 0.9375zm15.571396 -4.25l-3.171875 0l0 5.46875l-1.78125 0l0 -13.515625l4.46875 0q2.28125 0 3.5 1.046875q1.234375 1.03125 1.234375 3.03125q0 1.25 -0.6875 2.1875q-0.671875 0.9375 -1.890625 1.40625l3.171875 5.734375l0 0.109375l-1.90625 0l-2.9375 -5.46875zm-3.171875 -1.453125l2.75 0q1.3125 0 2.09375 -0.6875q0.796875 -0.6875 0.796875 -1.828125q0 -1.265625 -0.75 -1.921875q-0.75 -0.671875 -2.15625 -0.6875l-2.734375 0l0 5.125zm13.612076 7.109375q-2.046875 0 -3.328125 -1.34375q-1.28125 -1.34375 -1.28125 -3.578125l0 -0.328125q0 -1.484375 0.5625 -2.65625q0.578125 -1.171875 1.59375 -1.828125q1.03125 -0.671875 2.234375 -0.671875q1.953125 0 3.03125 1.296875q1.09375 1.28125 1.09375 3.6875l0 0.703125l-6.796875 0q0.03125 1.484375 0.859375 2.40625q0.84375 0.90625 2.125 0.90625q0.90625 0 1.53125 -0.359375q0.640625 -0.375 1.109375 -0.984375l1.046875 0.8125q-1.265625 1.9375 -3.78125 1.9375zm-0.21875 -9.0q-1.03125 0 -1.75 0.765625q-0.703125 0.75 -0.859375 2.109375l5.015625 0l0 -0.125q-0.0625 -1.3125 -0.703125 -2.03125q-0.625 -0.71875 -1.703125 -0.71875zm11.774429 6.15625q0 -0.703125 -0.53125 -1.078125q-0.515625 -0.390625 -1.828125 -0.671875q-1.296875 -0.28125 -2.0625 -0.671875q-0.765625 -0.390625 -1.140625 -0.921875q-0.359375 -0.546875 -0.359375 -1.28125q0 -1.234375 1.046875 -2.078125q1.046875 -0.859375 2.671875 -0.859375q1.703125 0 2.765625 0.875q1.0625 0.875 1.0625 2.25l-1.71875 0q0 -0.703125 -0.609375 -1.203125q-0.59375 -0.515625 -1.5 -0.515625q-0.9375 0 -1.46875 0.40625q-0.53125 0.40625 -0.53125 1.0625q0 0.625 0.484375 0.9375q0.5 0.3125 1.78125 0.609375q1.296875 0.28125 2.09375 0.6875q0.796875 0.390625 1.171875 0.953125q0.390625 0.5625 0.390625 1.375q0 1.34375 -1.078125 2.15625q-1.078125 0.8125 -2.796875 0.8125q-1.203125 0 -2.125 -0.421875q-0.921875 -0.4375 -1.453125 -1.203125q-0.53125 -0.765625 -0.53125 -1.65625l1.71875 0q0.046875 0.859375 0.6875 1.375q0.65625 0.5 1.703125 0.5q0.984375 0 1.5625 -0.390625q0.59375 -0.390625 0.59375 -1.046875zm3.322754 -2.453125q0 -1.484375 0.578125 -2.65625q0.578125 -1.171875 1.609375 -1.8125q1.046875 -0.640625 2.375 -0.640625q2.046875 0 3.3125 1.421875q1.265625 1.40625 1.265625 3.765625l0 0.125q0 1.46875 -0.5625 2.640625q-0.5625 1.15625 -1.609375 1.8125q-1.046875 0.640625 -2.390625 0.640625q-2.046875 0 -3.3125 -1.421875q-1.265625 -1.421875 -1.265625 -3.75l0 -0.125zm1.71875 0.203125q0 1.671875 0.78125 2.6875q0.78125 1.0 2.078125 1.0q1.296875 0 2.0625 -1.015625q0.78125 -1.03125 0.78125 -2.875q0 -1.65625 -0.78125 -2.671875q-0.78125 -1.03125 -2.078125 -1.03125q-1.28125 0 -2.0625 1.015625q-0.78125 1.0 -0.78125 2.890625zm15.577393 3.90625q-1.0 1.1875 -2.9375 1.1875q-1.609375 0 -2.453125 -0.921875q-0.84375 -0.9375 -0.84375 -2.765625l0 -6.53125l1.71875 0l0 6.484375q0 2.28125 1.84375 2.28125q1.96875 0 2.625 -1.46875l0 -7.296875l1.71875 0l0 10.03125l-1.640625 0l-0.03125 -1.0zm8.940872 -7.5q-0.390625 -0.0625 -0.84375 -0.0625q-1.6875 0 -2.296875 1.4375l0 7.125l-1.71875 0l0 -10.03125l1.671875 0l0.03125 1.15625q0.84375 -1.34375 2.390625 -1.34375q0.5 0 0.765625 0.125l0 1.59375zm5.4847565 7.28125q0.921875 0 1.59375 -0.546875q0.6875 -0.5625 0.765625 -1.390625l1.625 0q-0.046875 0.859375 -0.59375 1.640625q-0.546875 0.765625 -1.46875 1.234375q-0.90625 0.46875 -1.921875 0.46875q-2.046875 0 -3.265625 -1.359375q-1.203125 -1.375 -1.203125 -3.75l0 -0.296875q0 -1.46875 0.53125 -2.609375q0.546875 -1.140625 1.546875 -1.765625q1.0 -0.625 2.375 -0.625q1.6875 0 2.796875 1.015625q1.125 1.0 1.203125 2.609375l-1.625 0q-0.078125 -0.96875 -0.734375 -1.59375q-0.65625 -0.625 -1.640625 -0.625q-1.296875 0 -2.03125 0.9375q-0.71875 0.9375 -0.71875 2.71875l0 0.328125q0 1.734375 0.71875 2.671875q0.71875 0.9375 2.046875 0.9375zm9.906006 1.40625q-2.046875 0 -3.328125 -1.34375q-1.28125 -1.34375 -1.28125 -3.578125l0 -0.328125q0 -1.484375 0.5625 -2.65625q0.578125 -1.171875 1.59375 -1.828125q1.03125 -0.671875 2.234375 -0.671875q1.953125 0 3.03125 1.296875q1.09375 1.28125 1.09375 3.6875l0 0.703125l-6.796875 0q0.03125 1.484375 0.859375 2.40625q0.84375 0.90625 2.125 0.90625q0.90625 0 1.53125 -0.359375q0.640625 -0.375 1.109375 -0.984375l1.046875 0.8125q-1.265625 1.9375 -3.78125 1.9375zm-0.21875 -9.0q-1.03125 0 -1.75 0.765625q-0.703125 0.75 -0.859375 2.109375l5.015625 0l0 -0.125q-0.0625 -1.3125 -0.703125 -2.03125q-0.625 -0.71875 -1.703125 -0.71875z" fill-rule="nonzero"></path><path fill="#000000" d="m155.44658 632.6405q-2.296875 -0.671875 -3.34375 -1.625q-1.03125 -0.953125 -1.03125 -2.375q0 -1.59375 1.265625 -2.625q1.28125 -1.046875 3.328125 -1.046875q1.390625 0 2.46875 0.53125q1.09375 0.53125 1.6875 1.484375q0.609375 0.953125 0.609375 2.0625l-1.796875 0q0 -1.21875 -0.78125 -1.921875q-0.765625 -0.703125 -2.1875 -0.703125q-1.328125 0 -2.0625 0.59375q-0.734375 0.578125 -0.734375 1.609375q0 0.8125 0.703125 1.390625q0.703125 0.5625 2.375 1.046875q1.6875 0.46875 2.640625 1.046875q0.953125 0.5625 1.40625 1.328125q0.46875 0.75 0.46875 1.78125q0 1.640625 -1.28125 2.640625q-1.28125 0.984375 -3.421875 0.984375q-1.390625 0 -2.609375 -0.53125q-1.203125 -0.53125 -1.859375 -1.453125q-0.640625 -0.9375 -0.640625 -2.125l1.78125 0q0 1.234375 0.90625 1.953125q0.90625 0.703125 2.421875 0.703125q1.40625 0 2.15625 -0.578125q0.75 -0.578125 0.75 -1.5625q0 -1.0 -0.703125 -1.546875q-0.6875 -0.546875 -2.515625 -1.0625zm10.989914 6.203125q-2.046875 0 -3.328125 -1.34375q-1.28125 -1.34375 -1.28125 -3.578125l0 -0.328125q0 -1.484375 0.5625 -2.65625q0.578125 -1.171875 1.59375 -1.828125q1.03125 -0.671875 2.234375 -0.671875q1.953125 0 3.03125 1.296875q1.09375 1.28125 1.09375 3.6875l0 0.703125l-6.796875 0q0.03125 1.484375 0.859375 2.40625q0.84375 0.90625 2.125 0.90625q0.90625 0 1.53125 -0.359375q0.640625 -0.375 1.109375 -0.984375l1.046875 0.8125q-1.265625 1.9375 -3.78125 1.9375zm-0.21875 -9.0q-1.03125 0 -1.75 0.765625q-0.703125 0.75 -0.859375 2.109375l5.015625 0l0 -0.125q-0.0625 -1.3125 -0.703125 -2.03125q-0.625 -0.71875 -1.703125 -0.71875zm10.790054 0.3125q-0.390625 -0.0625 -0.84375 -0.0625q-1.6875 0 -2.296875 1.4375l0 7.125l-1.71875 0l0 -10.03125l1.671875 0l0.03125 1.15625q0.84375 -1.34375 2.390625 -1.34375q0.5 0 0.765625 0.125l0 1.59375zm4.7660065 6.171875l2.484375 -7.703125l1.75 0l-3.59375 10.03125l-1.3125 0l-3.625 -10.03125l1.75 0l2.546875 7.703125zm7.583496 2.328125l-1.703125 0l0 -10.03125l1.703125 0l0 10.03125zm-1.84375 -12.703125q0 -0.421875 0.25 -0.703125q0.25 -0.28125 0.75 -0.28125q0.515625 0 0.765625 0.28125q0.265625 0.28125 0.265625 0.703125q0 0.421875 -0.265625 0.703125q-0.25 0.265625 -0.765625 0.265625q-0.5 0 -0.75 -0.265625q-0.25 -0.28125 -0.25 -0.703125zm8.543045 11.484375q0.921875 0 1.59375 -0.546875q0.6875 -0.5625 0.765625 -1.390625l1.625 0q-0.046875 0.859375 -0.59375 1.640625q-0.546875 0.765625 -1.46875 1.234375q-0.90625 0.46875 -1.921875 0.46875q-2.046875 0 -3.265625 -1.359375q-1.203125 -1.375 -1.203125 -3.75l0 -0.296875q0 -1.46875 0.53125 -2.609375q0.546875 -1.140625 1.546875 -1.765625q1.0 -0.625 2.375 -0.625q1.6875 0 2.796875 1.015625q1.125 1.0 1.203125 2.609375l-1.625 0q-0.078125 -0.96875 -0.734375 -1.59375q-0.65625 -0.625 -1.640625 -0.625q-1.296875 0 -2.03125 0.9375q-0.71875 0.9375 -0.71875 2.71875l0 0.328125q0 1.734375 0.71875 2.671875q0.71875 0.9375 2.046875 0.9375zm9.906006 1.40625q-2.046875 0 -3.328125 -1.34375q-1.28125 -1.34375 -1.28125 -3.578125l0 -0.328125q0 -1.484375 0.5625 -2.65625q0.578125 -1.171875 1.59375 -1.828125q1.03125 -0.671875 2.234375 -0.671875q1.953125 0 3.03125 1.296875q1.09375 1.28125 1.09375 3.6875l0 0.703125l-6.796875 0q0.03125 1.484375 0.859375 2.40625q0.84375 0.90625 2.125 0.90625q0.90625 0 1.53125 -0.359375q0.640625 -0.375 1.109375 -0.984375l1.046875 0.8125q-1.265625 1.9375 -3.78125 1.9375zm-0.21875 -9.0q-1.03125 0 -1.75 0.765625q-0.703125 0.75 -0.859375 2.109375l5.015625 0l0 -0.125q-0.0625 -1.3125 -0.703125 -2.03125q-0.625 -0.71875 -1.703125 -0.71875z" fill-rule="nonzero"></path><path fill="#ffffff" d="m83.09932 770.00867l0 0c0 -17.041443 13.814812 -30.856262 30.856255 -30.856262l132.36621 0l0 0c8.183594 0 16.031998 3.2509155 21.81868 9.037598c5.7866516 5.786621 9.037598 13.635071 9.037598 21.818665l0 123.421326c0 17.041443 -13.814819 30.856262 -30.856277 30.856262l-132.36621 0c-17.041443 0 -30.856255 -13.814819 -30.856255 -30.856262z" fill-rule="nonzero"></path><path stroke="#000000" stroke-width="1.0" stroke-linejoin="round" stroke-linecap="butt" d="m83.09932 770.00867l0 0c0 -17.041443 13.814812 -30.856262 30.856255 -30.856262l132.36621 0l0 0c8.183594 0 16.031998 3.2509155 21.81868 9.037598c5.7866516 5.786621 9.037598 13.635071 9.037598 21.818665l0 123.421326c0 17.041443 -13.814819 30.856262 -30.856277 30.856262l-132.36621 0c-17.041443 0 -30.856255 -13.814819 -30.856255 -30.856262z" fill-rule="nonzero"></path><path fill="#000000" d="m127.49252 826.59247l-4.34375 0l0 12.046875l-1.78125 0l0 -12.046875l-4.328125 0l0 -1.46875l10.453125 0l0 1.46875zm5.6943054 12.234375q-2.046875 0 -3.328125 -1.34375q-1.28125 -1.34375 -1.28125 -3.578125l0 -0.328125q0 -1.484375 0.5625 -2.65625q0.578125 -1.171875 1.59375 -1.828125q1.03125 -0.671875 2.234375 -0.671875q1.953125 0 3.03125 1.296875q1.09375 1.28125 1.09375 3.6875l0 0.703125l-6.796875 0q0.03125 1.484375 0.859375 2.40625q0.84375 0.90625 2.125 0.90625q0.90625 0 1.53125 -0.359375q0.640625 -0.375 1.109375 -0.984375l1.046875 0.8125q-1.265625 1.9375 -3.78125 1.9375zm-0.21875 -9.0q-1.03125 0 -1.75 0.765625q-0.703125 0.75 -0.859375 2.109375l5.015625 0l0 -0.125q-0.0625 -1.3125 -0.703125 -2.03125q-0.625 -0.71875 -1.703125 -0.71875zm7.5400543 -1.21875l0.046875 1.109375q1.109375 -1.296875 2.984375 -1.296875q2.109375 0 2.859375 1.609375q0.515625 -0.71875 1.3125 -1.15625q0.796875 -0.453125 1.890625 -0.453125q3.3125 0 3.359375 3.5l0 6.71875l-1.71875 0l0 -6.625q0 -1.078125 -0.5 -1.609375q-0.484375 -0.53125 -1.640625 -0.53125q-0.953125 0 -1.59375 0.578125q-0.625 0.5625 -0.71875 1.53125l0 6.65625l-1.734375 0l0 -6.578125q0 -2.1875 -2.140625 -2.1875q-1.6875 0 -2.3125 1.4375l0 7.328125l-1.703125 0l0 -10.03125l1.609375 0zm23.226547 5.125q0 2.296875 -1.046875 3.703125q-1.046875 1.390625 -2.84375 1.390625q-1.828125 0 -2.875 -1.15625l0 4.828125l-1.71875 0l0 -13.890625l1.5625 0l0.09375 1.109375q1.046875 -1.296875 2.90625 -1.296875q1.8125 0 2.859375 1.359375q1.0625 1.359375 1.0625 3.796875l0 0.15625zm-1.71875 -0.203125q0 -1.6875 -0.734375 -2.671875q-0.71875 -0.984375 -1.96875 -0.984375q-1.5625 0 -2.34375 1.375l0 4.796875q0.765625 1.375 2.359375 1.375q1.234375 0 1.953125 -0.96875q0.734375 -0.984375 0.734375 -2.921875zm5.560562 5.109375l-1.703125 0l0 -14.25l1.703125 0l0 14.25zm8.87117 0q-0.15625 -0.296875 -0.25 -1.0625q-1.1875 1.25 -2.859375 1.25q-1.484375 0 -2.4375 -0.84375q-0.9375 -0.84375 -0.9375 -2.125q0 -1.5625 1.1875 -2.4375q1.1875 -0.875 3.359375 -0.875l1.671875 0l0 -0.78125q0 -0.90625 -0.546875 -1.4375q-0.53125 -0.53125 -1.578125 -0.53125q-0.921875 0 -1.546875 0.46875q-0.625 0.46875 -0.625 1.125l-1.71875 0q0 -0.75 0.53125 -1.453125q0.53125 -0.703125 1.4375 -1.109375q0.921875 -0.40625 2.015625 -0.40625q1.734375 0 2.71875 0.875q0.984375 0.859375 1.015625 2.375l0 4.625q0 1.375 0.359375 2.1875l0 0.15625l-1.796875 0zm-2.859375 -1.3125q0.8125 0 1.53125 -0.40625q0.734375 -0.421875 1.0625 -1.09375l0 -2.0625l-1.359375 0q-3.140625 0 -3.140625 1.84375q0 0.8125 0.53125 1.265625q0.53125 0.453125 1.375 0.453125zm9.132355 -11.15625l0 2.4375l1.875 0l0 1.3125l-1.875 0l0 6.234375q0 0.59375 0.25 0.90625q0.25 0.296875 0.859375 0.296875q0.296875 0 0.8125 -0.109375l0 1.390625q-0.671875 0.1875 -1.3125 0.1875q-1.15625 0 -1.75 -0.6875q-0.578125 -0.703125 -0.578125 -1.984375l0 -6.234375l-1.828125 0l0 -1.3125l1.828125 0l0 -2.4375l1.71875 0zm7.9380035 12.65625q-2.046875 0 -3.328125 -1.34375q-1.28125 -1.34375 -1.28125 -3.578125l0 -0.328125q0 -1.484375 0.5625 -2.65625q0.578125 -1.171875 1.59375 -1.828125q1.03125 -0.671875 2.234375 -0.671875q1.953125 0 3.03125 1.296875q1.09375 1.28125 1.09375 3.6875l0 0.703125l-6.796875 0q0.03125 1.484375 0.859375 2.40625q0.84375 0.90625 2.125 0.90625q0.90625 0 1.53125 -0.359375q0.640625 -0.375 1.109375 -0.984375l1.046875 0.8125q-1.265625 1.9375 -3.78125 1.9375zm-0.21875 -9.0q-1.03125 0 -1.75 0.765625q-0.703125 0.75 -0.859375 2.109375l5.015625 0l0 -0.125q-0.0625 -1.3125 -0.703125 -2.03125q-0.625 -0.71875 -1.703125 -0.71875zm14.799194 2.796875q-2.296875 -0.671875 -3.34375 -1.625q-1.03125 -0.953125 -1.03125 -2.375q0 -1.59375 1.265625 -2.625q1.28125 -1.046875 3.328125 -1.046875q1.390625 0 2.46875 0.53125q1.09375 0.53125 1.6875 1.484375q0.609375 0.953125 0.609375 2.0625l-1.796875 0q0 -1.21875 -0.78125 -1.921875q-0.765625 -0.703125 -2.1875 -0.703125q-1.328125 0 -2.0625 0.59375q-0.734375 0.578125 -0.734375 1.609375q0 0.8125 0.703125 1.390625q0.703125 0.5625 2.375 1.046875q1.6875 0.46875 2.640625 1.046875q0.953125 0.5625 1.40625 1.328125q0.46875 0.75 0.46875 1.78125q0 1.640625 -1.28125 2.640625q-1.28125 0.984375 -3.421875 0.984375q-1.390625 0 -2.609375 -0.53125q-1.203125 -0.53125 -1.859375 -1.453125q-0.640625 -0.9375 -0.640625 -2.125l1.78125 0q0 1.234375 0.90625 1.953125q0.90625 0.703125 2.421875 0.703125q1.40625 0 2.15625 -0.578125q0.75 -0.578125 0.75 -1.5625q0 -1.0 -0.703125 -1.546875q-0.6875 -0.546875 -2.515625 -1.0625zm9.146164 -6.453125l0 2.4375l1.875 0l0 1.3125l-1.875 0l0 6.234375q0 0.59375 0.25 0.90625q0.25 0.296875 0.859375 0.296875q0.296875 0 0.8125 -0.109375l0 1.390625q-0.671875 0.1875 -1.3125 0.1875q-1.15625 0 -1.75 -0.6875q-0.578125 -0.703125 -0.578125 -1.984375l0 -6.234375l-1.828125 0l0 -1.3125l1.828125 0l0 -2.4375l1.71875 0zm3.3130035 7.359375q0 -1.484375 0.578125 -2.65625q0.578125 -1.171875 1.609375 -1.8125q1.0468903 -0.640625 2.3750153 -0.640625q2.046875 0 3.3125 1.421875q1.265625 1.40625 1.265625 3.765625l0 0.125q0 1.46875 -0.5625 2.640625q-0.5625 1.15625 -1.609375 1.8125q-1.046875 0.640625 -2.390625 0.640625q-2.046875 0 -3.3125153 -1.421875q-1.265625 -1.421875 -1.265625 -3.75l0 -0.125zm1.71875 0.203125q0 1.671875 0.78126526 2.6875q0.78125 1.0 2.078125 1.0q1.296875 0 2.0625 -1.015625q0.78125 -1.03125 0.78125 -2.875q0 -1.65625 -0.78125 -2.671875q-0.78125 -1.03125 -2.078125 -1.03125q-1.28125 0 -2.0625 1.015625q-0.78126526 1.0 -0.78126526 2.890625zm14.233658 -3.59375q-0.390625 -0.0625 -0.84375 -0.0625q-1.6875 0 -2.296875 1.4375l0 7.125l-1.71875 0l0 -10.03125l1.671875 0l0.03125 1.15625q0.84375 -1.34375 2.390625 -1.34375q0.5 0 0.765625 0.125l0 1.59375zm5.625366 8.6875q-2.046875 0 -3.328125 -1.34375q-1.28125 -1.34375 -1.28125 -3.578125l0 -0.328125q0 -1.484375 0.5625 -2.65625q0.578125 -1.171875 1.59375 -1.828125q1.03125 -0.671875 2.234375 -0.671875q1.953125 0 3.03125 1.296875q1.09375 1.28125 1.09375 3.6875l0 0.703125l-6.796875 0q0.03125 1.484375 0.859375 2.40625q0.84375 0.90625 2.125 0.90625q0.90625 0 1.53125 -0.359375q0.640625 -0.375 1.109375 -0.984375l1.046875 0.8125q-1.265625 1.9375 -3.78125 1.9375zm-0.21875 -9.0q-1.03125 0 -1.75 0.765625q-0.703125 0.75 -0.859375 2.109375l5.015625 0l0 -0.125q-0.0625 -1.3125 -0.703125 -2.03125q-0.625 -0.71875 -1.703125 -0.71875z" fill-rule="nonzero"></path><path fill="#e4feff" d="m506.76434 145.56352l0 0c0 -17.041443 13.814819 -30.856262 30.856262 -30.856262l132.36621 0l0 0c8.183594 0 16.032043 3.2509155 21.818665 9.03759c5.786682 5.7866745 9.037598 13.635078 9.037598 21.818672l0 123.42134c0 17.041443 -13.814819 30.856262 -30.856262 30.856262l-132.36621 0c-17.041443 0 -30.856262 -13.814819 -30.856262 -30.856262z" fill-rule="nonzero"></path><path stroke="#000000" stroke-width="1.0" stroke-linejoin="round" stroke-linecap="butt" d="m506.76434 145.56352l0 0c0 -17.041443 13.814819 -30.856262 30.856262 -30.856262l132.36621 0l0 0c8.183594 0 16.032043 3.2509155 21.818665 9.03759c5.786682 5.7866745 9.037598 13.635078 9.037598 21.818672l0 123.42134c0 17.041443 -13.814819 30.856262 -30.856262 30.856262l-132.36621 0c-17.041443 0 -30.856262 -13.814819 -30.856262 -30.856262z" fill-rule="nonzero"></path><path fill="#000000" d="m549.40955 207.47543l3.53125 -6.796875l2.015625 0l-4.65625 8.484375l0 5.03125l-1.78125 0l0 -5.03125l-4.65625 -8.484375l2.046875 0l3.5 6.796875zm6.360901 1.609375q0 -1.484375 0.578125 -2.65625q0.578125 -1.171875 1.609375 -1.8125q1.046875 -0.640625 2.375 -0.640625q2.046875 0 3.3125 1.421875q1.265625 1.40625 1.265625 3.765625l0 0.125q0 1.46875 -0.5625 2.640625q-0.5625 1.15625 -1.609375 1.8125q-1.046875 0.640625 -2.390625 0.640625q-2.046875 0 -3.3125 -1.421875q-1.265625 -1.421875 -1.265625 -3.75l0 -0.125zm1.71875 0.203125q0 1.671875 0.78125 2.6875q0.78125 1.0 2.078125 1.0q1.296875 0 2.0625 -1.015625q0.78125 -1.03125 0.78125 -2.875q0 -1.65625 -0.78125 -2.671875q-0.78125 -1.03125 -2.078125 -1.03125q-1.28125 0 -2.0625 1.015625q-0.78125 1.0 -0.78125 2.890625zm15.577393 3.90625q-1.0 1.1875 -2.9375 1.1875q-1.609375 0 -2.453125 -0.921875q-0.84375 -0.9375 -0.84375 -2.765625l0 -6.53125l1.71875 0l0 6.484375q0 2.28125 1.84375 2.28125q1.96875 0 2.625 -1.46875l0 -7.296875l1.71875 0l0 10.03125l-1.640625 0l-0.03125 -1.0zm8.940857 -7.5q-0.390625 -0.0625 -0.84375 -0.0625q-1.6875 0 -2.296875 1.4375l0 7.125l-1.71875 0l0 -10.03125l1.671875 0l0.03125 1.15625q0.84375 -1.34375 2.390625 -1.34375q0.5 0 0.765625 0.125l0 1.59375zm13.8063965 4.96875l-5.65625 0l-1.28125 3.53125l-1.828125 0l5.15625 -13.515625l1.5625 0l5.15625 13.515625l-1.828125 0l-1.28125 -3.53125zm-5.125 -1.453125l4.59375 0l-2.296875 -6.328125l-2.296875 6.328125zm18.045288 0.078125q0 2.296875 -1.046875 3.703125q-1.046875 1.390625 -2.84375 1.390625q-1.828125 0 -2.875 -1.15625l0 4.828125l-1.71875 0l0 -13.890625l1.5625 0l0.09375 1.109375q1.046875 -1.296875 2.90625 -1.296875q1.8125 0 2.859375 1.359375q1.0625 1.359375 1.0625 3.796875l0 0.15625zm-1.71875 -0.203125q0 -1.6875 -0.734375 -2.671875q-0.71875 -0.984375 -1.96875 -0.984375q-1.5625 0 -2.34375 1.375l0 4.796875q0.765625 1.375 2.359375 1.375q1.234375 0 1.953125 -0.96875q0.734375 -0.984375 0.734375 -2.921875zm12.185608 0.203125q0 2.296875 -1.046875 3.703125q-1.046875 1.390625 -2.84375 1.390625q-1.828125 0 -2.875 -1.15625l0 4.828125l-1.71875 0l0 -13.890625l1.5625 0l0.09375 1.109375q1.046875 -1.296875 2.90625 -1.296875q1.8125 0 2.859375 1.359375q1.0625 1.359375 1.0625 3.796875l0 0.15625zm-1.71875 -0.203125q0 -1.6875 -0.734375 -2.671875q-0.71875 -0.984375 -1.96875 -0.984375q-1.5625 0 -2.34375 1.375l0 4.796875q0.765625 1.375 2.359375 1.375q1.234375 0 1.953125 -0.96875q0.734375 -0.984375 0.734375 -2.921875zm18.975952 5.109375l-1.796875 0l0 -6.25l-6.8125 0l0 6.25l-1.78125 0l0 -13.515625l1.78125 0l0 5.8125l6.8125 0l0 -5.8125l1.796875 0l0 13.515625zm6.8154907 0.1875q-2.046875 0 -3.328125 -1.34375q-1.28125 -1.34375 -1.28125 -3.578125l0 -0.328125q0 -1.484375 0.5625 -2.65625q0.578125 -1.171875 1.59375 -1.828125q1.03125 -0.671875 2.234375 -0.671875q1.953125 0 3.03125 1.296875q1.09375 1.28125 1.09375 3.6875l0 0.703125l-6.796875 0q0.03125 1.484375 0.859375 2.40625q0.84375 0.90625 2.125 0.90625q0.90625 0 1.53125 -0.359375q0.640625 -0.375 1.109375 -0.984375l1.046875 0.8125q-1.265625 1.9375 -3.78125 1.9375zm-0.21875 -9.0q-1.03125 0 -1.75 0.765625q-0.703125 0.75 -0.859375 2.109375l5.015625 0l0 -0.125q-0.0625 -1.3125 -0.703125 -2.03125q-0.625 -0.71875 -1.703125 -0.71875zm10.790039 0.3125q-0.390625 -0.0625 -0.84375 -0.0625q-1.6875 0 -2.296875 1.4375l0 7.125l-1.71875 0l0 -10.03125l1.671875 0l0.03125 1.15625q0.84375 -1.34375 2.390625 -1.34375q0.5 0 0.765625 0.125l0 1.59375zm5.625366 8.6875q-2.046875 0 -3.328125 -1.34375q-1.28125 -1.34375 -1.28125 -3.578125l0 -0.328125q0 -1.484375 0.5625 -2.65625q0.578125 -1.171875 1.59375 -1.828125q1.03125 -0.671875 2.234375 -0.671875q1.953125 0 3.03125 1.296875q1.09375 1.28125 1.09375 3.6875l0 0.703125l-6.796875 0q0.03125 1.484375 0.859375 2.40625q0.84375 0.90625 2.125 0.90625q0.90625 0 1.53125 -0.359375q0.640625 -0.375 1.109375 -0.984375l1.046875 0.8125q-1.265625 1.9375 -3.78125 1.9375zm-0.21875 -9.0q-1.03125 0 -1.75 0.765625q-0.703125 0.75 -0.859375 2.109375l5.015625 0l0 -0.125q-0.0625 -1.3125 -0.703125 -2.03125q-0.625 -0.71875 -1.703125 -0.71875z" fill-rule="nonzero"></path><path fill="#e4feff" d="m319.11285 696.3914l0 0c0 -9.222351 7.476166 -16.698486 16.698517 -16.698486l108.05182 0c4.428711 0 8.676025 1.7592773 11.807617 4.890869c3.1315613 3.1315918 4.890869 7.3789062 4.890869 11.807617l0 66.79199c0 9.22229 -7.476166 16.698486 -16.698486 16.698486l-108.05182 0c-9.222351 0 -16.698517 -7.4761963 -16.698517 -16.698486z" fill-rule="nonzero"></path><path stroke="#000000" stroke-width="1.0" stroke-linejoin="round" stroke-linecap="butt" d="m319.11285 696.3914l0 0c0 -9.222351 7.476166 -16.698486 16.698517 -16.698486l108.05182 0c4.428711 0 8.676025 1.7592773 11.807617 4.890869c3.1315613 3.1315918 4.890869 7.3789062 4.890869 11.807617l0 66.79199c0 9.22229 -7.476166 16.698486 -16.698486 16.698486l-108.05182 0c-9.222351 0 -16.698517 -7.4761963 -16.698517 -16.698486z" fill-rule="nonzero"></path><path fill="#000000" d="m357.4425 718.98865l3.53125 -6.796875l2.015625 0l-4.65625 8.484375l0 5.03125l-1.78125 0l0 -5.03125l-4.65625 -8.484375l2.046875 0l3.5 6.796875zm6.3609314 1.609375q0 -1.484375 0.578125 -2.65625q0.578125 -1.171875 1.609375 -1.8125q1.046875 -0.640625 2.375 -0.640625q2.046875 0 3.3125 1.421875q1.265625 1.40625 1.265625 3.765625l0 0.125q0 1.46875 -0.5625 2.640625q-0.5625 1.15625 -1.609375 1.8125q-1.046875 0.640625 -2.390625 0.640625q-2.046875 0 -3.3125 -1.421875q-1.265625 -1.421875 -1.265625 -3.75l0 -0.125zm1.71875 0.203125q0 1.671875 0.78125 2.6875q0.78125 1.0 2.078125 1.0q1.296875 0 2.0625 -1.015625q0.78125 -1.03125 0.78125 -2.875q0 -1.65625 -0.78125 -2.671875q-0.78125 -1.03125 -2.078125 -1.03125q-1.28125 0 -2.0625 1.015625q-0.78125 1.0 -0.78125 2.890625zm15.577393 3.90625q-1.0 1.1875 -2.9375 1.1875q-1.609375 0 -2.453125 -0.921875q-0.84375 -0.9375 -0.84375 -2.765625l0 -6.53125l1.71875 0l0 6.484375q0 2.28125 1.84375 2.28125q1.96875 0 2.625 -1.46875l0 -7.296875l1.71875 0l0 10.03125l-1.640625 0l-0.03125 -1.0zm8.940887 -7.5q-0.390625 -0.0625 -0.84375 -0.0625q-1.6875 0 -2.296875 1.4375l0 7.125l-1.71875 0l0 -10.03125l1.671875 0l0.03125 1.15625q0.84375 -1.34375 2.390625 -1.34375q0.5 0 0.765625 0.125l0 1.59375zm13.8063965 4.96875l-5.65625 0l-1.28125 3.53125l-1.828125 0l5.15625 -13.515625l1.5625 0l5.15625 13.515625l-1.828125 0l-1.28125 -3.53125zm-5.125 -1.453125l4.59375 0l-2.296875 -6.328125l-2.296875 6.328125zm18.045288 0.078125q0 2.296875 -1.046875 3.703125q-1.046875 1.390625 -2.84375 1.390625q-1.828125 0 -2.875 -1.15625l0 4.828125l-1.71875 0l0 -13.890625l1.5625 0l0.09375 1.109375q1.046875 -1.296875 2.90625 -1.296875q1.8125 0 2.859375 1.359375q1.0625 1.359375 1.0625 3.796875l0 0.15625zm-1.71875 -0.203125q0 -1.6875 -0.734375 -2.671875q-0.71875 -0.984375 -1.96875 -0.984375q-1.5625 0 -2.34375 1.375l0 4.796875q0.765625 1.375 2.359375 1.375q1.234375 0 1.953125 -0.96875q0.734375 -0.984375 0.734375 -2.921875zm12.185547 0.203125q0 2.296875 -1.046875 3.703125q-1.046875 1.390625 -2.84375 1.390625q-1.828125 0 -2.875 -1.15625l0 4.828125l-1.71875 0l0 -13.890625l1.5625 0l0.09375 1.109375q1.046875 -1.296875 2.90625 -1.296875q1.8125 0 2.859375 1.359375q1.0625 1.359375 1.0625 3.796875l0 0.15625zm-1.71875 -0.203125q0 -1.6875 -0.734375 -2.671875q-0.71875 -0.984375 -1.96875 -0.984375q-1.5625 0 -2.34375 1.375l0 4.796875q0.765625 1.375 2.359375 1.375q1.234375 0 1.953125 -0.96875q0.734375 -0.984375 0.734375 -2.921875z" fill-rule="nonzero"></path><path fill="#000000" d="m382.10022 747.7074l-1.796875 0l0 -6.25l-6.8125 0l0 6.25l-1.78125 0l0 -13.515625l1.78125 0l0 5.8125l6.8125 0l0 -5.8125l1.796875 0l0 13.515625zm6.8154907 0.1875q-2.046875 0 -3.328125 -1.34375q-1.28125 -1.34375 -1.28125 -3.578125l0 -0.328125q0 -1.484375 0.5625 -2.65625q0.578125 -1.171875 1.59375 -1.828125q1.03125 -0.671875 2.234375 -0.671875q1.953125 0 3.03125 1.296875q1.09375 1.28125 1.09375 3.6875l0 0.703125l-6.796875 0q0.03125 1.484375 0.859375 2.40625q0.84375 0.90625 2.125 0.90625q0.90625 0 1.53125 -0.359375q0.640625 -0.375 1.109375 -0.984375l1.046875 0.8125q-1.265625 1.9375 -3.78125 1.9375zm-0.21875 -9.0q-1.03125 0 -1.75 0.765625q-0.703125 0.75 -0.859375 2.109375l5.015625 0l0 -0.125q-0.0625 -1.3125 -0.703125 -2.03125q-0.625 -0.71875 -1.703125 -0.71875zm10.790039 0.3125q-0.390625 -0.0625 -0.84375 -0.0625q-1.6875 0 -2.296875 1.4375l0 7.125l-1.71875 0l0 -10.03125l1.671875 0l0.03125 1.15625q0.84375 -1.34375 2.390625 -1.34375q0.5 0 0.765625 0.125l0 1.59375zm5.6253967 8.6875q-2.046875 0 -3.328125 -1.34375q-1.28125 -1.34375 -1.28125 -3.578125l0 -0.328125q0 -1.484375 0.5625 -2.65625q0.578125 -1.171875 1.59375 -1.828125q1.03125 -0.671875 2.234375 -0.671875q1.953125 0 3.03125 1.296875q1.09375 1.28125 1.09375 3.6875l0 0.703125l-6.796875 0q0.03125 1.484375 0.859375 2.40625q0.84375 0.90625 2.125 0.90625q0.90625 0 1.53125 -0.359375q0.640625 -0.375 1.109375 -0.984375l1.046875 0.8125q-1.265625 1.9375 -3.78125 1.9375zm-0.21875 -9.0q-1.03125 0 -1.75 0.765625q-0.703125 0.75 -0.859375 2.109375l5.015625 0l0 -0.125q-0.0625 -1.3125 -0.703125 -2.03125q-0.625 -0.71875 -1.703125 -0.71875z" fill-rule="nonzero"></path><path fill="#ffffff" d="m712.19507 559.02545l0 0c0 -17.041443 13.814819 -30.856262 30.856262 -30.856262l132.36627 0l0 0c8.183533 0 16.031982 3.2509155 21.818665 9.037598c5.786621 5.786682 9.037537 13.635071 9.037537 21.818665l0 123.42139c0 17.041443 -13.814758 30.856262 -30.856201 30.856262l-132.36627 0c-17.041443 0 -30.856262 -13.814819 -30.856262 -30.856262z" fill-rule="nonzero"></path><path stroke="#000000" stroke-width="1.0" stroke-linejoin="round" stroke-linecap="butt" d="m712.19507 559.02545l0 0c0 -17.041443 13.814819 -30.856262 30.856262 -30.856262l132.36627 0l0 0c8.183533 0 16.031982 3.2509155 21.818665 9.037598c5.786621 5.786682 9.037537 13.635071 9.037537 21.818665l0 123.42139c0 17.041443 -13.814758 30.856262 -30.856201 30.856262l-132.36627 0c-17.041443 0 -30.856262 -13.814819 -30.856262 -30.856262z" fill-rule="nonzero"></path><path fill="#000000" d="m757.51904 613.1249l-5.65625 0l-1.28125 3.53125l-1.828125 0l5.15625 -13.515625l1.5625 0l5.15625 13.515625l-1.828125 0l-1.28125 -3.53125zm-5.125 -1.453125l4.59375 0l-2.296875 -6.328125l-2.296875 6.328125zm9.904663 6.140625l-1.46875 0l5.640625 -14.671875l1.46875 0l-5.640625 14.671875zm12.094666 -3.515625l3.859375 -11.15625l1.9375 0l-5.0 13.515625l-1.578125 0l-5.0 -13.515625l1.9375 0l3.84375 11.15625zm15.988159 -3.65625q-2.296875 -0.671875 -3.34375 -1.625q-1.03125 -0.953125 -1.03125 -2.375q0 -1.59375 1.265625 -2.625q1.28125 -1.046875 3.328125 -1.046875q1.390625 0 2.46875 0.53125q1.09375 0.53125 1.6875 1.484375q0.609375 0.953125 0.609375 2.0625l-1.796875 0q0 -1.21875 -0.78125 -1.921875q-0.765625 -0.703125 -2.1875 -0.703125q-1.328125 0 -2.0625 0.59375q-0.734375 0.578125 -0.734375 1.609375q0 0.8125 0.703125 1.390625q0.703125 0.5625 2.375 1.046875q1.6875 0.46875 2.640625 1.046875q0.953125 0.5625 1.40625 1.328125q0.46875 0.75 0.46875 1.78125q0 1.640625 -1.28125 2.640625q-1.28125 0.984375 -3.421875 0.984375q-1.390625 0 -2.609375 -0.53125q-1.203125 -0.53125 -1.859375 -1.453125q-0.640625 -0.9375 -0.640625 -2.125l1.78125 0q0 1.234375 0.90625 1.953125q0.90625 0.703125 2.421875 0.703125q1.40625 0 2.15625 -0.578125q0.75 -0.578125 0.75 -1.5625q0 -1.0 -0.703125 -1.546875q-0.6875 -0.546875 -2.515625 -1.0625zm9.146179 -6.453125l0 2.4375l1.875 0l0 1.3125l-1.875 0l0 6.234375q0 0.59375 0.25 0.90625q0.25 0.296875 0.859375 0.296875q0.296875 0 0.8125 -0.109375l0 1.390625q-0.671875 0.1875 -1.3125 0.1875q-1.15625 0 -1.75 -0.6875q-0.578125 -0.703125 -0.578125 -1.984375l0 -6.234375l-1.828125 0l0 -1.3125l1.828125 0l0 -2.4375l1.71875 0zm8.625488 3.96875q-0.390625 -0.0625 -0.84375 -0.0625q-1.6875 0 -2.296875 1.4375l0 7.125l-1.71875 0l0 -10.03125l1.671875 0l0.03125 1.15625q0.84375 -1.34375 2.390625 -1.34375q0.5 0 0.765625 0.125l0 1.59375zm5.6254272 8.6875q-2.046875 0 -3.328125 -1.34375q-1.28125 -1.34375 -1.28125 -3.578125l0 -0.328125q0 -1.484375 0.5625 -2.65625q0.578125 -1.171875 1.59375 -1.828125q1.03125 -0.671875 2.234375 -0.671875q1.953125 0 3.03125 1.296875q1.09375 1.28125 1.09375 3.6875l0 0.703125l-6.796875 0q0.03125 1.484375 0.859375 2.40625q0.84375 0.90625 2.125 0.90625q0.90625 0 1.53125 -0.359375q0.640625 -0.375 1.109375 -0.984375l1.046875 0.8125q-1.265625 1.9375 -3.78125 1.9375zm-0.21875 -9.0q-1.03125 0 -1.75 0.765625q-0.703125 0.75 -0.859375 2.109375l5.015625 0l0 -0.125q-0.0625 -1.3125 -0.703125 -2.03125q-0.625 -0.71875 -1.703125 -0.71875zm12.133789 8.8125q-0.15625 -0.296875 -0.25 -1.0625q-1.1875 1.25 -2.859375 1.25q-1.484375 0 -2.4375 -0.84375q-0.9375 -0.84375 -0.9375 -2.125q0 -1.5625 1.1875 -2.4375q1.1875 -0.875 3.359375 -0.875l1.671875 0l0 -0.78125q0 -0.90625 -0.546875 -1.4375q-0.53125 -0.53125 -1.578125 -0.53125q-0.921875 0 -1.546875 0.46875q-0.625 0.46875 -0.625 1.125l-1.71875 0q0 -0.75 0.53125 -1.453125q0.53125 -0.703125 1.4375 -1.109375q0.921875 -0.40625 2.015625 -0.40625q1.734375 0 2.71875 0.875q0.984375 0.859375 1.015625 2.375l0 4.625q0 1.375 0.359375 2.1875l0 0.15625l-1.796875 0zm-2.859375 -1.3125q0.8125 0 1.53125 -0.40625q0.734375 -0.421875 1.0625 -1.09375l0 -2.0625l-1.359375 0q-3.140625 0 -3.140625 1.84375q0 0.8125 0.53125 1.265625q0.53125 0.453125 1.375 0.453125zm8.413574 -8.71875l0.046875 1.109375q1.109375 -1.296875 2.984375 -1.296875q2.109375 0 2.859375 1.609375q0.515625 -0.71875 1.3125 -1.15625q0.796875 -0.453125 1.890625 -0.453125q3.3125 0 3.359375 3.5l0 6.71875l-1.71875 0l0 -6.625q0 -1.078125 -0.5 -1.609375q-0.484375 -0.53125 -1.640625 -0.53125q-0.953125 0 -1.59375 0.578125q-0.625 0.5625 -0.71875 1.53125l0 6.65625l-1.734375 0l0 -6.578125q0 -2.1875 -2.140625 -2.1875q-1.6875 0 -2.3125 1.4375l0 7.328125l-1.703125 0l0 -10.03125l1.609375 0zm16.601562 10.03125l-1.703125 0l0 -10.03125l1.703125 0l0 10.03125zm-1.84375 -12.703125q0 -0.421875 0.25 -0.703125q0.25 -0.28125 0.75 -0.28125q0.515625 0 0.765625 0.28125q0.265625 0.28125 0.265625 0.703125q0 0.421875 -0.265625 0.703125q-0.25 0.265625 -0.765625 0.265625q-0.5 0 -0.75 -0.265625q-0.25 -0.28125 -0.25 -0.703125zm6.13678 2.671875l0.0625 1.25q1.140625 -1.4375 3.0 -1.4375q3.1875 0 3.203125 3.578125l0 6.640625l-1.703125 0l0 -6.640625q-0.015625 -1.09375 -0.5 -1.609375q-0.484375 -0.515625 -1.515625 -0.515625q-0.84375 0 -1.46875 0.453125q-0.625 0.4375 -0.984375 1.15625l0 7.15625l-1.71875 0l0 -10.03125l1.625 0zm8.262512 4.921875q0 -2.34375 1.078125 -3.71875q1.09375 -1.390625 2.890625 -1.390625q1.828125 0 2.859375 1.296875l0.078125 -1.109375l1.578125 0l0 9.796875q0 1.9375 -1.15625 3.0625q-1.15625 1.125 -3.109375 1.125q-1.078125 0 -2.125 -0.46875q-1.03125 -0.453125 -1.578125 -1.265625l0.890625 -1.03125q1.09375 1.359375 2.6875 1.359375q1.265625 0 1.953125 -0.703125q0.703125 -0.703125 0.703125 -1.984375l0 -0.859375q-1.03125 1.1875 -2.8125 1.1875q-1.75 0 -2.84375 -1.421875q-1.09375 -1.421875 -1.09375 -3.875zm1.71875 0.203125q0 1.703125 0.703125 2.671875q0.703125 0.96875 1.953125 0.96875q1.625 0 2.375 -1.484375l0 -4.578125q-0.78125 -1.4375 -2.359375 -1.4375q-1.25 0 -1.96875 0.984375q-0.703125 0.96875 -0.703125 2.875z" fill-rule="nonzero"></path><path fill="#000000" d="m784.54236 632.6405q-2.296875 -0.671875 -3.34375 -1.625q-1.03125 -0.953125 -1.03125 -2.375q0 -1.59375 1.265625 -2.625q1.28125 -1.046875 3.328125 -1.046875q1.390625 0 2.46875 0.53125q1.09375 0.53125 1.6875 1.484375q0.609375 0.953125 0.609375 2.0625l-1.796875 0q0 -1.21875 -0.78125 -1.921875q-0.765625 -0.703125 -2.1875 -0.703125q-1.328125 0 -2.0625 0.59375q-0.734375 0.578125 -0.734375 1.609375q0 0.8125 0.703125 1.390625q0.703125 0.5625 2.375 1.046875q1.6875 0.46875 2.640625 1.046875q0.953125 0.5625 1.40625 1.328125q0.46875 0.75 0.46875 1.78125q0 1.640625 -1.28125 2.640625q-1.28125 0.984375 -3.421875 0.984375q-1.390625 0 -2.609375 -0.53125q-1.203125 -0.53125 -1.859375 -1.453125q-0.640625 -0.9375 -0.640625 -2.125l1.78125 0q0 1.234375 0.90625 1.953125q0.90625 0.703125 2.421875 0.703125q1.40625 0 2.15625 -0.578125q0.75 -0.578125 0.75 -1.5625q0 -1.0 -0.703125 -1.546875q-0.6875 -0.546875 -2.515625 -1.0625zm10.989929 6.203125q-2.046875 0 -3.328125 -1.34375q-1.28125 -1.34375 -1.28125 -3.578125l0 -0.328125q0 -1.484375 0.5625 -2.65625q0.578125 -1.171875 1.59375 -1.828125q1.03125 -0.671875 2.234375 -0.671875q1.953125 0 3.03125 1.296875q1.09375 1.28125 1.09375 3.6875l0 0.703125l-6.796875 0q0.03125 1.484375 0.859375 2.40625q0.84375 0.90625 2.125 0.90625q0.90625 0 1.53125 -0.359375q0.640625 -0.375 1.109375 -0.984375l1.046875 0.8125q-1.265625 1.9375 -3.78125 1.9375zm-0.21875 -9.0q-1.03125 0 -1.75 0.765625q-0.703125 0.75 -0.859375 2.109375l5.015625 0l0 -0.125q-0.0625 -1.3125 -0.703125 -2.03125q-0.625 -0.71875 -1.703125 -0.71875zm10.790039 0.3125q-0.390625 -0.0625 -0.84375 -0.0625q-1.6875 0 -2.296875 1.4375l0 7.125l-1.71875 0l0 -10.03125l1.671875 0l0.03125 1.15625q0.84375 -1.34375 2.390625 -1.34375q0.5 0 0.765625 0.125l0 1.59375zm4.765991 6.171875l2.484375 -7.703125l1.75 0l-3.59375 10.03125l-1.3125 0l-3.625 -10.03125l1.75 0l2.546875 7.703125zm7.583496 2.328125l-1.703125 0l0 -10.03125l1.703125 0l0 10.03125zm-1.84375 -12.703125q0 -0.421875 0.25 -0.703125q0.25 -0.28125 0.75 -0.28125q0.515625 0 0.765625 0.28125q0.265625 0.28125 0.265625 0.703125q0 0.421875 -0.265625 0.703125q-0.25 0.265625 -0.765625 0.265625q-0.5 0 -0.75 -0.265625q-0.25 -0.28125 -0.25 -0.703125zm8.543091 11.484375q0.921875 0 1.59375 -0.546875q0.6875 -0.5625 0.765625 -1.390625l1.625 0q-0.046875 0.859375 -0.59375 1.640625q-0.546875 0.765625 -1.46875 1.234375q-0.90625 0.46875 -1.921875 0.46875q-2.046875 0 -3.265625 -1.359375q-1.203125 -1.375 -1.203125 -3.75l0 -0.296875q0 -1.46875 0.53125 -2.609375q0.546875 -1.140625 1.546875 -1.765625q1.0 -0.625 2.375 -0.625q1.6875 0 2.796875 1.015625q1.125 1.0 1.203125 2.609375l-1.625 0q-0.078125 -0.96875 -0.734375 -1.59375q-0.65625 -0.625 -1.640625 -0.625q-1.296875 0 -2.03125 0.9375q-0.71875 0.9375 -0.71875 2.71875l0 0.328125q0 1.734375 0.71875 2.671875q0.71875 0.9375 2.046875 0.9375zm9.906006 1.40625q-2.046875 0 -3.328125 -1.34375q-1.28125 -1.34375 -1.28125 -3.578125l0 -0.328125q0 -1.484375 0.5625 -2.65625q0.578125 -1.171875 1.59375 -1.828125q1.03125 -0.671875 2.234375 -0.671875q1.953125 0 3.03125 1.296875q1.09375 1.28125 1.09375 3.6875l0 0.703125l-6.796875 0q0.03125 1.484375 0.859375 2.40625q0.84375 0.90625 2.125 0.90625q0.90625 0 1.53125 -0.359375q0.640625 -0.375 1.109375 -0.984375l1.046875 0.8125q-1.265625 1.9375 -3.78125 1.9375zm-0.21875 -9.0q-1.03125 0 -1.75 0.765625q-0.703125 0.75 -0.859375 2.109375l5.015625 0l0 -0.125q-0.0625 -1.3125 -0.703125 -2.03125q-0.625 -0.71875 -1.703125 -0.71875z" fill-rule="nonzero"></path></g></svg>

